<svg xmlns="http://www.w3.org/2000/svg" viewBox="0 0 1023.96 768.03"><defs><style>.cls-1,.cls-10,.cls-11,.cls-12,.cls-4,.cls-5{fill:none;}.cls-14,.cls-16,.cls-2,.cls-7{fill:#fff;}.cls-12,.cls-13,.cls-14,.cls-16,.cls-17,.cls-2,.cls-3,.cls-4,.cls-6{stroke:#000;}.cls-10,.cls-11,.cls-12,.cls-13,.cls-14,.cls-17,.cls-2,.cls-3,.cls-4,.cls-5,.cls-6{stroke-linecap:round;stroke-linejoin:round;}.cls-10,.cls-11,.cls-16,.cls-2,.cls-3,.cls-4,.cls-5,.cls-6{stroke-width:4px;}.cls-3{fill:#15b881;}.cls-5{stroke:#15b881;}.cls-8{fill:#13b880;}.cls-9{fill:#ef1500;}.cls-10{stroke:#fff;}.cls-11{stroke:#ef1500;}.cls-12,.cls-14,.cls-17{stroke-width:5.86px;}.cls-13{stroke-width:3.6px;}.cls-15{fill:#2c29c2;}.cls-16{stroke-miterlimit:10;}.cls-18{fill:#2c28c2;}</style></defs><g id="Слой_2" data-name="Слой 2"><rect class="cls-1" width="1023.96" height="768.03"/></g><g id="Слой_11" data-name="Слой 11"><polygon class="cls-2" points="90.31 420.51 170.4 359.28 433.68 358.87 371.59 420.51 90.31 420.51"/><polygon class="cls-2" points="89.94 420.51 170.03 359.28 433.32 358.87 371.22 420.51 89.94 420.51"/><polygon class="cls-3" points="433.83 520.12 371.31 583.25 371.31 421.16 433.83 358.86 433.83 520.12"/><rect class="cls-4" x="90.03" y="420.74" width="281.28" height="162.52"/><polygon class="cls-4" points="433.83 520.12 371.31 583.25 371.31 421.16 433.83 358.86 433.83 520.12"/><polygon class="cls-3" points="90.31 420.51 170.4 359.28 433.68 358.87 371.59 420.51 90.31 420.51"/><line class="cls-5" x1="182.95" y1="410.21" x2="300.75" y2="410.48"/><rect class="cls-6" x="90.03" y="420.74" width="281.28" height="162.52"/><path class="cls-7" d="M256,511.56s18.92-15.26,49.52-15.32c30.8-.06,49.75,15.12,49.75,15.12l-.42.5s-18.92,15.26-49.53,15.32c-30.79.06-49.74-15.12-49.74-15.12Z" transform="translate(-1.02 -0.48)"/><ellipse class="cls-8" cx="294.87" cy="511.2" rx="15.74" ry="15.47"/><circle class="cls-9" cx="293.39" cy="510.62" r="5.73"/><line class="cls-10" x1="261.54" y1="488.04" x2="301.5" y2="476.84"/><path class="cls-7" d="M105.41,510.69s19.18-14.92,49.78-14.44c30.79.48,49.48,16,49.48,16l-.44.5s-19.18,14.92-49.78,14.44c-30.79-.47-49.48-16-49.48-16Z" transform="translate(-1.02 -0.48)"/><ellipse class="cls-8" cx="144.27" cy="511.47" rx="15.74" ry="15.2"/><circle class="cls-9" cx="142.79" cy="510.62" r="5.73"/><line class="cls-10" x1="149.43" y1="477.37" x2="189.93" y2="486.4"/><path class="cls-11" d="M314.47,462.63q0-9.94.26-19.89c.29-11.77-.4-31.81,14.5-35.31a14.22,14.22,0,0,1,8.37.35,17.32,17.32,0,0,1,11,14.09" transform="translate(-1.02 -0.48)"/><rect class="cls-6" x="359.11" y="420.94" width="13.01" height="14.04" transform="translate(730.21 855.43) rotate(-180)"/><rect class="cls-6" x="326.2" y="420.56" width="35.57" height="12.29"/></g><g id="Слой_12" data-name="Слой 12"><rect class="cls-7" x="175.57" y="265.63" width="602.34" height="240.31"/></g><g id="Слой_10" data-name="Слой 10"><line class="cls-12" x1="679.86" y1="266.06" x2="777.91" y2="266.06"/></g><g id="Слой_9" data-name="Слой 9"><rect class="cls-8" x="463.04" y="-40.16" width="193.67" height="395.83" transform="translate(278.46 666.9) rotate(-76.92)"/><line class="cls-4" x1="383.63" y1="44.65" x2="765.03" y2="134.32"/><line class="cls-4" x1="404.43" y1="93.72" x2="730.83" y2="169.73"/><circle class="cls-3" cx="513.95" cy="171.06" r="11.86"/><line class="cls-4" x1="527.33" y1="174.03" x2="667.54" y2="205.9"/><circle class="cls-3" cx="481.92" cy="111.15" r="11.65"/><circle class="cls-3" cx="720.45" cy="167.17" r="11.69"/><rect class="cls-13" x="614.19" y="133.62" width="22.8" height="22.8" transform="translate(48.49 -139.23) rotate(13.17)"/><line class="cls-4" x1="734.78" y1="126.4" x2="741.09" y2="102.37"/><line class="cls-4" x1="703.87" y1="119.21" x2="710.18" y2="95.18"/><line class="cls-4" x1="673.57" y1="112.31" x2="679.89" y2="88.28"/><line class="cls-4" x1="762.33" y1="113.37" x2="746.87" y2="121.95"/><line class="cls-4" x1="750.27" y1="110.52" x2="759.7" y2="125.04"/><rect class="cls-4" x="717.51" y="104.46" width="12.59" height="11.78" transform="translate(45.16 -167.44) rotate(13.59)"/><line class="cls-4" x1="687.2" y1="101.87" x2="696.88" y2="104.14"/><line class="cls-4" x1="384.1" y1="184.38" x2="458" y2="201.96"/><line class="cls-4" x1="501.36" y1="168.42" x2="449.58" y2="156.1"/></g><g id="Слой_3" data-name="Слой 3"><polygon class="cls-14" points="343.76 265.27 173.19 432.26 172.53 432.92 172.4 433.05 87.96 348.64 274.13 176.94 343.76 265.27"/><rect class="cls-15" x="317.02" y="226.83" width="395.83" height="198.63" transform="translate(-59.58 119.2) rotate(-12.55)"/><path class="cls-16" d="M379.53,345.49,407,410.62c2.29,5.59,9.38,7.95,15.63,5.32l233.91-98.5a13.57,13.57,0,0,0,5.07-3.68,11,11,0,0,0,2.29.33,20.55,20.55,0,0,0,16.73-7.55c-4.29,1.67-9.46,1.82-13.39-.53a13,13,0,0,1-3.52-3.48l-27.43-65.14c-2.35-5.57-9.38-8-15.69-5.3L386.71,330.57C380.4,333.22,377.19,339.92,379.53,345.49Z" transform="translate(-1.02 -0.48)"/><path class="cls-9" d="M454.86,345c5.52,12.56-7.1,36-9.06,39.12a.85.85,0,0,0-.09.15l-.46-.09c-4.52-1-29-8-34.34-20.28-4.54-10.51,6.78-21.49,19.84-14.17l.14.07a1.13,1.13,0,0,0,0-.15C434.6,335.12,450.25,334.5,454.86,345Z" transform="translate(-1.02 -0.48)"/><path class="cls-9" d="M513.06,320.34c5.53,12.56-7.1,36-9,39.12a.85.85,0,0,0-.09.15l-.46-.09c-4.52-1-29-8-34.34-20.28-4.55-10.5,6.78-21.48,19.83-14.17l.15.08c0-.06,0-.12,0-.16C492.81,310.48,508.45,309.87,513.06,320.34Z" transform="translate(-1.02 -0.48)"/><path class="cls-9" d="M571.64,295c5.53,12.56-7.1,36-9.06,39.12,0,.06-.06.1-.08.15l-.46-.09c-4.52-1-29-8-34.34-20.28-4.55-10.51,6.78-21.49,19.83-14.17l.15.07c0-.05,0-.11,0-.15C551.39,285.16,567,284.54,571.64,295Z" transform="translate(-1.02 -0.48)"/><path class="cls-9" d="M629.38,268.8c5.53,12.56-7.1,36-9.06,39.12a1.09,1.09,0,0,0-.08.15l-.46-.1c-4.52-1-29-8-34.34-20.27-4.55-10.51,6.78-21.49,19.83-14.18a.53.53,0,0,0,.15.08c0-.05,0-.11,0-.16C609.13,258.94,624.77,258.32,629.38,268.8Z" transform="translate(-1.02 -0.48)"/><rect class="cls-6" x="392.44" y="246.48" width="178.99" height="419.15" transform="translate(-58.87 841.42) rotate(-78.98)"/><path class="cls-9" d="M502.79,519.44,316.67,447.7c-8-3.09-12.31-11.37-9.58-18.45L329,372.41c2.72-7.08,11.46-10.35,19.48-7.26l186,71.71c8,3.09,12.31,11.37,9.58,18.45l-21.9,56.85C519.55,519.26,510.74,522.5,502.79,519.44Z" transform="translate(-1.02 -0.48)"/><path class="cls-9" d="M286,435a25.74,25.74,0,0,0,21.29,8.83,10.19,10.19,0,0,0,4.69-1.31,6.57,6.57,0,0,0,2.7-7.32c-.74-2.37-7.61-5.88-7.61-5.88a16.46,16.46,0,0,1-4.28,4.51C298,436.88,291.45,436.88,286,435Z" transform="translate(-1.02 -0.48)"/><path class="cls-7" d="M390.71,446.33c2,6.81,3.79,13.34,3.79,13.34s-9.35-3.95-15.24-9.23c-9.79-8.77-18.89-25-18.89-25l15.72-9.66S388.54,439,390.71,446.33Z" transform="translate(-1.02 -0.48)"/><polygon points="375.9 415.06 368.31 419.38 353.77 392.54 361.31 388.45 375.9 415.06"/><path class="cls-7" d="M441.38,465.86c2,6.81,3.79,13.34,3.79,13.34s-9.35-3.95-15.24-9.23c-9.78-8.78-18.88-25-18.88-25l15.71-9.66S439.21,458.54,441.38,465.86Z" transform="translate(-1.02 -0.48)"/><polygon points="426.57 434.59 418.98 438.91 404.44 412.07 411.98 407.98 426.57 434.59"/><path class="cls-7" d="M493.66,485.46c2,6.81,3.79,13.34,3.79,13.34s-9.36-3.95-15.24-9.23c-9.79-8.77-18.89-25-18.89-25L479,454.87S491.49,478.14,493.66,485.46Z" transform="translate(-1.02 -0.48)"/><polygon points="478.85 454.19 471.26 458.51 456.72 431.67 464.26 427.59 478.85 454.19"/><rect class="cls-15" x="230.14" y="404.45" width="395.83" height="190.17"/><rect class="cls-8" x="172.66" y="432.92" width="446.15" height="213.74"/><polygon class="cls-17" points="777.6 469.07 618.82 643.72 618.82 431.46 777.6 266.06 777.6 469.07"/><polyline class="cls-12" points="777.33 265.93 618.82 432.26 618.15 432.92 618.02 433.05 172.53 432.39"/><polygon class="cls-14" points="889.23 180.75 765.84 334.66 618.42 432.39 777.6 265.93 889.23 180.75"/></g><g id="Слой_6" data-name="Слой 6"><rect class="cls-2" x="664.01" y="531.76" width="201" height="142.21" transform="matrix(1, 0, 0, 1, 0.2, -2.03)"/><polygon class="cls-2" points="863.61 531.56 663.05 530.69 745.97 448.04 941.36 448.92 863.61 531.56"/><rect class="cls-18" x="816.76" y="498.35" width="91.7" height="84.65" transform="translate(162.19 -199.58) rotate(14.53)"/><rect class="cls-2" x="697.95" y="518.09" width="145.97" height="83.94" transform="translate(998.96 -365.38) rotate(67.91)"/><polyline class="cls-7" points="759.99 517.9 752.59 534.25 769.28 540.8 761.88 557.14 778.58 563.7 771.17 580.04 787.88 586.61 780.47 602.96"/><polyline class="cls-4" points="759.99 517.9 752.59 534.25 769.28 540.8 761.88 557.14 778.58 563.7 771.17 580.04 787.88 586.61 780.47 602.96"/><rect class="cls-4" x="664.01" y="531.76" width="201" height="142.21" transform="matrix(1, 0, 0, 1, 0.2, -2.03)"/><polygon class="cls-4" points="941.28 584.12 863.84 673.7 864.13 530.52 941.55 449 941.28 584.12"/><polygon class="cls-4" points="863.61 531.56 663.05 530.69 745.87 448.04 941.36 448.92 863.61 531.56"/><polygon class="cls-6" points="941.28 584.12 863.84 673.7 864.13 530.52 941.55 449 941.28 584.12"/></g><g id="Слой_7" data-name="Слой 7"><polygon class="cls-2" points="404.47 747.37 310.1 749.13 311.02 665.63 405.39 663.88 404.47 747.37"/><polygon class="cls-8" points="404.72 663.95 310.92 665.13 347.32 625.39 441.13 624.21 404.72 663.95"/><polygon class="cls-4" points="404.47 747.37 310.1 749.13 311.02 665.63 405.39 663.88 404.47 747.37"/><polygon class="cls-4" points="440.53 698.75 404.47 747.37 405.4 662.65 441.37 624.32 440.53 698.75"/><polygon class="cls-4" points="404.72 663.95 310.92 665.13 347.32 625.39 441.13 624.21 404.72 663.95"/><polygon class="cls-6" points="440.53 698.75 404.47 747.37 405.4 662.65 441.37 624.32 440.53 698.75"/></g></svg>