<svg width="96" height="71" viewBox="0 0 96 71" fill="none" xmlns="http://www.w3.org/2000/svg">
<path d="M94.5 30.5062C94.5 35.3684 91.0717 39.4258 86.5117 40.3785C85.9924 46.1999 81.6295 50.9161 76 51.9691C75.2279 52.1136 74.4319 52.1891 73.6188 52.1891C70.3873 52.1891 67.4184 50.9899 65.1547 49.0352C62.9895 53.1747 58.6755 56 53.6889 56C48.7188 56 44.3883 53.1747 42.2231 49.0352C39.9431 51.0064 37.0069 52.1891 33.7591 52.1891C27.0666 52.1891 21.5715 47.0969 20.8826 40.5756C15.6336 40.2142 11.5 35.8448 11.5 30.5062C11.5 25.0033 15.896 20.5189 21.3419 20.4204C22.9166 15.0161 27.8868 11.0902 33.7755 11.0902C36.9741 11.0902 39.8775 12.24 42.1411 14.1619C44.2735 9.90748 48.6532 7 53.7217 7C58.7903 7 63.17 9.90748 65.3024 14.1619C67.566 12.24 70.4858 11.0902 73.668 11.0902C79.6059 11.0902 84.5925 15.0818 86.118 20.5518C90.8585 21.3403 94.5 25.4961 94.5 30.5062Z" fill="#2C3FEF" stroke="black" stroke-miterlimit="10" stroke-linecap="round" stroke-linejoin="round"/>
<g clip-path="url(#clip0_2701_10518)">
<path d="M4.80926 64.3428L4.21067 64.9171C4.13129 64.9932 4.08542 65.0978 4.08314 65.2078C4.08085 65.3177 4.12235 65.4241 4.1985 65.5035C4.27465 65.5829 4.37922 65.6287 4.48919 65.631C4.59917 65.6333 4.70554 65.5918 4.78492 65.5157L5.38351 64.9414L5.67064 65.2407C5.80556 65.376 5.95803 65.4927 6.12398 65.5874C5.94612 65.9652 5.88644 66.3878 5.95273 66.8001C6.01901 67.2123 6.20819 67.5949 6.4955 67.8978C6.57165 67.9772 6.67622 68.0231 6.78619 68.0254C6.89617 68.0277 7.00255 67.9862 7.08192 67.91C7.1613 67.8339 7.20718 67.7293 7.20946 67.6193C7.21174 67.5093 7.17024 67.403 7.09409 67.3236C6.90921 67.1303 6.79151 66.8827 6.75844 66.6173C6.72538 66.3519 6.77871 66.0829 6.91053 65.8502C7.23961 65.8977 7.5753 65.8655 7.8893 65.7561C7.92442 65.7989 7.96282 65.8389 8.00415 65.8758C8.30875 66.1933 8.72701 66.3768 9.16691 66.3859C9.60681 66.3951 10.0323 66.2291 10.3498 65.9245C10.6673 65.6199 10.8508 65.2016 10.86 64.7617C10.8691 64.3218 10.7031 63.8963 10.3985 63.5788C10.3634 63.536 10.325 63.496 10.2837 63.4591C10.4119 63.1474 10.4622 62.8091 10.4302 62.4736C10.668 62.3558 10.9372 62.3171 11.1985 62.3631C11.4599 62.4092 11.6996 62.5376 11.8828 62.7296C11.959 62.809 12.0635 62.8548 12.1735 62.8571C12.2835 62.8594 12.3899 62.8179 12.4692 62.7418C12.5486 62.6656 12.5945 62.561 12.5968 62.4511C12.599 62.3411 12.5575 62.2347 12.4814 62.1553C12.1906 61.8557 11.8162 61.6508 11.4071 61.5675C10.9979 61.4842 10.5732 61.5263 10.1884 61.6883C10.1006 61.5186 9.99039 61.3614 9.86076 61.2209L9.57364 60.9217L10.1722 60.3474C10.2516 60.2713 10.2975 60.1667 10.2998 60.0567C10.302 59.9467 10.2605 59.8404 10.1844 59.761C10.1082 59.6816 10.0037 59.6357 9.89371 59.6334C9.78373 59.6312 9.67735 59.6727 9.59798 59.7488L8.99939 60.3231L8.71226 60.0238C8.57892 59.8853 8.43215 59.7604 8.27413 59.6509C8.4443 59.2749 8.4984 58.8567 8.42951 58.4497C8.36061 58.0428 8.17186 57.6657 7.88739 57.3666C7.81124 57.2873 7.70668 57.2414 7.5967 57.2391C7.48673 57.2368 7.38035 57.2783 7.30097 57.3545C7.2216 57.4306 7.17572 57.5352 7.17344 57.6451C7.17115 57.7551 7.21265 57.8615 7.2888 57.9409C7.45545 58.1162 7.56738 58.3363 7.61089 58.5743C7.65441 58.8122 7.62762 59.0577 7.5338 59.2806C7.03244 59.1143 6.4952 59.0879 5.97996 59.2043C5.46471 59.3207 4.99098 59.5755 4.6098 59.9412C4.22861 60.3069 3.95442 60.7696 3.81675 61.2796C3.67908 61.7896 3.68316 62.3274 3.82854 62.8353C3.60187 62.9197 3.3555 62.9363 3.11957 62.883C2.88363 62.8296 2.66836 62.7087 2.50009 62.5349C2.42394 62.4555 2.31937 62.4096 2.2094 62.4073C2.09942 62.4051 1.99305 62.4466 1.91367 62.5227C1.83429 62.5989 1.78842 62.7034 1.78613 62.8134C1.78385 62.9234 1.82535 63.0298 1.9015 63.1091C2.18849 63.4058 2.55746 63.61 2.96119 63.6957C3.36492 63.7814 3.78505 63.7447 4.1678 63.5903C4.27062 63.7527 4.38931 63.9046 4.52214 64.0435L4.80926 64.3428ZM5.50958 60.28C5.91378 60.0247 6.39377 59.9169 6.86831 59.9749C7.34285 60.0328 7.78279 60.253 8.11367 60.598L9.26217 61.7952C9.49062 62.0333 9.61512 62.3525 9.60827 62.6824C9.60143 63.0123 9.4638 63.326 9.22566 63.5545L8.92637 63.8416L5.50958 60.28ZM9.79992 64.153C9.95222 64.3118 10.0352 64.5246 10.0306 64.7445C10.0261 64.9645 9.93433 65.1736 9.77558 65.3259C9.61682 65.4782 9.40407 65.5612 9.18412 65.5566C8.96417 65.5521 8.75504 65.4603 8.60274 65.3015L9.79992 64.153ZM5.12072 63.4693C4.7897 63.1244 4.58801 62.6757 4.54979 62.1991C4.51157 61.7226 4.63917 61.2475 4.91099 60.8542L8.32778 64.4158L8.02849 64.703C7.79035 64.9314 7.47122 65.0559 7.1413 65.0491C6.81137 65.0422 6.49768 64.9046 6.26923 64.6665L5.12072 63.4693Z" fill="#FF9500"/>
</g>
<mask id="mask0_2701_10518" style="mask-type:alpha" maskUnits="userSpaceOnUse" x="0" y="7" width="95" height="63">
<path d="M94.4676 30.994C94.4676 35.8562 91.0394 39.9135 86.4793 40.8663C85.96 46.6877 81.5972 51.4039 75.9676 52.4569C75.1955 52.6013 74.3995 52.6769 73.5864 52.6769C70.3549 52.6769 67.3859 51.4777 65.1223 49.523C62.9571 53.6625 47.4196 69.9526 42.4331 69.9526C37.4629 69.9526 33.1325 67.1273 30.9673 62.9878C28.6872 64.959 25.7511 66.1417 22.5032 66.1417C15.8107 66.1417 10.3157 61.0495 9.62675 54.5282C4.37774 54.1668 0.244141 49.7974 0.244141 44.4588C0.244141 38.9559 9.02192 19.0864 14.4678 18.9878C16.0425 13.5835 27.8543 11.578 33.743 11.578C36.9417 11.578 39.845 12.7278 42.1087 14.6497C44.2411 10.3953 48.6207 7.48779 53.6893 7.48779C58.7579 7.48779 63.1375 10.3953 65.2699 14.6497C67.5336 12.7278 70.4534 11.578 73.6356 11.578C79.5735 11.578 84.5601 15.5696 86.0856 21.0396C90.8261 21.8281 94.4676 25.9839 94.4676 30.994Z" fill="#2C3FEF"/>
</mask>
<g mask="url(#mask0_2701_10518)">
<path d="M40.5169 40.427C45.7643 46.5469 56.1466 52.9739 58.6252 53.6562C64.3868 55.2423 76.5821 33.7602 75.652 26.6372L77.7644 25.0837L89.0269 13.5865C87.0269 5.58647 60.4389 0.414012 60.4389 0.414012C60.4389 0.414012 53.7557 12.5815 49.3703 13.1796C40.2378 14.4251 41.2508 15.6677 37.124 25.4837C25.8566 38.4636 18.996 46.2433 17.6986 48.1377C15.0768 51.9795 16.0784 54.0809 16.6812 54.6739C17.8357 55.8078 19.5587 55.6275 21.8516 53.9679C27.2349 50.0436 34.7742 43.4221 34.7742 43.4221C34.7742 43.4221 39.1563 40.2325 40.2598 39.2712L40.5169 40.427Z" fill="white"/>
<path d="M69.8912 18.8026C69.8912 18.8026 74.8859 20.7708 75.652 26.6372M75.652 26.6372L77.7644 25.0837L89.0269 13.5865C87.0269 5.58647 60.4389 0.414012 60.4389 0.414012C60.4389 0.414012 53.7557 12.5815 49.3703 13.1796C40.2378 14.4251 41.2508 15.6677 37.124 25.4837C25.8566 38.4636 18.996 46.2433 17.6986 48.1377C15.0768 51.9795 16.0784 54.0809 16.6812 54.6739C17.8357 55.8078 19.5587 55.6275 21.8516 53.9679C27.2349 50.0436 34.7742 43.4221 34.7742 43.4221C34.7742 43.4221 39.1563 40.2325 40.2598 39.2712L40.5169 40.427C45.7643 46.5469 56.1466 52.9739 58.6252 53.6562C64.3868 55.2423 76.5821 33.7602 75.652 26.6372Z" stroke="black" stroke-width="1.34887" stroke-miterlimit="10" stroke-linecap="round" stroke-linejoin="round"/>
<path d="M39.2711 41.3704C40.3821 39.7588 46.3227 34.5846 48.0712 33.9011C49.8897 33.1954 51.1894 34.0368 51.6702 34.4398C52.8189 35.4048 52.8836 36.2857 52.2642 37.6746C50.5166 41.6369 49.0058 43.1483 46.0876 46.8071" fill="white"/>
<path d="M39.2711 41.3704C40.3821 39.7588 46.3227 34.5846 48.0712 33.9011C49.8897 33.1954 51.1894 34.0368 51.6702 34.4398C52.8189 35.4048 52.8836 36.2857 52.2642 37.6746C50.5166 41.6369 49.0058 43.1483 46.0876 46.8071C43.6738 49.8334 37.344 46.8249 39.2711 41.3704Z" fill="white"/>
<path d="M39.2711 41.3704C40.3821 39.7588 46.3227 34.5846 48.0712 33.9011C49.8897 33.1954 51.1894 34.0368 51.6702 34.4398C52.8189 35.4048 52.8836 36.2857 52.2642 37.6746C50.5166 41.6369 49.0058 43.1483 46.0876 46.8071C43.6738 49.8334 37.344 46.8249 39.2711 41.3704Z" stroke="black" stroke-width="1.34887" stroke-miterlimit="10" stroke-linecap="round" stroke-linejoin="round"/>
<path d="M45.2902 47.3797C46.1878 45.7228 51.3233 40.145 52.9166 39.3034C54.5742 38.4331 55.89 39.0939 56.3858 39.4258C57.5704 40.2208 57.7177 41.0534 57.265 42.4447C55.992 46.4116 54.7051 48.0164 52.2913 51.8212C50.2947 54.9683 43.9923 52.7885 45.2902 47.3797Z" fill="white" stroke="black" stroke-width="1.34887" stroke-miterlimit="10" stroke-linecap="round" stroke-linejoin="round"/>
<path d="M53.7621 51.442C53.9063 50.0904 56.143 45.0517 57.1586 44.1023C58.217 43.1182 59.546 43.2705 60.0768 43.3852C61.3457 43.6604 61.769 44.2014 61.8972 45.2668C62.2776 48.3005 61.792 49.7061 61.1686 52.8914C60.653 55.5262 54.6433 55.4772 53.7621 51.442Z" fill="white" stroke="black" stroke-width="1.34887" stroke-miterlimit="10" stroke-linecap="round" stroke-linejoin="round"/>
<path d="M40.2076 41.7761C41.4401 42.9893 43.4785 44.0992 45.7918 42.4604C52.3853 37.7531 40.0488 31.1672 46.3268 25.7435L46.3494 15.5166L45.8643 13.8837C36.6639 19.0838 29.2159 30.9401 40.2076 41.7761Z" fill="white"/>
<path d="M48.8244 13.3548C37.5979 14.5667 28.1121 29.8518 40.2081 41.7763C41.4406 42.9895 43.479 44.0994 45.7922 42.4606C52.3858 37.7533 40.0493 31.1674 46.3273 25.7437" stroke="black" stroke-width="1.34887" stroke-miterlimit="10" stroke-linecap="round" stroke-linejoin="round"/>
</g>
<defs>
<clipPath id="clip0_2701_10518">
<rect width="9.95402" height="9.95402" fill="white" transform="translate(14.3184 63.1831) rotate(136.189)"/>
</clipPath>
</defs>
</svg>
