<svg width="80" height="80" viewBox="0 0 80 80" fill="none" xmlns="http://www.w3.org/2000/svg">
<path d="M32.4053 31.2374L32.4001 31.2416L32.3952 31.2464L32.4053 31.2374ZM55.2168 30.81C55.0573 30.6563 54.8804 30.5219 54.6897 30.4094C54.4197 30.2505 54.12 30.1486 53.8091 30.1102C53.4981 30.0717 53.1827 30.0974 52.8821 30.1857C52.5815 30.274 52.3022 30.4231 52.0615 30.6236C51.8208 30.8241 51.6238 31.0719 51.4827 31.3516C50.6933 32.9069 49.6045 34.2911 48.2789 35.4246C48.4817 34.2825 48.5839 33.1248 48.5844 31.9647C48.5887 28.4358 47.6577 24.9688 45.8863 21.9166C44.115 18.8645 41.5664 16.3362 38.5002 14.5893C38.1624 14.3979 37.7815 14.2953 37.3933 14.2914C37.005 14.2874 36.6221 14.3822 36.2805 14.5667C35.9389 14.7513 35.6498 15.0196 35.4403 15.3465C35.2308 15.6734 35.1078 16.0482 35.0828 16.4357C34.9546 18.6086 34.3865 20.7328 33.4131 22.6797C32.4397 24.6266 31.0811 26.3556 29.4197 27.7619L28.8916 28.1916C27.1543 29.3605 25.6165 30.8016 24.3374 32.4594C22.3489 34.9644 20.9715 37.8983 20.3142 41.0283C19.657 44.1583 19.7381 47.3985 20.551 50.4917C21.364 53.585 22.8865 56.4463 24.9977 58.8487C27.109 61.2512 29.7509 63.1287 32.7141 64.3323C33.062 64.4745 33.4396 64.5289 33.8135 64.4906C34.1874 64.4524 34.5461 64.3227 34.858 64.1131C35.17 63.9034 35.4255 63.6202 35.6021 63.2885C35.7788 62.9567 35.871 62.5866 35.8708 62.2108C35.8691 61.9676 35.8307 61.7262 35.7567 61.4946C35.2439 59.5674 35.0963 57.5612 35.3214 55.5797C37.4898 59.6696 40.9706 62.9116 45.2042 64.7844C45.7209 65.0156 46.3051 65.0467 46.8435 64.8717C50.1883 63.7921 53.2015 61.8752 55.5969 59.303C57.9922 56.7309 59.69 53.589 60.529 50.1759C61.3681 46.7628 61.3204 43.1918 60.3907 39.8023C59.4609 36.4128 57.6798 33.3173 55.2168 30.81ZM46.2683 60.2145C44.2707 59.2021 42.5085 57.7806 41.0963 56.0424C39.6842 54.3043 38.6537 52.2884 38.0718 50.1258C37.8941 49.3976 37.7566 48.6602 37.66 47.9169C37.5945 47.4436 37.3828 47.0025 37.0543 46.6554C36.7259 46.3083 36.2972 46.0726 35.8282 45.9811C35.6837 45.9526 35.5368 45.9384 35.3895 45.9386C34.9868 45.9384 34.5911 46.0445 34.2423 46.2461C33.8936 46.4476 33.6042 46.7376 33.4033 47.0867C31.5019 50.3663 30.5456 54.1084 30.6406 57.8982C28.9682 56.598 27.5705 54.9787 26.5286 53.1343C25.4866 51.2899 24.8211 49.257 24.5706 47.1535C24.32 45.05 24.4895 42.9177 25.0691 40.8802C25.6488 38.8426 26.627 36.9404 27.9472 35.2837C28.9496 33.9817 30.1589 32.8529 31.5268 31.9425C31.586 31.9042 31.6428 31.8624 31.6969 31.8171C31.6969 31.8171 32.3768 31.2546 32.4 31.2417C35.665 28.4802 37.9871 24.7689 39.043 20.6251C41.5399 22.9334 43.2049 26.0014 43.7793 29.353C44.3537 32.7045 43.8055 36.1519 42.2198 39.1599C42.0102 39.5613 41.9243 40.0157 41.9728 40.4659C42.0212 40.916 42.2019 41.3418 42.4921 41.6894C42.7822 42.037 43.1688 42.2909 43.603 42.419C44.0373 42.5472 44.4998 42.5438 44.9321 42.4095C48.4425 41.3091 51.5315 39.1597 53.7833 36.2506C55.1366 38.2496 56.0214 40.5282 56.3717 42.9167C56.722 45.3052 56.5288 47.742 55.8064 50.0454C55.0841 52.3488 53.8512 54.4595 52.1997 56.2203C50.5483 57.981 48.5207 59.3463 46.2682 60.2146L46.2683 60.2145Z" fill="#DE2727"/>
</svg>
