<svg width="127" height="24" viewBox="0 0 127 24" fill="none" xmlns="http://www.w3.org/2000/svg">
<path d="M6.3996 10.0801C6.3996 7.85973 7.09259 6.02825 8.47858 4.58569C9.87871 3.12899 11.7456 2.40063 14.0791 2.40063C16.1581 2.40063 17.8481 2.93806 19.1493 4.01291C20.4646 5.07361 21.2353 6.53032 21.4616 8.38302H18.0674C17.8976 7.42131 17.4592 6.67881 16.7521 6.15553C16.0449 5.63225 15.1681 5.37061 14.1215 5.37061C12.7921 5.37061 11.7385 5.78075 10.9606 6.60103C10.1828 7.40717 9.79386 8.56687 9.79386 10.0801C9.79386 11.5934 10.1828 12.7602 10.9606 13.5805C11.7385 14.4008 12.7921 14.8109 14.1215 14.8109C15.1681 14.8109 16.0449 14.5493 16.7521 14.026C17.4592 13.4885 17.8976 12.739 18.0674 11.7773H21.4616C21.2353 13.6441 20.4646 15.115 19.1493 16.1898C17.8481 17.2505 16.1581 17.7809 14.0791 17.7809C11.7456 17.7809 9.87871 17.0596 8.47858 15.617C7.09259 14.1603 6.3996 12.3147 6.3996 10.0801Z" fill="#2E2E38"/>
<path d="M22.7245 12.0743C22.7245 10.4054 23.2407 9.08308 24.2731 8.10723C25.3197 7.13138 26.6845 6.64346 28.3675 6.64346C30.0505 6.64346 31.4152 7.11724 32.4618 8.0648C33.5084 8.99822 34.0316 10.264 34.0316 11.8621V12.9228H25.9066C25.9066 13.5593 26.14 14.0684 26.6067 14.4503C27.0876 14.8321 27.7947 15.023 28.7281 15.023C29.3363 15.023 29.8454 14.917 30.2555 14.7048C30.6657 14.4927 30.9202 14.1886 31.0192 13.7926H34.4135C34.3569 14.2028 34.2014 14.6341 33.9468 15.0867C33.6922 15.5251 33.3386 15.9494 32.8861 16.3595C32.4477 16.7697 31.8607 17.1091 31.1253 17.3778C30.404 17.6465 29.605 17.7809 28.7281 17.7809C26.7764 17.7809 25.2844 17.2364 24.2519 16.1474C23.2337 15.0584 22.7245 13.7007 22.7245 12.0743ZM25.9066 11.0136H30.8495C30.8495 10.561 30.6515 10.1791 30.2555 9.868C29.8737 9.55686 29.2443 9.40129 28.3675 9.40129C27.4906 9.40129 26.8613 9.55686 26.4794 9.868C26.0976 10.165 25.9066 10.5469 25.9066 11.0136Z" fill="#2E2E38"/>
<path d="M47.1332 17.5687H43.4631L41.172 13.5593C41.0447 13.5734 40.8467 13.5805 40.578 13.5805H39.4961V17.5687H36.1018V6.8556H39.4961V10.6105H40.4083L42.5509 7.72538C42.9894 7.14553 43.7389 6.8556 44.7996 6.8556H46.7089V9.82558H44.9906L43.6965 11.5227L47.1332 17.5687Z" fill="#2E2E38"/>
<path d="M53.9558 9.16794C57.4067 9.16794 59.1321 10.5681 59.1321 13.3683C59.1321 16.1686 57.4067 17.5687 53.9558 17.5687H49.0342V6.8556H52.4284V9.16794H53.9558ZM52.4284 14.5988H53.7437C54.5074 14.5988 55.0307 14.521 55.3135 14.3654C55.5964 14.2098 55.7378 13.8775 55.7378 13.3683C55.7378 12.8592 55.5964 12.5268 55.3135 12.3713C55.0307 12.2157 54.5074 12.1379 53.7437 12.1379H52.4284V14.5988Z" fill="#2E2E38"/>
<path d="M71.7581 6.64346C73.4977 6.64346 74.8271 7.1526 75.7464 8.17087C76.6798 9.17501 77.1465 10.5186 77.1465 12.2016C77.1465 13.8845 76.6798 15.2352 75.7464 16.2535C74.8271 17.2717 73.4977 17.7809 71.7581 17.7809C70.2873 17.7809 69.1064 17.4202 68.2154 16.6989C67.3244 15.9635 66.7516 14.9594 66.497 13.6865H64.8635V17.5687H61.4693V6.8556H64.8635V10.7166H66.497C66.7516 9.45786 67.3244 8.46787 68.2154 7.74659C69.1064 7.01117 70.2873 6.64346 71.7581 6.64346Z" fill="#2E2E38"/>
<path d="M79.4772 6.8556H82.8715V7.51324L82.2351 9.42251H83.0836C83.4089 8.57394 83.8898 7.90216 84.5262 7.40717C85.1768 6.89803 86.1031 6.64346 87.3053 6.64346C88.7902 6.64346 89.9358 7.17381 90.7419 8.23452C91.5481 9.29522 91.9511 10.6246 91.9511 12.2228C91.9511 13.8209 91.5481 15.1503 90.7419 16.211C89.9358 17.2576 88.7902 17.7809 87.3053 17.7809C86.1031 17.7809 85.1768 17.5334 84.5262 17.0384C83.8898 16.5292 83.4089 15.8504 83.0836 15.0018H82.2351L82.8715 16.9111V21.5994H79.4772V6.8556Z" fill="#2E2E38"/>
<path d="M102.738 6.8556H106.132V17.5687H102.738V13.6865H97.6891V17.5687H94.2948V6.8556H97.6891V10.7166H102.738V6.8556Z" fill="#2E2E38"/>
<path d="M108.253 12.2016C108.253 10.4054 108.819 9.03358 109.95 8.08602C111.082 7.12431 112.531 6.64346 114.299 6.64346C116.067 6.64346 117.509 7.12431 118.627 8.08602C119.758 9.03358 120.324 10.4054 120.324 12.2016C120.324 13.9977 119.758 15.3766 118.627 16.3383C117.509 17.3 116.067 17.7809 114.299 17.7809C112.531 17.7809 111.082 17.3071 109.95 16.3595C108.819 15.3978 108.253 14.0118 108.253 12.2016ZM111.647 12.2016C111.647 13.0784 111.881 13.736 112.347 14.1745C112.814 14.5988 113.465 14.8109 114.299 14.8109C115.119 14.8109 115.763 14.5988 116.23 14.1745C116.696 13.736 116.93 13.0784 116.93 12.2016C116.93 11.3388 116.696 10.6954 116.23 10.2711C115.763 9.83265 115.119 9.61343 114.299 9.61343C113.465 9.61343 112.814 9.83265 112.347 10.2711C111.881 10.6954 111.647 11.3388 111.647 12.2016Z" fill="#2E2E38"/>
<path d="M75.5039 12.6715C75.5039 14.4111 74.8392 15.2808 73.5098 15.2808C72.8168 15.2808 72.3077 15.0687 71.9824 14.6444C71.6571 14.2201 71.4944 13.5625 71.4944 12.6715C71.4944 10.9461 72.1662 10.0834 73.5098 10.0834C74.8392 10.0834 75.5039 10.9461 75.5039 12.6715Z" fill="white"/>
<path d="M90.9664 12.6715C90.9664 14.4111 90.3017 15.2808 88.9723 15.2808C88.2793 15.2808 87.7702 15.0687 87.4449 14.6444C87.1196 14.2201 86.957 13.5625 86.957 12.6715C86.957 10.9461 87.6288 10.0834 88.9723 10.0834C90.3017 10.0834 90.9664 10.9461 90.9664 12.6715Z" fill="white"/>
</svg>
