<svg width="330" height="37" viewBox="0 0 330 37" fill="none" xmlns="http://www.w3.org/2000/svg">
<g clip-path="url(#clip0)">
<path d="M8.08635 20.103V30.0533H0.5V0.284668H12.0347C14.3383 0.284668 16.3169 0.533146 17.9705 1.0301C19.6241 1.52706 20.9857 2.21166 22.0552 3.0839C23.1025 3.92584 23.9144 4.98283 24.4235 6.1673C24.9316 7.35261 25.1859 8.63291 25.1865 10.0082C25.1865 11.4933 24.9249 12.8554 24.4015 14.0946C23.8913 15.3159 23.0679 16.4087 21.9998 17.2817C20.9217 18.1673 19.5563 18.8584 17.9037 19.3551C16.251 19.8518 14.2946 20.1003 12.0347 20.1005L8.08635 20.103ZM8.08635 14.8946H12.0365C14.0105 14.8946 15.4318 14.4655 16.3002 13.6075C17.1687 12.7494 17.6028 11.5506 17.6025 10.0111C17.6025 9.32973 17.4902 8.71013 17.2656 8.15234C17.0505 7.60737 16.7012 7.11448 16.2444 6.71148C15.7867 6.31008 15.2107 6.00022 14.5165 5.78188C13.8223 5.56354 12.9956 5.4545 12.0365 5.45478H8.08635V14.8946Z" fill="#1D1D1B"/>
<path d="M38.0496 8.53943C39.8131 8.53943 41.4214 8.79152 42.8745 9.2957C44.3276 9.79988 45.5732 10.5221 46.6114 11.4624C47.6513 12.4024 48.46 13.5433 49.0373 14.885C49.6147 16.2267 49.9027 17.7351 49.9015 19.4101C49.9015 21.099 49.6134 22.6211 49.0373 23.9764C48.4612 25.3318 47.6525 26.4825 46.6114 27.4286C45.5708 28.3759 44.3252 29.1046 42.8745 29.6149C41.4238 30.1252 39.8155 30.3808 38.0496 30.3816C36.2681 30.3816 34.6482 30.1263 33.1899 29.6157C31.7316 29.1052 30.4749 28.3764 29.4196 27.4294C28.3644 26.483 27.5488 25.3323 26.9726 23.9773C26.3965 22.6223 26.1088 21.0999 26.1094 19.4101C26.1094 17.7345 26.3973 16.2261 26.9731 14.885C27.5489 13.5439 28.3646 12.403 29.4201 11.4624C30.4747 10.5232 31.7315 9.80099 33.1904 9.2957C34.6493 8.79041 36.2691 8.53832 38.0496 8.53943ZM38.0496 25.6815C39.6492 25.6815 40.8272 25.1676 41.5837 24.1398C42.3402 23.112 42.7184 21.5493 42.7184 19.4518C42.7184 17.3545 42.3405 15.795 41.5846 14.7733C40.8288 13.7516 39.6504 13.2401 38.0496 13.2387C36.4018 13.2387 35.1964 13.7496 34.4336 14.7712C33.6707 15.7929 33.2893 17.3531 33.2893 19.4518C33.2893 21.5493 33.6707 23.1125 34.4336 24.1415C35.1964 25.1704 36.4018 25.6843 38.0496 25.6832V25.6815Z" fill="#1D1D1B"/>
<path d="M70.5016 13.8924C70.3227 14.0965 70.1193 14.2817 69.8951 14.4445C69.701 14.5807 69.4236 14.6487 69.0657 14.6487C68.7383 14.6529 68.416 14.5752 68.1338 14.4241C67.8567 14.2741 67.546 14.1074 67.2018 13.9241C66.816 13.7234 66.4103 13.556 65.9902 13.424C65.5264 13.2749 64.9504 13.2002 64.2623 13.1999C63.4094 13.1999 62.6725 13.3428 62.0515 13.6286C61.4335 13.9123 60.9046 14.3341 60.5145 14.8545C60.1107 15.3862 59.8114 16.0366 59.6164 16.8058C59.4214 17.575 59.3244 18.4432 59.3253 19.4104C59.3253 21.4402 59.7554 22.9998 60.6156 24.0893C61.4758 25.1788 62.6615 25.7235 64.1726 25.7235C64.9806 25.7235 65.6204 25.6315 66.0918 25.4477C66.5172 25.2872 66.9202 25.0814 67.2925 24.8347C67.622 24.61 67.9249 24.4017 68.201 24.2097C68.4772 24.0178 68.8251 23.9225 69.2447 23.9239C69.7985 23.9239 70.2175 24.1079 70.5016 24.476L72.5215 26.7439C71.8038 27.494 71.0483 28.1033 70.2549 28.5719C69.4947 29.0271 68.6773 29.3977 67.8202 29.6757C67.0087 29.9371 66.1699 30.1218 65.3169 30.2269C64.5065 30.327 63.6896 30.3781 62.8717 30.3799C61.4736 30.3841 60.0886 30.1342 58.798 29.6448C57.5093 29.1582 56.3469 28.4311 55.3861 27.5102C54.4066 26.5768 53.6284 25.4293 53.0517 24.0676C52.475 22.7059 52.1869 21.1534 52.1875 19.41C52.1875 17.8844 52.4374 16.4576 52.9373 15.1295C53.4371 13.8014 54.1777 12.6508 55.1591 11.6778C56.1386 10.7055 57.3506 9.93925 58.7952 9.37896C60.2398 8.81867 61.9119 8.53936 63.8114 8.54102C65.6366 8.54102 67.2375 8.80672 68.6144 9.33812C69.9912 9.86953 71.2332 10.6457 72.3403 11.6665L70.5016 13.8924Z" fill="#1D1D1B"/>
<path d="M88.9286 10.4608C89.2782 9.97906 89.752 9.58253 90.3086 9.30576C90.8594 9.01929 91.4824 8.86795 92.1167 8.86658H97.6149L92.7204 16.5688C92.3469 17.1411 91.9655 17.6041 91.5761 17.958C91.1744 18.3197 90.6921 18.5985 90.1617 18.7756C90.9246 19.0078 91.5454 19.3347 92.0242 19.7564C92.503 20.1781 92.9293 20.7093 93.3031 21.3502L98.1737 30.0533H93.3722C92.8335 30.0598 92.2956 30.0154 91.767 29.9208C91.3404 29.8422 90.9285 29.7082 90.5439 29.5229C90.1932 29.3522 89.875 29.1311 89.6015 28.8683C89.319 28.5944 89.0706 28.293 88.8609 27.9695L86.3891 22.6361C86.1646 22.1594 85.8388 21.8088 85.4119 21.5844C84.985 21.3599 84.4952 21.2475 83.9426 21.2473H82.1918V30.0525H75.2344V8.86825H82.1918V17.2651H83.6295C84.2578 17.2651 84.7253 17.1733 85.032 16.9897C85.3387 16.8061 85.6118 16.4961 85.8513 16.0597L88.9286 10.4608Z" fill="#1D1D1B"/>
<path d="M110.585 8.53943C112.349 8.53943 113.957 8.79152 115.411 9.2957C116.864 9.79988 118.11 10.5221 119.148 11.4624C120.187 12.4024 120.996 13.5433 121.573 14.885C122.151 16.2267 122.439 17.7351 122.437 19.4101C122.437 21.099 122.149 22.6211 121.573 23.9764C120.998 25.3318 120.189 26.4825 119.148 27.4286C118.107 28.3758 116.861 29.1046 115.411 29.6149C113.96 30.1252 112.352 30.3805 110.585 30.3808C108.804 30.3808 107.184 30.1255 105.726 29.6149C104.267 29.1043 103.01 28.3756 101.955 27.4286C100.9 26.4822 100.085 25.3315 99.5087 23.9764C98.9326 22.6214 98.6445 21.0993 98.6445 19.4101C98.6445 17.7345 98.9326 16.2261 99.5087 14.885C100.085 13.5439 100.9 12.403 101.955 11.4624C103.009 10.5232 104.266 9.80099 105.726 9.2957C107.185 8.79041 108.805 8.53832 110.585 8.53943ZM110.585 25.6815C112.186 25.6815 113.364 25.1676 114.119 24.1398C114.875 23.112 115.253 21.5493 115.253 19.4518C115.253 17.3545 114.875 15.795 114.119 14.7733C113.364 13.7516 112.185 13.2408 110.585 13.2408C108.939 13.2408 107.733 13.7516 106.969 14.7733C106.204 15.795 105.822 17.3545 105.823 19.4518C105.823 21.5493 106.205 23.1125 106.969 24.1415C107.734 25.1704 108.939 25.6843 110.585 25.6832L110.585 25.6815Z" fill="#1D1D1B"/>
<path d="M139.873 20.6958C140.098 20.1241 140.337 19.5622 140.591 19.0099C140.833 18.481 141.111 17.9661 141.422 17.4682L145.372 10.2181C145.701 9.65972 146.102 9.29193 146.573 9.11471C147.024 8.94134 147.509 8.85099 147.999 8.84887H153.833V30.0577H147.549V20.0216C147.549 19.5041 147.575 18.9219 147.628 18.2749C147.676 17.6546 147.762 17.0373 147.886 16.4257L142.207 26.4576C141.788 27.152 141.138 27.4993 140.255 27.4993H139.515C138.633 27.4993 137.982 27.152 137.562 26.4576L131.84 16.3644C131.96 16.9639 132.054 17.5938 132.121 18.2541C132.188 18.9144 132.222 19.5031 132.222 20.0204V30.0518H125.938V8.84595H131.773C132.264 8.8484 132.749 8.94227 133.198 9.12179C133.669 9.30651 134.069 9.67096 134.399 10.2151L138.327 17.4674C138.918 18.5121 139.435 19.5904 139.873 20.6958Z" fill="#1D1D1B"/>
<path d="M175.648 13.8923C175.469 14.0962 175.266 14.2813 175.042 14.4444C174.847 14.5805 174.571 14.6486 174.212 14.6486C173.885 14.6529 173.562 14.5752 173.28 14.424C173.003 14.274 172.692 14.1073 172.349 13.924C171.963 13.7233 171.557 13.5559 171.136 13.424C170.673 13.2748 170.097 13.2001 169.409 13.1998C168.556 13.1998 167.819 13.3427 167.198 13.6285C166.58 13.9123 166.051 14.3341 165.661 14.8544C165.257 15.3861 164.958 16.0365 164.763 16.8057C164.568 17.5749 164.472 18.443 164.473 19.4099C164.473 21.4397 164.903 22.9993 165.763 24.0888C166.623 25.1782 167.809 25.723 169.32 25.723C170.128 25.723 170.767 25.631 171.239 25.4471C171.664 25.2869 172.067 25.0812 172.44 24.8342C172.769 24.6095 173.071 24.4011 173.348 24.2092C173.625 24.0173 173.973 23.922 174.392 23.9234C174.945 23.9234 175.364 24.1074 175.649 24.4755L177.669 26.7434C176.951 27.4934 176.195 28.1028 175.402 28.5714C174.642 29.0268 173.825 29.3974 172.967 29.6752C172.156 29.9365 171.317 30.1212 170.465 30.2264C169.654 30.3265 168.837 30.3776 168.019 30.3793C166.62 30.3836 165.235 30.1337 163.945 29.6443C162.656 29.1579 161.494 28.4307 160.533 27.5097C159.554 26.5763 158.776 25.4288 158.198 24.0671C157.621 22.7054 157.333 21.153 157.332 19.4099C157.332 17.8843 157.583 16.4575 158.084 15.1294C158.585 13.8013 159.326 12.6503 160.307 11.6764C161.287 10.7042 162.499 9.93791 163.943 9.37762C165.388 8.81732 167.06 8.53801 168.958 8.53968C170.784 8.53968 172.385 8.80538 173.761 9.33678C175.138 9.86818 176.38 10.6443 177.487 11.6652L175.648 13.8923Z" fill="#758CDA"/>
<path d="M180.383 8.86804H190.123C191.619 8.86804 192.921 8.99749 194.028 9.25638C195.135 9.51528 196.051 9.8764 196.778 10.3397C197.503 10.8022 198.041 11.3507 198.393 11.9852C198.748 12.6283 198.929 13.339 198.922 14.0586C198.92 14.5371 198.856 15.0137 198.731 15.4786C198.599 15.9728 198.375 16.4428 198.069 16.8682C197.755 17.3107 197.325 17.716 196.778 18.0841C196.232 18.4521 195.533 18.7383 194.68 18.9424C195.359 19.0845 196.018 19.297 196.643 19.5758C197.222 19.8305 197.753 20.1681 198.215 20.5758C198.655 20.9694 199.006 21.4381 199.247 21.955C199.493 22.4792 199.617 23.075 199.618 23.7425C199.618 24.8734 199.356 25.8367 198.832 26.6326C198.317 27.4213 197.606 28.0895 196.756 28.5839C195.896 29.0875 194.916 29.4585 193.816 29.6968C192.709 29.936 191.576 30.056 190.438 30.0543H180.386L180.383 8.86804ZM186.981 17.5103H189.921C190.774 17.5103 191.47 17.2754 192.008 16.8057C192.547 16.336 192.817 15.7331 192.817 14.9969C192.816 14.7335 192.77 14.4719 192.682 14.2211C192.589 13.9581 192.427 13.7197 192.211 13.5265C191.986 13.3218 191.686 13.1551 191.313 13.0265C190.939 12.8979 190.475 12.8331 189.921 12.8323H186.981V17.5103ZM186.981 21.2696V25.8855H190.392C191.26 25.8855 191.948 25.6715 192.457 25.2434C192.966 24.8153 193.22 24.2331 193.221 23.4967C193.222 23.208 193.188 22.9202 193.119 22.6383C193.055 22.3721 192.916 22.1257 192.716 21.9233C192.513 21.7192 192.225 21.5586 191.851 21.4417C191.478 21.3247 190.991 21.2669 190.392 21.2683L186.981 21.2696Z" fill="#758CDA"/>
<path d="M213.914 8.53943C215.678 8.53943 217.287 8.79152 218.74 9.2957C220.194 9.79988 221.439 10.5221 222.477 11.4624C223.516 12.4024 224.325 13.5433 224.903 14.885C225.481 16.2267 225.769 17.7351 225.767 19.4101C225.767 21.099 225.479 22.6211 224.903 23.9764C224.327 25.3318 223.518 26.4825 222.477 27.4286C221.436 28.3758 220.191 29.1046 218.74 29.6149C217.29 30.1252 215.681 30.3805 213.914 30.3808C212.134 30.3808 210.514 30.1255 209.055 29.6149C207.596 29.1043 206.34 28.375 205.285 27.4269C204.231 26.4805 203.415 25.33 202.839 23.9752C202.263 22.6204 201.975 21.0987 201.975 19.4101C201.975 17.7351 202.263 16.2267 202.839 14.885C203.416 13.5433 204.231 12.4024 205.285 11.4624C206.34 10.5232 207.597 9.80099 209.056 9.2957C210.515 8.79041 212.135 8.53832 213.914 8.53943ZM213.914 25.6815C215.515 25.6815 216.693 25.1676 217.449 24.1398C218.204 23.112 218.582 21.5493 218.583 19.4518C218.583 17.3545 218.205 15.795 217.449 14.7733C216.692 13.7516 215.514 13.2408 213.914 13.2408C212.268 13.2408 211.064 13.7516 210.301 14.7733C209.538 15.795 209.156 17.3545 209.155 19.4518C209.155 21.5493 209.537 23.1125 210.301 24.1415C211.066 25.1704 212.27 25.6843 213.914 25.6832V25.6815Z" fill="#758CDA"/>
<path d="M242.26 5.92461C240.973 5.99295 239.869 6.20128 238.949 6.54962C238.029 6.89797 237.27 7.37104 236.672 7.96883C236.062 8.58413 235.6 9.30768 235.313 10.0939C235.005 10.9108 234.822 11.8166 234.763 12.811C235.151 12.3482 235.595 11.9268 236.086 11.5547C236.614 11.1563 237.194 10.8203 237.815 10.5547C238.486 10.2664 239.19 10.044 239.913 9.89137C240.719 9.72274 241.544 9.64038 242.371 9.64595C243.912 9.64595 245.303 9.89443 246.545 10.3914C247.76 10.8707 248.844 11.5883 249.719 12.4931C250.594 13.3987 251.268 14.4848 251.739 15.7515C252.211 17.0182 252.447 18.4284 252.447 19.982C252.447 21.5898 252.159 23.0343 251.584 24.3154C251.008 25.5966 250.199 26.6862 249.158 27.5843C248.118 28.4835 246.872 29.1747 245.421 29.6581C243.969 30.1414 242.36 30.3825 240.592 30.3814C238.812 30.3814 237.189 30.1227 235.722 29.6052C234.255 29.0876 232.995 28.2637 231.941 27.1334C230.887 26.0031 230.071 24.5459 229.495 22.7617C228.919 20.9774 228.631 18.8107 228.631 16.2615C228.631 14.1645 228.844 12.1923 229.272 10.3447C229.699 8.49717 230.42 6.86908 231.434 5.46043C232.444 4.05096 233.783 2.91024 235.451 2.03827C237.12 1.16631 239.196 0.655464 241.679 0.505739L249.916 -0.00427246L250.297 3.18247C250.372 3.84915 250.259 4.41777 249.96 4.88834C249.661 5.3589 249.13 5.60766 248.366 5.63461L242.26 5.92461ZM240.599 25.9055C242.2 25.9055 243.378 25.4187 244.134 24.445C244.889 23.4714 245.267 21.9903 245.267 20.0016C245.267 18.0135 244.889 16.5357 244.134 15.5682C243.378 14.6006 242.199 14.1173 240.599 14.1181C238.937 14.1181 237.726 14.5984 236.963 15.559C236.201 16.5196 235.819 17.987 235.817 19.9612C235.817 21.9637 236.199 23.4553 236.963 24.4359C237.728 25.4164 238.939 25.9063 240.599 25.9055Z" fill="#758CDA"/>
<path d="M266.745 8.53943C268.509 8.53943 270.117 8.79152 271.571 9.2957C273.024 9.79988 274.27 10.5221 275.308 11.4624C276.347 12.4024 277.156 13.5433 277.734 14.885C278.311 16.2267 278.599 17.7351 278.597 19.4101C278.597 21.099 278.309 22.6211 277.733 23.9764C277.156 25.3318 276.348 26.4825 275.307 27.4286C274.266 28.3758 273.021 29.1046 271.57 29.6149C270.119 30.1252 268.51 30.3805 266.744 30.3808C264.964 30.3808 263.344 30.1255 261.885 29.6149C260.426 29.1043 259.169 28.3756 258.115 27.4286C257.06 26.4822 256.244 25.3315 255.668 23.9764C255.092 22.6214 254.804 21.0993 254.805 19.4101C254.805 17.7345 255.093 16.2261 255.669 14.885C256.245 13.5439 257.061 12.403 258.115 11.4624C259.17 10.5232 260.427 9.80099 261.886 9.2957C263.345 8.79041 264.965 8.53832 266.745 8.53943ZM266.745 25.6815C268.346 25.6815 269.524 25.1676 270.279 24.1398C271.035 23.112 271.413 21.5493 271.414 19.4518C271.414 17.3545 271.036 15.795 270.279 14.7733C269.523 13.7516 268.345 13.2408 266.745 13.2408C265.099 13.2408 263.894 13.7516 263.129 14.7733C262.365 15.795 261.985 17.3545 261.989 19.4518C261.989 21.5493 262.371 23.1125 263.133 24.1415C263.896 25.1704 265.1 25.6843 266.745 25.6832V25.6815Z" fill="#758CDA"/>
<path d="M303.439 8.86795V25.5192H307.726V35.2019C307.726 35.7461 307.543 36.1818 307.176 36.509C306.81 36.8362 306.342 36.9997 305.771 36.9994H301.394V30.053H285.887V35.2852C285.887 35.5006 285.849 35.7146 285.774 35.919C285.7 36.1221 285.581 36.3097 285.426 36.4707C285.262 36.6385 285.059 36.7711 284.831 36.8586C284.561 36.9598 284.27 37.0085 283.978 37.0015H279.559V25.7017H280.345C280.831 25.6895 281.313 25.6209 281.78 25.4975C282.244 25.375 282.689 25.1197 283.116 24.7316C283.542 24.3436 283.942 23.7783 284.316 23.0358C284.691 22.2933 285.031 21.3024 285.338 20.0632C285.645 18.824 285.918 17.2916 286.157 15.466C286.396 13.641 286.591 11.4412 286.741 8.8667L303.439 8.86795ZM292.419 13.5481C292.15 16.5587 291.753 19.0472 291.229 21.0136C290.706 22.9801 290.092 24.5428 289.388 25.7017H296.708V13.5472L292.419 13.5481Z" fill="#758CDA"/>
<path d="M326.311 30.0531C325.652 30.0531 325.155 29.9714 324.818 29.8081C324.481 29.6448 324.2 29.3038 323.976 28.7852L323.483 27.621C322.899 28.071 322.338 28.4661 321.799 28.8064C321.272 29.1412 320.712 29.4319 320.127 29.6748C319.538 29.9166 318.921 30.0947 318.287 30.2056C317.573 30.3265 316.847 30.3847 316.121 30.3794C315.058 30.3794 314.093 30.2535 313.226 30.0019C312.358 29.7502 311.621 29.3789 311.015 28.8881C310.399 28.3851 309.919 27.7595 309.613 27.0601C309.283 26.3312 309.119 25.4898 309.119 24.5359C309.119 23.7859 309.329 23.0166 309.748 22.2279C310.167 21.4393 310.892 20.7208 311.924 20.0725C312.956 19.4255 314.347 18.8838 316.098 18.4474C317.849 18.011 320.056 17.7657 322.72 17.7116V16.8128C322.72 15.5736 322.439 14.678 321.878 14.1261C321.317 13.5741 320.52 13.2984 319.487 13.299C318.664 13.299 317.99 13.3806 317.468 13.544C316.984 13.692 316.515 13.8765 316.065 14.0957C315.654 14.3007 315.253 14.4846 314.864 14.6473C314.475 14.8101 314.011 14.8918 313.473 14.8923C312.994 14.8923 312.59 14.7835 312.261 14.5657C311.94 14.3559 311.665 14.0923 311.453 13.789L310.196 11.8073C311.562 10.6991 313.151 9.84242 314.875 9.28472C316.588 8.73304 318.425 8.45706 320.387 8.45679C321.793 8.45679 323.061 8.66513 324.191 9.0818C325.32 9.49848 326.278 10.0772 327.064 10.8181C327.849 11.5606 328.452 12.4424 328.872 13.4636C329.292 14.4847 329.501 15.6017 329.501 16.8145V30.0535L326.311 30.0531ZM318.321 26.1918C319.218 26.1918 320.003 26.0487 320.677 25.7626C321.35 25.4765 322.031 25.0134 322.72 24.3734V21.4312C321.328 21.4849 320.184 21.5937 319.287 21.7579C318.39 21.9221 317.68 22.1267 317.156 22.3717C316.632 22.6167 316.269 22.8957 316.067 23.2088C315.866 23.5181 315.761 23.8712 315.763 24.2305C315.763 24.9527 315.98 25.4601 316.414 25.7526C316.848 26.0451 317.484 26.1909 318.323 26.1901L318.321 26.1918Z" fill="#758CDA"/>
</g>
<defs>
<clipPath id="clip0">
<rect width="329" height="37" fill="white" transform="translate(0.5)"/>
</clipPath>
</defs>
</svg>
