<svg width="400" height="300" viewBox="0 0 400 300" fill="none" xmlns="http://www.w3.org/2000/svg">
<path d="M82.6988 247.408C82.0254 247.408 81.3796 247.141 80.9034 246.665C80.4272 246.188 80.1597 245.543 80.1597 244.869C80.1597 241.576 81.6207 239.791 82.6871 238.487C83.5778 237.401 84.0661 236.803 84.0661 235.323C84.0661 233.842 83.5778 233.241 82.6871 232.155C81.6402 230.862 80.1597 229.065 80.1597 225.784C80.1597 222.503 81.6207 220.706 82.6871 219.402C83.5778 218.316 84.0661 217.714 84.0661 216.234C84.0661 214.753 83.5778 214.156 82.6871 213.07C81.6207 211.765 80.1597 209.98 80.1597 206.687C80.1597 203.394 81.6207 201.609 82.6871 200.305C83.5778 199.219 84.0661 198.617 84.0661 197.137C84.0661 195.656 83.5778 195.059 82.6871 193.973C81.6207 192.668 80.1597 190.883 80.1597 187.59C80.1597 184.297 81.6207 182.512 82.6871 181.208C83.5778 180.122 84.0661 179.524 84.0661 178.044C84.0661 176.563 83.5778 175.966 82.6871 174.88C81.6207 173.575 80.1597 171.79 80.1597 168.497C80.1597 165.204 81.6207 163.419 82.6871 162.115C83.5778 161.029 84.0661 160.431 84.0661 158.951C84.0661 158.277 84.3336 157.632 84.8098 157.155C85.286 156.679 85.9318 156.412 86.6052 156.412C87.2787 156.412 87.9245 156.679 88.4007 157.155C88.8769 157.632 89.1444 158.277 89.1444 158.951C89.1444 162.244 87.6834 164.029 86.617 165.333C85.7302 166.419 85.238 167.017 85.238 168.497C85.238 169.978 85.7302 170.575 86.617 171.661C87.6834 172.966 89.1444 174.751 89.1444 178.044C89.1444 181.337 87.6834 183.122 86.617 184.426C85.7302 185.512 85.238 186.11 85.238 187.59C85.238 189.071 85.7302 189.668 86.617 190.758C87.6834 192.059 89.1444 193.844 89.1444 197.137C89.1444 200.43 87.6834 202.215 86.617 203.519C85.7302 204.605 85.238 205.207 85.238 206.687C85.238 208.168 85.7302 208.765 86.617 209.851C87.6834 211.156 89.1444 212.941 89.1444 216.234C89.1444 219.527 87.6834 221.312 86.617 222.616C85.7302 223.702 85.238 224.304 85.238 225.784C85.238 227.265 85.7302 227.862 86.617 228.952C87.6834 230.253 89.1444 232.038 89.1444 235.335C89.1444 238.631 87.6834 240.412 86.617 241.713C85.7302 242.803 85.238 243.401 85.238 244.881C85.2349 245.552 84.966 246.195 84.4902 246.669C84.0143 247.142 83.3702 247.408 82.6988 247.408Z" fill="white" stroke="black" stroke-width="2.73049" stroke-miterlimit="10"/>
<path d="M179.687 185.61V190.895H116.087V214.285H110.798V190.895H110.79V185.61H179.687Z" fill="white" stroke="black" stroke-width="2.73049" stroke-linecap="round" stroke-linejoin="round"/>
<path d="M152.987 278.376V273.091H89.3825V249.697H84.0972V273.091H84.0894V278.376H152.987Z" fill="white" stroke="black" stroke-width="2.73049" stroke-linecap="round" stroke-linejoin="round"/>
<path d="M227.791 277.516V272.232H291.391V248.842H296.68V272.232H296.688V277.516H227.791Z" fill="white" stroke="black" stroke-width="2.73049" stroke-linecap="round" stroke-linejoin="round"/>
<path d="M211.586 114.113V174.294H216.876V119.167H247.381V123.741L258.76 116.8L254.252 114.05L253.975 113.882L247.381 109.863V113.882H211.598V114.113H211.586Z" fill="white" stroke="black" stroke-width="2.73049" stroke-linecap="round" stroke-linejoin="round"/>
<path d="M188.871 98.7813H184.687V187.286H179.398V98.7813H174.992L181.929 87.4028L188.871 98.7813Z" fill="white" stroke="black" stroke-width="2.73049" stroke-linecap="round" stroke-linejoin="round"/>
<path d="M93.8751 144.143H89.6874V176.091H84.402V144.143H79.9956L86.9334 132.764L93.8751 144.143Z" fill="white" stroke="black" stroke-width="2.73049" stroke-linecap="round" stroke-linejoin="round"/>
<path d="M325.642 176.938H325.65V182.223H296.176V210.226H290.891V176.938H320.357V154.642H315.856L322.794 143.268L329.732 154.642H325.642V176.938Z" fill="white" stroke="black" stroke-width="2.73049" stroke-linecap="round" stroke-linejoin="round"/>
<path d="M225.927 105.183H203.188V128.69H225.927V105.183Z" fill="#13B880"/>
<path d="M114.145 155.381H58.5298V177.661H114.145V155.381Z" fill="#EF1500"/>
<path d="M257.553 248.412H330.114V202.125H257.553V248.412Z" fill="white" stroke="black" stroke-width="2.73049" stroke-miterlimit="10"/>
<path d="M321.38 210.933H265.819C264.742 210.933 263.87 211.806 263.87 212.882V220.402C263.87 221.479 264.742 222.352 265.819 222.352H321.38C322.456 222.352 323.329 221.479 323.329 220.402V212.882C323.329 211.806 322.456 210.933 321.38 210.933Z" fill="white" stroke="black" stroke-width="2.73049" stroke-linecap="round" stroke-linejoin="round"/>
<path d="M321.38 228.378H265.819C264.742 228.378 263.87 229.251 263.87 230.327V237.847C263.87 238.923 264.742 239.796 265.819 239.796H321.38C322.456 239.796 323.329 238.923 323.329 237.847V230.327C323.329 229.251 322.456 228.378 321.38 228.378Z" fill="#EF1500" stroke="black" stroke-width="2.73049" stroke-miterlimit="10"/>
<path d="M268.303 214.894C270.713 214.894 270.713 218.8 273.128 218.8C275.542 218.8 275.538 214.894 277.948 214.894C280.358 214.894 280.362 218.8 282.773 218.8C285.183 218.8 285.183 214.894 287.597 214.894C290.011 214.894 290.007 218.8 292.417 218.8C294.828 218.8 294.828 214.894 297.242 214.894C299.656 214.894 299.652 218.8 302.062 218.8C304.473 218.8 304.476 214.894 306.887 214.894C309.297 214.894 309.301 218.8 311.711 218.8C314.121 218.8 314.125 214.894 316.536 214.894C318.946 214.894 318.95 218.8 321.364 218.8" stroke="black" stroke-width="2.73049" stroke-linecap="round" stroke-linejoin="round"/>
<path d="M191.914 274.638C191.24 274.638 190.594 274.37 190.118 273.894C189.642 273.418 189.375 272.772 189.375 272.099C189.375 268.802 190.832 267.021 191.902 265.712C192.789 264.626 193.281 264.029 193.281 262.548C193.281 261.068 192.789 260.466 191.898 259.38C190.832 258.076 189.375 256.291 189.375 252.998C189.375 249.705 190.836 247.92 191.902 246.615C192.789 245.529 193.281 244.928 193.281 243.447C193.281 241.967 192.789 241.369 191.902 240.284C190.836 238.979 189.375 237.194 189.375 233.901C189.375 230.608 190.832 228.823 191.902 227.518C192.789 226.433 193.281 225.835 193.281 224.355C193.281 222.874 192.789 222.273 191.902 221.187C190.836 219.882 189.375 218.097 189.375 214.804C189.375 211.511 190.836 209.726 191.902 208.425C192.789 207.336 193.281 206.738 193.281 205.258C193.281 203.777 192.789 203.18 191.902 202.094C190.836 200.789 189.375 199.004 189.375 195.711C189.375 192.418 190.836 190.633 191.902 189.332C192.789 188.243 193.281 187.645 193.281 186.165C193.281 185.491 193.548 184.845 194.025 184.369C194.501 183.893 195.147 183.626 195.82 183.626C196.494 183.626 197.139 183.893 197.616 184.369C198.092 184.845 198.359 185.491 198.359 186.165C198.359 189.457 196.898 191.243 195.832 192.547C194.941 193.633 194.453 194.231 194.453 195.711C194.453 197.192 194.941 197.789 195.832 198.879C196.898 200.18 198.359 201.965 198.359 205.258C198.359 208.55 196.898 210.336 195.832 211.64C194.941 212.726 194.453 213.324 194.453 214.804C194.453 216.285 194.941 216.886 195.832 217.972C196.898 219.273 198.359 221.058 198.359 224.355C198.359 227.651 196.898 229.432 195.832 230.733C194.941 231.823 194.453 232.421 194.453 233.901C194.453 235.381 194.941 235.979 195.832 237.069C196.898 238.37 198.359 240.155 198.359 243.447C198.359 246.74 196.898 248.525 195.832 249.83C194.941 250.916 194.453 251.517 194.453 252.998C194.453 254.478 194.941 255.076 195.832 256.166C196.898 257.466 198.359 259.252 198.359 262.548C198.359 265.845 196.898 267.626 195.832 268.931C194.941 270.017 194.453 270.614 194.453 272.099C194.453 272.772 194.185 273.418 193.709 273.894C193.233 274.37 192.587 274.638 191.914 274.638V274.638Z" stroke="black" stroke-width="2.73049" stroke-miterlimit="10"/>
<path d="M231.275 266.943H154.033C152.538 266.943 151.326 268.155 151.326 269.65V280.11C151.326 281.605 152.538 282.817 154.033 282.817H231.275C232.77 282.817 233.982 281.605 233.982 280.11V269.65C233.982 268.155 232.77 266.943 231.275 266.943Z" fill="white" stroke="black" stroke-width="2.73049" stroke-linecap="round" stroke-linejoin="round"/>
<path d="M157.49 272.548H227.087" stroke="#EF1500" stroke-width="2.73049" stroke-linecap="round" stroke-linejoin="round"/>
<path d="M174.588 278.231H209.988" stroke="#EF1500" stroke-width="2.73049" stroke-linecap="round" stroke-linejoin="round"/>
<path d="M269.518 235.366C270.163 235.366 270.686 234.843 270.686 234.198C270.686 233.553 270.163 233.03 269.518 233.03C268.873 233.03 268.35 233.553 268.35 234.198C268.35 234.843 268.873 235.366 269.518 235.366Z" fill="black"/>
<path d="M273.71 235.35C274.355 235.35 274.878 234.827 274.878 234.182C274.878 233.537 274.355 233.014 273.71 233.014C273.064 233.014 272.542 233.537 272.542 234.182C272.542 234.827 273.064 235.35 273.71 235.35Z" fill="black"/>
<path d="M277.901 235.335C278.546 235.335 279.069 234.812 279.069 234.167C279.069 233.522 278.546 232.999 277.901 232.999C277.256 232.999 276.733 233.522 276.733 234.167C276.733 234.812 277.256 235.335 277.901 235.335Z" fill="black"/>
<path d="M282.093 235.319C282.738 235.319 283.261 234.796 283.261 234.151C283.261 233.506 282.738 232.983 282.093 232.983C281.448 232.983 280.925 233.506 280.925 234.151C280.925 234.796 281.448 235.319 282.093 235.319Z" fill="black"/>
<path d="M286.285 235.307C286.93 235.307 287.453 234.784 287.453 234.139C287.453 233.494 286.93 232.971 286.285 232.971C285.64 232.971 285.117 233.494 285.117 234.139C285.117 234.784 285.64 235.307 286.285 235.307Z" fill="black"/>
<path d="M290.39 235.366C291.035 235.366 291.558 234.843 291.558 234.198C291.558 233.553 291.035 233.03 290.39 233.03C289.745 233.03 289.222 233.553 289.222 234.198C289.222 234.843 289.745 235.366 290.39 235.366Z" fill="black"/>
<path d="M294.582 235.35C295.227 235.35 295.75 234.827 295.75 234.182C295.75 233.537 295.227 233.014 294.582 233.014C293.937 233.014 293.414 233.537 293.414 234.182C293.414 234.827 293.937 235.35 294.582 235.35Z" fill="black"/>
<path d="M298.773 235.335C299.418 235.335 299.941 234.812 299.941 234.167C299.941 233.522 299.418 232.999 298.773 232.999C298.128 232.999 297.605 233.522 297.605 234.167C297.605 234.812 298.128 235.335 298.773 235.335Z" fill="black"/>
<path d="M302.965 235.319C303.61 235.319 304.133 234.796 304.133 234.151C304.133 233.506 303.61 232.983 302.965 232.983C302.32 232.983 301.797 233.506 301.797 234.151C301.797 234.796 302.32 235.319 302.965 235.319Z" fill="black"/>
<path d="M307.156 235.307C307.801 235.307 308.324 234.784 308.324 234.139C308.324 233.494 307.801 232.971 307.156 232.971C306.511 232.971 305.988 233.494 305.988 234.139C305.988 234.784 306.511 235.307 307.156 235.307Z" fill="black"/>
<path d="M271.444 136.444H380.976V71.1183L271.444 71.1183V136.444Z" fill="black"/>
<path d="M152.795 80.9109L262.327 80.9109V15.5853L152.795 15.5853V80.9109Z" fill="#EF1500"/>
<path d="M150.533 213.601H237.396V164.267H150.533V213.601Z" fill="#13B880"/>
<path d="M47.1152 258.943H133.978V209.609H47.1152V258.943Z" fill="white" stroke="black" stroke-width="2.73049" stroke-miterlimit="10"/>
<path d="M283.335 106.222C283.335 106.222 299.676 93.1018 326.068 93.1018C352.631 93.1018 368.944 106.222 368.944 106.222L368.577 106.656C368.577 106.656 352.237 119.777 325.845 119.777C299.281 119.777 282.968 106.656 282.968 106.656L283.335 106.222Z" stroke="black" stroke-width="2.73049" stroke-linecap="round" stroke-linejoin="round"/>
<path d="M283.335 106.222C283.335 106.222 299.676 93.1018 326.068 93.1018C352.631 93.1018 368.944 106.222 368.944 106.222L368.577 106.656C368.577 106.656 352.237 119.777 325.845 119.777C299.281 119.777 282.968 106.656 282.968 106.656L283.335 106.222Z" fill="white"/>
<path d="M335.783 119.265C342.741 119.265 348.381 113.492 348.381 106.371C348.381 99.2497 342.741 93.4768 335.783 93.4768C328.825 93.4768 323.185 99.2497 323.185 106.371C323.185 113.492 328.825 119.265 335.783 119.265Z" fill="#13B880"/>
<path d="M335.337 111.063C337.868 111.063 339.919 108.962 339.919 106.371C339.919 103.78 337.868 101.68 335.337 101.68C332.806 101.68 330.755 103.78 330.755 106.371C330.755 108.962 332.806 111.063 335.337 111.063Z" fill="#EF1500"/>
<path d="M117.114 248.6H64.5651C61.8697 248.6 59.6821 246.647 59.6821 244.303V225.179C59.6821 222.8 61.8697 220.859 64.5651 220.859H117.091C119.786 220.859 121.974 222.812 121.974 225.179V244.283C121.997 246.658 119.786 248.6 117.114 248.6Z" fill="#EF1500"/>
<path d="M54.1548 248.327C55.2623 248.917 56.492 249.24 57.7465 249.272C59.001 249.304 60.2456 249.043 61.3816 248.51C61.8582 248.309 62.2791 247.995 62.6082 247.596C62.8634 247.238 62.9973 246.807 62.9903 246.367C62.9832 245.927 62.8357 245.501 62.5692 245.151C62.0887 244.541 59.6823 244.287 59.6823 244.287C59.5517 244.93 59.2984 245.541 58.9362 246.088C57.8659 247.545 55.9634 248.28 54.1548 248.327Z" fill="#EF1500"/>
<path d="M79.972 239.933C80.9174 241.495 81.7807 243.023 81.7807 243.023C80.2582 242.785 78.7756 242.339 77.3743 241.698C74.3624 240.136 71.042 236.651 71.042 236.651L74.3468 233.225C74.3468 233.225 78.9603 238.241 79.972 239.933Z" fill="white"/>
<path d="M74.5423 233.12L72.925 234.687L67.5615 228.913L69.1827 227.405L74.5423 233.12Z" fill="black"/>
<path d="M112.579 99.8719L139.326 90.1449" stroke="white" stroke-width="2.73049" stroke-linecap="round" stroke-linejoin="round"/>
<path d="M112.579 99.8719L139.326 90.1449" stroke="white" stroke-width="2.73049" stroke-linecap="round" stroke-linejoin="round"/>
<path d="M289.132 91.8771L316.411 79.8688" stroke="#EF1500" stroke-width="2.73049" stroke-miterlimit="10"/>
<path d="M197.27 70.8763L218.016 69.6809" stroke="white" stroke-width="2.73049" stroke-linecap="round" stroke-linejoin="round"/>
<path d="M97.5428 171.853L97.953 161.482L76.6592 161.607L76.2451 171.979L97.5428 171.853Z" fill="white" stroke="black" stroke-width="2.73049" stroke-linecap="round" stroke-linejoin="round"/>
<path d="M80.9828 167.563C81.4488 167.392 81.6972 166.901 81.5377 166.465C81.3782 166.029 80.8712 165.815 80.4052 165.985C79.9393 166.156 79.6908 166.647 79.8503 167.083C80.0098 167.518 80.5168 167.733 80.9828 167.563Z" fill="black"/>
<path d="M84.1757 167.532C84.6417 167.362 84.8901 166.87 84.7306 166.435C84.5711 165.999 84.0641 165.784 83.5981 165.955C83.1321 166.126 82.8837 166.617 83.0432 167.052C83.2027 167.488 83.7097 167.703 84.1757 167.532Z" fill="black"/>
<path d="M87.37 167.503C87.836 167.332 88.0844 166.841 87.9249 166.405C87.7654 165.97 87.2584 165.755 86.7924 165.926C86.3265 166.096 86.078 166.588 86.2375 167.023C86.397 167.459 86.904 167.674 87.37 167.503Z" fill="black"/>
<path d="M90.5609 167.478C91.0269 167.307 91.2753 166.816 91.1158 166.38C90.9563 165.945 90.4493 165.73 89.9834 165.9C89.5174 166.071 89.2689 166.562 89.4284 166.998C89.5879 167.434 90.095 167.648 90.5609 167.478Z" fill="black"/>
<path d="M93.7518 167.449C94.2178 167.278 94.4663 166.787 94.3068 166.351C94.1473 165.915 93.6402 165.701 93.1743 165.871C92.7083 166.042 92.4599 166.533 92.6194 166.969C92.7788 167.404 93.2859 167.619 93.7518 167.449Z" fill="black"/>
<path d="M232.849 55.4471C241.466 60.7789 245.603 64.0405 245.603 64.0405C245.603 64.0405 234.911 67.0638 226.278 66.5834C211.918 65.7826 193.027 58.1189 193.027 58.1189L199.832 39.1274C199.832 39.1274 225.751 51.0527 232.849 55.4471Z" fill="white"/>
<path d="M200.414 38.4009L196.886 47.2755L166.12 34.3073L169.764 25.6631L200.414 38.4009Z" fill="black"/>
<path d="M134.904 64.8695H28.0718V128.39H134.904V64.8695Z" fill="#2C29C2"/>
<path d="M63.495 85.9068C50.2601 95.3986 33.8063 98.0157 30.7281 90.1137C29.2046 86.2076 29.9468 76.7509 40.6738 75.2705C46.8186 74.4229 50.0492 77.0126 56.5338 71.8019C58.6159 70.1262 61.827 61.8882 63.5302 59.9C65.8632 57.2388 68.7336 55.1022 71.9524 53.6307C75.5228 52.0683 79.9292 51.9941 82.9919 54.5096C85.2224 56.3416 86.4334 59.2477 88.3827 61.4312C90.0208 63.3302 92.3019 64.5583 94.7892 64.8803C98.9339 65.2709 102.75 62.7163 106.751 61.4664C123.771 56.1853 127.951 67.4153 128.525 70.9894C129.525 77.204 126.412 82.8913 123.493 85.2857C120.071 88.1059 116.677 88.8793 112.388 89.141C108.098 89.4028 103.793 88.5981 99.5745 87.7349" stroke="black" stroke-width="3.4609" stroke-linecap="round" stroke-linejoin="round"/>
<path d="M101.29 233.651L105.985 233.44L104.032 229.577L107.704 231.995L109.556 227.897L110.087 232.526L114.923 231.905L111.403 234.729L114.755 237.959L110.243 237.077L110.477 241.116L107.813 237.541L103.801 239.877L105.618 235.909L101.29 233.651Z" fill="#13B880"/>
<path d="M116.614 102.391H45.8223V113.727H116.614V102.391Z" fill="white" stroke="black" stroke-width="2.73049" stroke-linecap="round" stroke-linejoin="round"/>
<path d="M46.1817 113.758C47.487 113.758 48.5451 111.213 48.5451 108.074C48.5451 104.935 47.487 102.391 46.1817 102.391C44.8765 102.391 43.8184 104.935 43.8184 108.074C43.8184 111.213 44.8765 113.758 46.1817 113.758Z" fill="white" stroke="black" stroke-width="2.73049" stroke-linecap="round" stroke-linejoin="round"/>
<path d="M116.915 113.758C118.22 113.758 119.278 111.213 119.278 108.074C119.278 104.935 118.22 102.391 116.915 102.391C115.61 102.391 114.552 104.935 114.552 108.074C114.552 111.213 115.61 113.758 116.915 113.758Z" fill="white" stroke="black" stroke-width="2.73049" stroke-linecap="round" stroke-linejoin="round"/>
<path d="M115.419 80.3289H47.498V91.6652H115.419V80.3289Z" fill="white" stroke="black" stroke-width="2.73049" stroke-linecap="round" stroke-linejoin="round"/>
<path d="M47.8263 91.6692C49.0819 91.6692 50.0998 89.1244 50.0998 85.9854C50.0998 82.8463 49.0819 80.3015 47.8263 80.3015C46.5706 80.3015 45.5527 82.8463 45.5527 85.9854C45.5527 89.1244 46.5706 91.6692 47.8263 91.6692Z" fill="white" stroke="black" stroke-width="2.73049" stroke-linecap="round" stroke-linejoin="round"/>
<path d="M115.689 91.6692C116.944 91.6692 117.962 89.1244 117.962 85.9854C117.962 82.8463 116.944 80.3015 115.689 80.3015C114.433 80.3015 113.415 82.8463 113.415 85.9854C113.415 89.1244 114.433 91.6692 115.689 91.6692Z" fill="white" stroke="black" stroke-width="2.73049" stroke-linecap="round" stroke-linejoin="round"/>
<path d="M118.622 95.6017H42.5957V106.938H118.622V95.6017Z" fill="white" stroke="black" stroke-width="2.73049" stroke-linecap="round" stroke-linejoin="round"/>
<path d="M42.9825 106.938C44.387 106.938 45.5256 104.393 45.5256 101.254C45.5256 98.1152 44.387 95.5705 42.9825 95.5705C41.578 95.5705 40.4395 98.1152 40.4395 101.254C40.4395 104.393 41.578 106.938 42.9825 106.938Z" fill="white" stroke="black" stroke-width="2.73049" stroke-linecap="round" stroke-linejoin="round"/>
<path d="M118.919 106.938C120.324 106.938 121.462 104.393 121.462 101.254C121.462 98.1152 120.324 95.5705 118.919 95.5705C117.515 95.5705 116.376 98.1152 116.376 101.254C116.376 104.393 117.515 106.938 118.919 106.938Z" fill="white" stroke="black" stroke-width="2.73049" stroke-linecap="round" stroke-linejoin="round"/>
<path d="M118.622 83.9967H42.5957V95.333H118.622V83.9967Z" fill="white" stroke="black" stroke-width="2.73049" stroke-linecap="round" stroke-linejoin="round"/>
<path d="M42.9825 95.3643C44.387 95.3643 45.5256 92.8196 45.5256 89.6805C45.5256 86.5414 44.387 83.9967 42.9825 83.9967C41.578 83.9967 40.4395 86.5414 40.4395 89.6805C40.4395 92.8196 41.578 95.3643 42.9825 95.3643Z" fill="white" stroke="black" stroke-width="2.73049" stroke-linecap="round" stroke-linejoin="round"/>
<path d="M118.919 95.3643C120.324 95.3643 121.462 92.8196 121.462 89.6805C121.462 86.5414 120.324 83.9967 118.919 83.9967C117.515 83.9967 116.376 86.5414 116.376 89.6805C116.376 92.8196 117.515 95.3643 118.919 95.3643Z" fill="white" stroke="black" stroke-width="2.73049" stroke-linecap="round" stroke-linejoin="round"/>
<path d="M64.6354 120.663C64.2548 120.664 63.8748 120.635 63.4986 120.577C61.0766 120.187 58.8656 118.542 57.5492 116.148C56.0843 113.414 55.5452 110.707 55.0959 108.285C54.2561 103.887 54.4358 99.5235 54.678 95.7541C55.0061 90.2855 55.3928 82.1179 61.4048 76.0439C62.3032 75.1182 64.7838 74.0909 66.6394 74.1612C72.6201 74.3096 74.2022 80.6648 74.2022 80.6648L68.8113 80.7078C68.8113 80.7078 68.2566 80.7703 66.5222 80.8289C64.5182 80.9187 61.4673 89.0825 61.018 96.172C60.8071 99.6875 60.6274 103.469 61.3462 107.148C61.7368 109.211 62.1548 111.363 63.1392 113.218C63.2724 113.507 63.4635 113.764 63.7008 113.975C63.9381 114.186 64.2163 114.346 64.5182 114.445C64.9635 114.503 65.862 113.789 65.862 113.789L71.995 113.937C71.995 113.878 70.1707 120.905 64.6354 120.663Z" fill="black"/>
<path d="M97.3283 120.663C96.9477 120.664 96.5677 120.635 96.1915 120.577C93.7656 120.187 91.5546 118.542 90.2382 116.148C88.7733 113.414 88.2342 110.707 87.7849 108.285C86.949 103.887 87.1287 99.5235 87.367 95.7541C87.6951 90.2855 88.0857 82.1179 94.0977 76.0439C94.9923 75.1182 97.4767 74.0909 99.3284 74.1612C105.313 74.3096 106.778 80.8015 106.778 80.8015L101.258 80.7156C100.578 80.7926 99.8952 80.833 99.2112 80.8367C97.2072 80.9265 94.1563 89.0903 93.707 96.1798C93.5 99.6953 93.3164 103.476 94.0352 107.156C94.4258 109.218 94.8438 111.371 95.8321 113.226C95.9644 113.514 96.1549 113.772 96.3915 113.983C96.6281 114.194 96.9058 114.354 97.2072 114.453C97.6564 114.511 98.551 113.796 98.551 113.796L104.684 113.945C104.688 113.878 102.86 120.905 97.3283 120.663Z" fill="black"/>
<path d="M78.7217 111.812C86.6504 111.812 93.0778 105.385 93.0778 97.4571C93.0778 89.5291 86.6504 83.1022 78.7217 83.1022C70.7931 83.1022 64.3657 89.5291 64.3657 97.4571C64.3657 105.385 70.7931 111.812 78.7217 111.812Z" fill="#2C29C2" stroke="black" stroke-width="2.73049" stroke-miterlimit="10"/>
<path d="M79.5536 109.587C86.2421 109.111 91.2783 103.304 90.8024 96.6161C90.3265 89.9282 84.5186 84.8923 77.8302 85.3682C71.1418 85.8441 66.1055 91.6515 66.5814 98.3394C67.0574 105.027 72.8652 110.063 79.5536 109.587Z" fill="white"/>
<path d="M78.6948 85.7349C81.0196 85.7349 83.2922 86.4243 85.2252 87.7157C87.1582 89.0072 88.6648 90.8429 89.5544 92.9905C90.4441 95.1382 90.6769 97.5014 90.2233 99.7814C89.7698 102.061 88.6503 104.156 87.0064 105.799C85.3625 107.443 83.2681 108.562 80.988 109.016C78.7079 109.469 76.3445 109.237 74.1966 108.347C72.0488 107.458 70.213 105.951 68.9214 104.018C67.6299 102.085 66.9405 99.813 66.9405 97.4884C66.9467 94.3731 68.1871 91.3871 70.3901 89.1843C72.5931 86.9814 75.5793 85.7411 78.6948 85.7349ZM78.6948 84.9264C76.2099 84.9256 73.7806 85.6617 71.7141 87.0415C69.6477 88.4214 68.0368 90.3831 67.0854 92.6784C66.1339 94.9737 65.8845 97.4997 66.3689 99.9367C66.8532 102.374 68.0494 104.612 69.8062 106.37C71.563 108.127 73.8015 109.324 76.2386 109.809C78.6757 110.294 81.2019 110.045 83.4977 109.095C85.7935 108.144 87.7558 106.534 89.1364 104.468C90.517 102.402 91.2539 99.9731 91.2539 97.4884C91.2539 94.1574 89.9309 90.9628 87.5757 88.6071C85.2205 86.2514 82.0261 84.9274 78.6948 84.9264Z" fill="black"/>
<path d="M77.8862 97.4571L83.4489 103.137" stroke="black" stroke-width="2.73049" stroke-linecap="round" stroke-linejoin="round"/>
<path d="M81.5661 88.934L77.7964 97.3367" stroke="black" stroke-width="2.73049" stroke-linecap="round" stroke-linejoin="round"/>
<path d="M78.6636 86.3599V87.7662" stroke="black" stroke-width="2.73049" stroke-linecap="round" stroke-linejoin="round"/>
<path d="M78.6636 107.144V108.523" stroke="black" stroke-width="2.73049" stroke-linecap="round" stroke-linejoin="round"/>
<path d="M67.7451 97.4571H69.1241" stroke="black" stroke-width="2.73049" stroke-linecap="round" stroke-linejoin="round"/>
<path d="M88.5039 97.4571H89.9102" stroke="black" stroke-width="2.73049" stroke-linecap="round" stroke-linejoin="round"/>
<path d="M70.8862 89.7113L71.8745 90.6957" stroke="black" stroke-width="2.73049" stroke-linecap="round" stroke-linejoin="round"/>
<path d="M85.5737 104.394L86.5582 105.383" stroke="black" stroke-width="2.73049" stroke-linecap="round" stroke-linejoin="round"/>
<path d="M70.9756 105.293L71.9639 104.305" stroke="black" stroke-width="2.73049" stroke-linecap="round" stroke-linejoin="round"/>
<path d="M85.6636 90.6059L86.648 89.6215" stroke="black" stroke-width="2.73049" stroke-linecap="round" stroke-linejoin="round"/>
<path d="M88.9451 233.987L90.7459 236.503L89.574 238.066L90.6053 240.976C90.5819 240.976 84.8277 237.023 84.8551 232.339C84.8551 229.604 88.3708 228.272 90.5272 231.104L90.6053 231.202L88.9451 233.987Z" fill="black"/>
<path d="M90.3906 234.03L92.2188 236.515L91.0157 238.109L92.0352 240.988C92.0587 240.988 97.8128 237.034 97.7854 232.351C97.7854 229.616 94.2697 228.284 92.1134 231.116L92.0352 231.214L90.3906 234.03Z" fill="black"/>
<path d="M213.645 181.36L193.449 195.164L173.272 181.36H213.645Z" fill="black" stroke="black" stroke-width="2.73049" stroke-linecap="round" stroke-linejoin="round"/>
<path d="M173.273 181.341L193.47 167.517L213.646 181.341H173.273Z" fill="black" stroke="black" stroke-width="2.73049" stroke-linecap="round" stroke-linejoin="round"/>
<path d="M205.114 178.084H181.578V191.216H205.114V178.084Z" fill="#2C29C2" stroke="black" stroke-width="2.73049" stroke-miterlimit="10"/>
<path d="M182.863 187.388C185.135 186.416 187.291 185.195 189.293 183.747C189.617 183.535 189.885 183.249 190.074 182.911C190.153 182.734 190.163 182.534 190.102 182.35C190.041 182.166 189.914 182.011 189.746 181.915C189.531 181.856 189.303 181.869 189.097 181.954C188.081 182.294 187.232 183.007 186.722 183.95C186.23 184.825 186.109 186.024 186.761 186.798C187.013 187.069 187.325 187.278 187.671 187.409C188.017 187.54 188.389 187.589 188.758 187.552C189.492 187.478 190.208 187.279 190.875 186.962C192.789 186.181 194.723 185.294 196.125 183.766C196.391 183.462 196.656 183.032 196.434 182.708C196.328 182.591 196.193 182.503 196.043 182.453C195.893 182.403 195.733 182.393 195.578 182.423C194.829 182.523 194.135 182.87 193.604 183.408C193.073 183.946 192.735 184.645 192.644 185.395C192.586 186.087 192.809 186.88 193.426 187.208C193.845 187.379 194.306 187.421 194.75 187.329C197.059 186.994 199.203 185.94 200.879 184.317C201.027 184.21 201.146 184.069 201.228 183.906C201.31 183.743 201.351 183.562 201.348 183.38C201.285 182.93 200.715 182.727 200.289 182.848C199.879 183.029 199.531 183.327 199.289 183.704C198.637 184.622 198.149 186.005 198.945 186.829C199.176 187.032 199.448 187.182 199.744 187.266C200.039 187.351 200.35 187.368 200.653 187.317C201.266 187.255 201.856 187.071 202.465 186.989" fill="#2C29C2"/>
<path d="M182.863 187.388C185.135 186.416 187.291 185.195 189.293 183.747C189.617 183.535 189.885 183.249 190.074 182.911C190.153 182.734 190.163 182.534 190.102 182.35C190.041 182.166 189.914 182.011 189.746 181.915C189.531 181.856 189.303 181.869 189.097 181.954C188.081 182.294 187.232 183.007 186.722 183.95C186.23 184.825 186.109 186.024 186.761 186.798C187.013 187.069 187.325 187.278 187.671 187.409C188.017 187.54 188.389 187.589 188.758 187.552C189.492 187.478 190.208 187.279 190.875 186.962C192.789 186.181 194.723 185.294 196.125 183.766C196.391 183.462 196.656 183.032 196.434 182.708C196.328 182.591 196.193 182.503 196.043 182.453C195.893 182.403 195.733 182.393 195.578 182.423C194.829 182.523 194.135 182.87 193.604 183.408C193.073 183.946 192.735 184.645 192.644 185.395C192.586 186.087 192.809 186.88 193.426 187.208C193.845 187.379 194.306 187.421 194.75 187.329C197.059 186.994 199.203 185.94 200.879 184.317C201.027 184.21 201.146 184.069 201.228 183.906C201.31 183.743 201.351 183.562 201.348 183.38C201.285 182.93 200.715 182.727 200.289 182.848C199.879 183.029 199.531 183.327 199.289 183.704C198.637 184.622 198.149 186.005 198.945 186.829C199.176 187.032 199.448 187.182 199.744 187.266C200.039 187.351 200.35 187.368 200.653 187.317C201.266 187.255 201.856 187.071 202.465 186.989" stroke="black" stroke-width="2.04787" stroke-miterlimit="10"/>
<path d="M213.684 181.36V209.027H173.229V181.36H173.272L193.449 195.164L213.645 181.36H213.684Z" fill="white" stroke="black" stroke-width="2.73049" stroke-linecap="round" stroke-linejoin="round"/>
<path d="M193.449 195.164L173.229 208.988" stroke="black" stroke-width="2.73049" stroke-linecap="round" stroke-linejoin="round"/>
<path d="M213.684 209.007L193.449 195.164" stroke="black" stroke-width="2.73049" stroke-linecap="round" stroke-linejoin="round"/>
<path d="M214.259 122.898C217.818 122.898 220.704 120.012 220.704 116.452C220.704 112.893 217.818 110.007 214.259 110.007C210.699 110.007 207.813 112.893 207.813 116.452C207.813 120.012 210.699 122.898 214.259 122.898Z" stroke="#EF1500" stroke-width="2.73049" stroke-linecap="round" stroke-linejoin="round"/>
<path d="M216.837 113.972L211.735 118.777" stroke="#EF1500" stroke-width="2.73049" stroke-linecap="round" stroke-linejoin="round"/>
<path d="M211.81 114.023L216.884 118.801" stroke="#EF1500" stroke-width="2.73049" stroke-linecap="round" stroke-linejoin="round"/>
</svg>
