<svg width="192" height="200" viewBox="0 0 192 200" fill="none" xmlns="http://www.w3.org/2000/svg">
<path d="M168 33.3332H144V24.9998C144 22.7897 143.157 20.6701 141.657 19.1073C140.157 17.5445 138.122 16.6665 136 16.6665H56C53.8783 16.6665 51.8434 17.5445 50.3431 19.1073C48.8429 20.6701 48 22.7897 48 24.9998V33.3332H24C21.8783 33.3332 19.8434 34.2111 18.3431 35.774C16.8429 37.3368 16 39.4564 16 41.6665V66.6665C16 75.5071 19.3714 83.9855 25.3726 90.2367C31.3737 96.488 39.5131 99.9998 48 99.9998H60.32C67.5563 108.409 77.3125 114.019 88 115.917V133.333H80C73.6348 133.333 67.5303 135.967 63.0294 140.656C58.5286 145.344 56 151.703 56 158.333V175C56 177.21 56.8429 179.33 58.3431 180.892C59.8434 182.455 61.8783 183.333 64 183.333H128C130.122 183.333 132.157 182.455 133.657 180.892C135.157 179.33 136 177.21 136 175V158.333C136 151.703 133.471 145.344 128.971 140.656C124.47 135.967 118.365 133.333 112 133.333H104V115.917C114.688 114.019 124.444 108.409 131.68 99.9998H144C152.487 99.9998 160.626 96.488 166.627 90.2367C172.629 83.9855 176 75.5071 176 66.6665V41.6665C176 39.4564 175.157 37.3368 173.657 35.774C172.157 34.2111 170.122 33.3332 168 33.3332ZM48 83.3332C43.7565 83.3332 39.6869 81.5772 36.6863 78.4516C33.6857 75.326 32 71.0868 32 66.6665V49.9998H48V66.6665C48.0176 72.3474 48.9645 77.9837 50.8 83.3332H48ZM112 150C114.122 150 116.157 150.878 117.657 152.441C119.157 154.003 120 156.123 120 158.333V166.667H72V158.333C72 156.123 72.8429 154.003 74.3431 152.441C75.8434 150.878 77.8783 150 80 150H112ZM128 66.6665C128 75.5071 124.629 83.9855 118.627 90.2367C112.626 96.488 104.487 99.9998 96 99.9998C87.5131 99.9998 79.3737 96.488 73.3726 90.2367C67.3714 83.9855 64 75.5071 64 66.6665V33.3332H128V66.6665ZM160 66.6665C160 71.0868 158.314 75.326 155.314 78.4516C152.313 81.5772 148.243 83.3332 144 83.3332H141.2C143.035 77.9837 143.982 72.3474 144 66.6665V49.9998H160V66.6665Z" fill="#FFCC00"/>
</svg>
