<svg width="290" height="270" viewBox="0 0 290 270" fill="none" xmlns="http://www.w3.org/2000/svg">
<path d="M176.43 52H14.4774C11.4523 52 9 54.4523 9 57.4774V254.012C9 257.037 11.4523 259.49 14.4774 259.49H176.431C179.456 259.49 181.908 257.037 181.908 254.012V57.4774C181.908 54.4523 179.456 52 176.43 52Z" fill="white" stroke="black" stroke-width="2.19097" stroke-miterlimit="10" stroke-linecap="round" stroke-linejoin="round"/>
<rect x="20.0478" y="67.1169" width="32.1801" height="6.33928" stroke="#E2E2E2" stroke-width="2.73872"/>
<rect x="20.0478" y="80.7705" width="125.839" height="7.80219" fill="#2C29C2"/>
<rect x="20.0478" y="94.4243" width="135.204" height="7.80219" fill="#2C29C2"/>
<rect x="20.0478" y="108.078" width="118.634" height="7.80219" fill="#2C29C2"/>
<path d="M226.43 32H64.4774C61.4523 32 59 34.4523 59 37.4774V234.012C59 237.037 61.4523 239.49 64.4774 239.49H226.431C229.456 239.49 231.908 237.037 231.908 234.012V37.4774C231.908 34.4523 229.456 32 226.43 32Z" fill="white" stroke="black" stroke-width="2.19097" stroke-miterlimit="10" stroke-linecap="round" stroke-linejoin="round"/>
<rect x="70.0466" y="167.32" width="32.1801" height="6.33928" stroke="#E2E2E2" stroke-width="2.73872"/>
<rect x="70.0466" y="180.973" width="126.079" height="7.80219" fill="#13B880"/>
<rect x="70.0466" y="194.627" width="106.146" height="7.80219" fill="#13B880"/>
<rect x="70.0466" y="208.281" width="116.953" height="7.80219" fill="#13B880"/>
<rect x="70.0466" y="41.509" width="155.377" height="114.351" rx="18.6233" fill="#E2E2E2"/>
<path d="M276.43 12H114.477C111.452 12 109 14.4523 109 17.4774V214.012C109 217.037 111.452 219.49 114.477 219.49H276.431C279.456 219.49 281.908 217.037 281.908 214.012V17.4774C281.908 14.4523 279.456 12 276.43 12Z" fill="white" stroke="black" stroke-width="2.19097" stroke-miterlimit="10" stroke-linecap="round" stroke-linejoin="round"/>
<rect x="120.048" y="27.1172" width="32.1801" height="6.33928" stroke="#E2E2E2" stroke-width="2.73872"/>
<rect width="25.4091" height="31.2187" rx="12.7045" transform="matrix(0.701727 0.712446 -0.701727 0.712446 257.789 169.052)" stroke="#13B880" stroke-width="2.73872"/>
<rect x="120.048" y="40.7708" width="142.169" height="7.80219" fill="black"/>
<rect x="120.048" y="54.4246" width="63.8799" height="7.80219" fill="black"/>
<path d="M249.489 189.815L253.449 193.889L262.217 184.868" stroke="#13B880" stroke-width="2.73872" stroke-linecap="round" stroke-linejoin="round"/>
<path d="M249.489 189.815L253.449 193.889L262.217 184.868" stroke="#13B880" stroke-width="2.73872" stroke-linecap="round" stroke-linejoin="round"/>
</svg>
