<svg width="320" height="240" viewBox="0 0 320 240" fill="none" xmlns="http://www.w3.org/2000/svg">
<path d="M196.675 176.243L121.49 176.086L121.435 202.474L196.62 202.631L196.675 176.243Z" fill="#2C29C2"/>
<path d="M104.932 116.316L6.37891 116.11L6.24994 177.835L104.803 178.041L104.932 116.316Z" fill="white" stroke="black" stroke-width="2.92532" stroke-miterlimit="10" stroke-linecap="round" stroke-linejoin="round"/>
<path d="M6.34961 130.067L104.864 130.273" stroke="black" stroke-width="2.92532" stroke-miterlimit="10" stroke-linecap="round" stroke-linejoin="round"/>
<path d="M91.5664 116.286L91.5372 130.245" stroke="black" stroke-width="2.92532" stroke-miterlimit="10" stroke-linecap="round" stroke-linejoin="round"/>
<path d="M78.3984 116.258L78.3693 130.217" stroke="black" stroke-width="2.92532" stroke-miterlimit="10" stroke-linecap="round" stroke-linejoin="round"/>
<path d="M64.7988 116.23L64.7697 130.189" stroke="black" stroke-width="2.92532" stroke-miterlimit="10" stroke-linecap="round" stroke-linejoin="round"/>
<path d="M87.9631 120.944L82.3359 120.932L82.3259 125.713L87.9531 125.724L87.9631 120.944Z" fill="white" stroke="black" stroke-width="2.92532" stroke-miterlimit="10" stroke-linecap="round" stroke-linejoin="round"/>
<path d="M101.524 119.94L95.1792 126.696" stroke="black" stroke-width="2.92532" stroke-miterlimit="10" stroke-linecap="round" stroke-linejoin="round"/>
<path d="M95.1152 119.927L101.432 126.709" stroke="black" stroke-width="2.92532" stroke-miterlimit="10" stroke-linecap="round" stroke-linejoin="round"/>
<path d="M68.3809 123.466L73.5781 123.477" stroke="black" stroke-width="2.92532" stroke-miterlimit="10" stroke-linecap="round" stroke-linejoin="round"/>
<path d="M16.373 139.535L92.8865 139.695" stroke="#13B880" stroke-width="2.92532" stroke-miterlimit="10" stroke-linecap="round" stroke-linejoin="round"/>
<path d="M16.3594 146.878L92.8728 147.038" stroke="#13B880" stroke-width="2.92532" stroke-miterlimit="10" stroke-linecap="round" stroke-linejoin="round"/>
<path d="M92.8614 170.175L16.4261 170.015C15.9181 170.014 15.4892 169.593 15.4902 169.095L15.5528 139.151C15.5538 138.654 15.9845 138.234 16.4925 138.235L92.9669 138.395C93.4749 138.396 93.9039 138.817 93.9028 139.314L93.8401 169.336C93.8001 169.795 93.3694 170.176 92.8614 170.175Z" fill="#2C29C2"/>
<path d="M153.581 153.169L47.6035 152.947L47.4745 214.672L153.452 214.894L153.581 153.169Z" fill="white" stroke="black" stroke-width="2.92532" stroke-miterlimit="10" stroke-linecap="round" stroke-linejoin="round"/>
<path d="M47.5762 166.906L153.554 167.128" stroke="black" stroke-width="2.92532" stroke-miterlimit="10" stroke-linecap="round" stroke-linejoin="round"/>
<path d="M58.4219 176.375L140.68 176.547" stroke="#13B880" stroke-width="2.92532" stroke-miterlimit="10" stroke-linecap="round" stroke-linejoin="round"/>
<path d="M58.4062 183.679L140.664 183.851" stroke="#13B880" stroke-width="2.92532" stroke-miterlimit="10" stroke-linecap="round" stroke-linejoin="round"/>
<path d="M184.91 159.773L236.688 159.881" stroke="#2C29C2" stroke-width="2.92532" stroke-miterlimit="10" stroke-linecap="round" stroke-linejoin="round"/>
<path d="M184.887 170.481L236.664 170.589" stroke="#2C29C2" stroke-width="2.92532" stroke-miterlimit="10" stroke-linecap="round" stroke-linejoin="round"/>
<path d="M184.863 181.304L236.641 181.412" stroke="#2C29C2" stroke-width="2.92532" stroke-miterlimit="10" stroke-linecap="round" stroke-linejoin="round"/>
<path d="M140.465 204.388L58.5586 204.217C58.2459 204.216 57.9339 203.948 57.9346 203.604L57.9616 190.677C57.9623 190.371 58.2364 190.066 58.5881 190.067L140.494 190.238C140.807 190.239 141.119 190.507 141.118 190.851L141.091 203.739C141.091 204.083 140.816 204.389 140.465 204.388Z" fill="#13B880"/>
<path d="M141.25 126.525C138.937 130.001 138.888 134.59 140.131 138.532C141.373 142.473 143.827 145.997 146.282 149.406C147.646 151.282 149.088 153.274 151.235 154.273C153.616 155.387 156.43 155.125 159.011 154.519C170.857 151.79 180.643 143.703 188.673 134.732C190.318 132.9 197.435 130.352 197.401 127.943C197.366 126.337 204.216 120.614 203.359 119.198C202.464 117.628 204.272 112.66 202.75 111.624C201.306 110.665 194.405 103.002 192.647 102.845C185.068 102.217 165.668 110.629 158.085 111.531C154.254 111.982 151.5 120.963 147.669 121.376C145.129 121.638 142.583 124.501 141.25 126.525Z" fill="white"/>
<path d="M137.01 136.919C131.652 138.743 120.157 141.932 117.781 138.255C117.123 135.08 121.741 131.839 124.363 129.932C133.6 123.067 167.447 101.569 171.829 98.7477" fill="white"/>
<path d="M137.01 136.919C131.652 138.743 120.157 141.932 117.781 138.255C117.123 135.08 121.741 131.839 124.363 129.932C133.6 123.067 167.447 101.569 171.829 98.7477" stroke="black" stroke-width="2.92532" stroke-miterlimit="10" stroke-linecap="round" stroke-linejoin="round"/>
<path d="M140.299 133.75C135.096 136.722 111.693 152.965 115.589 158.748C118.357 162.004 124.109 158.307 127.122 156.439C132.13 153.352 139.682 148.816 144.339 145.384" fill="white"/>
<path d="M140.299 133.75C135.096 136.722 111.693 152.965 115.589 158.748C118.357 162.004 124.109 158.307 127.122 156.439C132.13 153.352 139.682 148.816 144.339 145.384" stroke="black" stroke-width="2.92532" stroke-miterlimit="10" stroke-linecap="round" stroke-linejoin="round"/>
<path d="M145.169 139.726C139.966 142.698 113.708 160.236 117.604 166.019C120.372 169.275 126.124 165.577 129.137 163.71C134.145 160.623 141.696 156.087 146.354 152.655" fill="white"/>
<path d="M145.169 139.726C139.966 142.698 113.708 160.236 117.604 166.019C120.372 169.275 126.124 165.577 129.137 163.71C134.145 160.623 141.696 156.087 146.354 152.655" stroke="black" stroke-width="2.92532" stroke-miterlimit="10" stroke-linecap="round" stroke-linejoin="round"/>
<path d="M150.277 144.901C145.074 147.873 119.991 164.074 123.926 169.819C126.694 173.076 132.446 169.378 135.459 167.51C140.467 164.423 148.019 159.888 152.676 156.456" fill="white"/>
<path d="M150.277 144.901C145.074 147.873 119.991 164.074 123.926 169.819C126.694 173.076 132.446 169.378 135.459 167.51C140.467 164.423 148.019 159.888 152.676 156.456" stroke="black" stroke-width="2.92532" stroke-miterlimit="10" stroke-linecap="round" stroke-linejoin="round"/>
<path d="M156.048 152.102C150.844 155.074 130.928 167.386 134.863 173.169C137.63 176.425 143.383 172.727 146.395 170.86C151.404 167.773 230.495 112.561 235.191 109.167" fill="white"/>
<path d="M156.048 152.102C150.844 155.074 130.928 167.386 134.863 173.169C137.63 176.425 143.383 172.727 146.395 170.86C151.404 167.773 230.495 112.561 235.191 109.167" stroke="black" stroke-width="2.92532" stroke-miterlimit="10" stroke-linecap="round" stroke-linejoin="round"/>
<path d="M179.762 210.627L81.5215 210.422L81.4707 234.745L179.711 234.95L179.762 210.627Z" fill="white" stroke="black" stroke-width="2.92532" stroke-miterlimit="10" stroke-linecap="round" stroke-linejoin="round"/>
<path d="M312.36 39.1515C312.342 47.7563 305.762 54.9706 297.044 56.6734C295.886 68.45 285.316 77.6447 272.381 77.6176C266.246 77.6048 260.623 75.4897 256.332 72.0388C256.293 72.0387 256.293 72.0004 256.254 72.0004C256.214 72.1533 256.097 72.2295 256.058 72.3824C251.829 76.2744 246.041 78.6334 239.632 78.6201C234.239 78.6088 229.28 76.9157 225.378 74.0393C224.715 73.5789 224.052 73.0421 223.467 72.5055C219.683 69.0939 217.153 64.5759 216.616 59.4883C214.429 59.1778 212.359 58.5616 210.407 57.7161C208.806 57.0244 207.284 56.1416 205.918 55.1827C205.255 54.7224 204.592 54.1856 204.007 53.6489C199.716 49.7773 197.07 44.3795 197.083 38.4135C197.101 29.5792 203.018 21.981 211.387 18.7861C213.108 18.1395 214.906 17.6461 216.821 17.4206C216.861 17.2295 216.9 17.1148 217.018 16.9239C217.057 16.771 217.097 16.6563 217.214 16.4654C217.293 16.2361 217.411 16.0068 217.489 15.7775C217.646 15.5102 217.725 15.2426 217.882 14.937C217.96 14.7077 218.117 14.4786 218.196 14.2493C218.627 13.4853 219.098 12.6832 219.607 11.9576C219.764 11.7285 219.921 11.4993 220.078 11.3084C220.156 11.1556 220.274 11.0794 220.352 11.0031C220.626 10.6212 220.979 10.2395 221.292 9.89595C221.449 9.74331 221.527 9.62874 221.684 9.47609C221.723 9.43793 221.762 9.39977 221.84 9.2852C222.036 9.09439 222.232 8.90358 222.389 8.75093C222.545 8.59828 222.819 8.33115 223.054 8.14042C223.72 7.52991 224.424 6.99597 225.168 6.50036C225.363 6.34779 225.559 6.23347 225.716 6.11906C225.872 6.0429 225.99 5.92842 226.107 5.89042C226.263 5.81426 226.381 5.69978 226.576 5.6237C227.202 5.24257 227.789 4.93784 228.415 4.67144C228.611 4.59536 228.806 4.48104 228.963 4.40488C229.276 4.25256 229.588 4.13848 229.901 3.98616C230.214 3.83384 230.527 3.75801 230.84 3.60568C231.153 3.52985 231.505 3.37761 231.818 3.30178C231.974 3.26386 232.091 3.22586 232.209 3.14962C233.225 2.88404 234.281 2.65678 235.336 2.46777C235.493 2.42985 235.61 2.4301 235.766 2.43042C235.962 2.39259 236.157 2.393 236.313 2.39332C236.509 2.35549 236.704 2.3559 236.939 2.35639C237.369 2.31904 237.799 2.31994 238.189 2.28251C238.346 2.28284 238.463 2.28308 238.658 2.28349C238.815 2.28382 238.932 2.28406 239.127 2.28447C246.005 2.29884 252.134 5.0652 256.385 9.43386C256.54 9.62541 256.618 9.81679 256.696 10.0464C256.735 10.0083 256.774 10.0083 256.852 9.97025C257.009 9.89409 257.126 9.74137 257.283 9.66521C261.51 6.49981 266.906 4.63714 272.69 4.64922C284.022 4.6729 293.542 11.8061 296.453 21.5261C305.399 22.8451 312.378 30.2407 312.36 39.1515Z" fill="white" stroke="black" stroke-width="2.92532" stroke-miterlimit="10" stroke-linecap="round" stroke-linejoin="round"/>
<path d="M263.102 67.7306C263.084 76.3737 256.504 83.5497 247.786 85.2907C246.628 97.0674 236.058 106.262 223.123 106.235C216.949 106.222 211.287 104.107 206.996 100.579C202.877 107.952 194.583 112.906 185.048 112.886C175.552 112.867 167.278 107.801 163.151 100.488C158.806 103.997 153.175 106.089 147.001 106.076C134.222 106.049 123.768 97.0019 122.464 85.3731C112.462 84.7403 104.545 76.9603 104.565 67.4376C104.585 57.6472 112.965 49.7101 123.36 49.5023C126.389 39.9477 135.899 32.9307 147.114 32.9542C153.21 32.9669 158.755 35.0436 163.046 38.4563C167.126 30.8926 175.539 25.7472 185.152 25.7673C194.765 25.7874 203.156 30.9678 207.204 38.5486C211.509 35.1539 217.102 33.1004 223.159 33.113C234.491 33.1367 244.011 40.3082 246.922 49.9899C256.18 51.3861 263.12 58.7816 263.102 67.7306Z" fill="white" stroke="black" stroke-width="2.92532" stroke-miterlimit="10" stroke-linecap="round" stroke-linejoin="round"/>
<path d="M318.211 100.047C318.193 108.652 311.613 115.867 302.895 117.569C301.737 129.346 291.167 138.541 278.233 138.514C272.098 138.501 266.475 136.386 262.183 132.935C262.144 132.935 262.144 132.896 262.105 132.896C262.066 133.049 261.949 133.125 261.909 133.278C257.681 137.17 251.892 139.529 245.484 139.516C240.091 139.505 235.132 137.812 231.23 134.935C230.567 134.475 229.903 133.938 229.318 133.402C225.535 129.99 223.004 125.472 222.468 120.384C220.28 120.074 218.21 119.458 216.258 118.612C214.658 117.92 213.135 117.038 211.77 116.079C211.106 115.618 210.443 115.082 209.858 114.545C205.568 110.673 202.922 105.275 202.934 99.3094C202.953 90.4752 208.869 82.877 217.238 79.682C218.959 79.0355 220.758 78.5421 222.673 78.3166C222.712 78.1255 222.752 78.0108 222.869 77.8199C222.909 77.667 222.948 77.5523 223.066 77.3614C223.144 77.1321 223.262 76.9028 223.341 76.6735C223.498 76.4062 223.576 76.1386 223.733 75.833C223.812 75.6037 223.969 75.3746 224.047 75.1453C224.479 74.3813 224.949 73.5792 225.459 72.8536C225.616 72.6245 225.772 72.3953 225.929 72.2044C226.008 72.0516 226.125 71.9754 226.203 71.8991C226.478 71.5172 226.83 71.1355 227.144 70.7919C227.3 70.6393 227.379 70.5247 227.535 70.3721C227.574 70.3339 227.614 70.2958 227.692 70.1812C227.888 69.9904 228.084 69.7996 228.24 69.6469C228.436 69.4561 228.671 69.2272 228.906 69.0364C229.571 68.4259 230.276 67.892 231.019 67.3964C231.215 67.2438 231.411 67.1295 231.567 67.0151C231.724 66.9389 231.841 66.8244 231.958 66.7864C232.115 66.7103 232.232 66.5958 232.428 66.5197C233.054 66.1386 233.641 65.8338 234.267 65.5674C234.462 65.4914 234.658 65.377 234.814 65.3009C235.127 65.1486 235.44 65.0345 235.753 64.8822C236.066 64.7298 236.379 64.654 236.692 64.5017C237.004 64.4258 237.356 64.2736 237.669 64.1978C237.826 64.1599 237.943 64.1219 238.06 64.0456C239.077 63.78 240.132 63.5528 241.188 63.3638C241.344 63.3258 241.462 63.3261 241.618 63.3264C241.813 63.2886 242.009 63.289 242.165 63.2893C242.36 63.2515 242.556 63.2519 242.79 63.2524C243.22 63.215 243.65 63.2159 244.041 63.1785C244.197 63.1788 244.314 63.1791 244.51 63.1795C244.666 63.1798 244.783 63.1801 244.979 63.1805C251.856 63.1948 257.986 65.9612 262.236 70.3299C262.392 70.5214 262.47 70.7128 262.547 70.9424C262.587 70.9042 262.626 70.9043 262.704 70.8662C262.86 70.7901 262.978 70.6374 263.134 70.5612C267.361 67.3958 272.758 65.5331 278.541 65.5452C289.874 65.5689 299.394 72.7021 302.304 82.4221C311.25 83.7028 318.23 91.0985 318.211 100.047Z" fill="white" stroke="black" stroke-width="2.92532" stroke-miterlimit="10" stroke-linecap="round" stroke-linejoin="round"/>
</svg>
