<svg width="127" height="24" viewBox="0 0 127 24" fill="none" xmlns="http://www.w3.org/2000/svg">
<path d="M6.40039 10.0801C6.40039 7.85967 7.09339 6.02819 8.47937 4.58563C9.87951 3.12893 11.7463 2.40057 14.0799 2.40057C16.1589 2.40057 17.8489 2.938 19.1501 4.01285C20.4653 5.07355 21.2361 6.53025 21.4624 8.38295H18.0682C17.8984 7.42125 17.46 6.67875 16.7529 6.15547C16.0457 5.63219 15.1689 5.37055 14.1223 5.37055C12.7929 5.37055 11.7393 5.78069 10.9614 6.60097C10.1836 7.40711 9.79465 8.56681 9.79465 10.0801C9.79465 11.5934 10.1836 12.7601 10.9614 13.5804C11.7393 14.4007 12.7929 14.8108 14.1223 14.8108C15.1689 14.8108 16.0457 14.5492 16.7529 14.0259C17.46 13.4885 17.8984 12.7389 18.0682 11.7772H21.4624C21.2361 13.6441 20.4653 15.1149 19.1501 16.1897C17.8489 17.2505 16.1589 17.7808 14.0799 17.7808C11.7463 17.7808 9.87951 17.0595 8.47937 15.617C7.09339 14.1603 6.40039 12.3146 6.40039 10.0801Z" fill="#2E2E38"/>
<path d="M22.7253 12.0742C22.7253 10.4054 23.2415 9.08302 24.2739 8.10717C25.3205 7.13132 26.6853 6.6434 28.3683 6.6434C30.0513 6.6434 31.416 7.11718 32.4626 8.06474C33.5092 8.99816 34.0324 10.2639 34.0324 11.8621V12.9228H25.9074C25.9074 13.5592 26.1408 14.0683 26.6075 14.4502C27.0884 14.832 27.7955 15.023 28.7289 15.023C29.337 15.023 29.8462 14.9169 30.2563 14.7048C30.6665 14.4926 30.921 14.1886 31.02 13.7926H34.4143C34.3577 14.2027 34.2021 14.634 33.9476 15.0866C33.693 15.525 33.3394 15.9493 32.8869 16.3595C32.4484 16.7696 31.8615 17.109 31.1261 17.3777C30.4048 17.6465 29.6058 17.7808 28.7289 17.7808C26.7772 17.7808 25.2851 17.2363 24.2527 16.1473C23.2345 15.0583 22.7253 13.7006 22.7253 12.0742ZM25.9074 11.0135H30.8503C30.8503 10.5609 30.6523 10.1791 30.2563 9.86794C29.8745 9.5568 29.2451 9.40123 28.3683 9.40123C27.4914 9.40123 26.8621 9.5568 26.4802 9.86794C26.0984 10.1649 25.9074 10.5468 25.9074 11.0135Z" fill="#2E2E38"/>
<path d="M47.134 17.5687H43.4639L41.1728 13.5592C41.0455 13.5733 40.8475 13.5804 40.5788 13.5804H39.4969V17.5687H36.1026V6.85554H39.4969V10.6104H40.4091L42.5517 7.72532C42.9902 7.14546 43.7397 6.85554 44.8004 6.85554H46.7097V9.82551H44.9914L43.6973 11.5226L47.134 17.5687Z" fill="#2E2E38"/>
<path d="M53.9566 9.16788C57.4075 9.16788 59.1329 10.568 59.1329 13.3683C59.1329 16.1685 57.4075 17.5687 53.9566 17.5687H49.035V6.85554H52.4292V9.16788H53.9566ZM52.4292 14.5987H53.7445C54.5082 14.5987 55.0315 14.5209 55.3143 14.3653C55.5972 14.2098 55.7386 13.8774 55.7386 13.3683C55.7386 12.8591 55.5972 12.5268 55.3143 12.3712C55.0315 12.2156 54.5082 12.1379 53.7445 12.1379H52.4292V14.5987Z" fill="#2E2E38"/>
<path d="M71.7589 6.6434C73.4985 6.6434 74.8279 7.15254 75.7472 8.17081C76.6806 9.17495 77.1473 10.5185 77.1473 12.2015C77.1473 13.8845 76.6806 15.2351 75.7472 16.2534C74.8279 17.2717 73.4985 17.7808 71.7589 17.7808C70.2881 17.7808 69.1072 17.4202 68.2162 16.6989C67.3252 15.9635 66.7524 14.9593 66.4978 13.6865H64.8643V17.5687H61.4701V6.85554H64.8643V10.7165H66.4978C66.7524 9.4578 67.3252 8.46781 68.2162 7.74653C69.1072 7.01111 70.2881 6.6434 71.7589 6.6434ZM71.7589 14.8108C73.0883 14.8108 73.753 13.9411 73.753 12.2015C73.753 10.4761 73.0883 9.61337 71.7589 9.61337C70.4154 9.61337 69.7436 10.4761 69.7436 12.2015C69.7436 13.0925 69.9062 13.7501 70.2315 14.1744C70.5568 14.5987 71.0659 14.8108 71.7589 14.8108Z" fill="#2E2E38"/>
<path d="M79.478 6.85554H82.8723V7.51318L82.2359 9.42245H83.0844C83.4097 8.57388 83.8906 7.9021 84.527 7.4071C85.1776 6.89797 86.1039 6.6434 87.306 6.6434C88.791 6.6434 89.9366 7.17375 90.7427 8.23446C91.5489 9.29516 91.9519 10.6246 91.9519 12.2227C91.9519 13.8208 91.5489 15.1503 90.7427 16.211C89.9366 17.2575 88.791 17.7808 87.306 17.7808C86.1039 17.7808 85.1776 17.5333 84.527 17.0383C83.8906 16.5292 83.4097 15.8503 83.0844 15.0018H82.2359L82.8723 16.911V21.5993H79.478V6.85554ZM82.8723 12.2227C82.8723 13.9481 83.8199 14.8108 85.715 14.8108C87.6101 14.8108 88.5577 13.9481 88.5577 12.2227C88.5577 10.4832 87.6101 9.61337 85.715 9.61337C83.8199 9.61337 82.8723 10.4832 82.8723 12.2227Z" fill="#2E2E38"/>
<path d="M102.739 6.85554H106.133V17.5687H102.739V13.6865H97.6899V17.5687H94.2956V6.85554H97.6899V10.7165H102.739V6.85554Z" fill="#2E2E38"/>
<path d="M108.254 12.2015C108.254 10.4054 108.82 9.03352 109.951 8.08596C111.082 7.12425 112.532 6.6434 114.3 6.6434C116.068 6.6434 117.51 7.12425 118.628 8.08596C119.759 9.03352 120.325 10.4054 120.325 12.2015C120.325 13.9976 119.759 15.3765 118.628 16.3382C117.51 17.3 116.068 17.7808 114.3 17.7808C112.532 17.7808 111.082 17.307 109.951 16.3595C108.82 15.3978 108.254 14.0118 108.254 12.2015ZM111.648 12.2015C111.648 13.0783 111.881 13.736 112.348 14.1744C112.815 14.5987 113.465 14.8108 114.3 14.8108C115.12 14.8108 115.764 14.5987 116.23 14.1744C116.697 13.736 116.93 13.0783 116.93 12.2015C116.93 11.3388 116.697 10.6953 116.23 10.271C115.764 9.83259 115.12 9.61337 114.3 9.61337C113.465 9.61337 112.815 9.83259 112.348 10.271C111.881 10.6953 111.648 11.3388 111.648 12.2015Z" fill="#2E2E38"/>
<path d="M71.7589 14.8108C73.0883 14.8108 73.753 13.9411 73.753 12.2015C73.753 10.4761 73.0883 9.61337 71.7589 9.61337C70.4154 9.61337 69.7436 10.4761 69.7436 12.2015C69.7436 13.0925 69.9062 13.7501 70.2315 14.1744C70.5568 14.5987 71.0659 14.8108 71.7589 14.8108Z" fill="#2E2E38"/>
<path d="M82.8723 12.2227C82.8723 13.9481 83.8199 14.8108 85.715 14.8108C87.6101 14.8108 88.5577 13.9481 88.5577 12.2227C88.5577 10.4832 87.6101 9.61337 85.715 9.61337C83.8199 9.61337 82.8723 10.4832 82.8723 12.2227Z" fill="#2E2E38"/>
<path d="M75.9587 12.9728C75.9587 14.7124 75.294 15.5821 73.9646 15.5821C73.2716 15.5821 72.7624 15.37 72.4371 14.9457C72.1119 14.5214 71.9492 13.8638 71.9492 12.9728C71.9492 11.2474 72.621 10.3847 73.9646 10.3847C75.294 10.3847 75.9587 11.2474 75.9587 12.9728Z" fill="white"/>
<path d="M91.4216 12.9728C91.4216 14.7124 90.7569 15.5821 89.4275 15.5821C88.7345 15.5821 88.2253 15.37 87.9 14.9457C87.5748 14.5214 87.4121 13.8638 87.4121 12.9728C87.4121 11.2474 88.0839 10.3847 89.4275 10.3847C90.7569 10.3847 91.4216 11.2474 91.4216 12.9728Z" fill="white"/>
</svg>
