<svg width="86" height="65" viewBox="0 0 86 65" fill="none" xmlns="http://www.w3.org/2000/svg">
<path fill-rule="evenodd" clip-rule="evenodd" d="M18.5029 11.1406C24.2901 11.1406 28.7128 12.8344 31.7711 16.2221C34.8765 19.5627 36.4291 24.0325 36.4291 29.6315C36.4291 35.2305 34.8765 39.7239 31.7711 43.1115C28.7128 46.4992 24.2901 48.193 18.5029 48.193C13.6096 48.193 9.68087 46.9932 6.71668 44.5936C3.75249 42.147 1.84692 38.8064 1.00001 34.5718C1.00001 34.5718 0.656891 31.5655 0.656891 29.6315C0.656891 27.6976 1.00001 24.6912 1.00001 24.6912C1.84692 20.5037 3.75249 17.2102 6.71668 14.8106C9.68087 12.3639 13.6096 11.1406 18.5029 11.1406ZM44.1831 11.8464H55.4753V14.0342L53.358 20.3861H56.181C57.2632 17.563 58.8629 15.3281 60.9802 13.6814C63.1445 11.9875 66.2264 11.1406 70.2257 11.1406C75.166 11.1406 78.9771 12.905 81.659 16.4338C84.3408 19.9626 85.6818 24.3854 85.6818 29.7021C85.6818 35.0188 84.3408 39.4416 81.659 42.9704C78.9771 46.4521 75.166 48.193 70.2257 48.193C66.2264 48.193 63.1445 47.3696 60.9802 45.7228C58.8629 44.029 57.2632 41.7706 56.181 38.9475H53.358L55.4753 45.2994V60.8967H44.1831V11.8464ZM32.5085 29.2568C32.5085 35.044 30.2971 37.9376 25.8744 37.9376C23.5689 37.9376 21.8751 37.2318 20.7929 35.8203C19.7107 34.4088 19.1696 32.2209 19.1696 29.2568C19.1696 23.5166 21.4046 20.6465 25.8744 20.6465C30.2971 20.6465 32.5085 23.5166 32.5085 29.2568ZM77.3158 37.9376C81.7385 37.9376 83.9499 35.044 83.9499 29.2568C83.9499 23.5166 81.7385 20.6465 77.3158 20.6465C72.846 20.6465 70.6111 23.5166 70.6111 29.2568C70.6111 32.2209 71.1521 34.4088 72.2343 35.8203C73.3165 37.2318 75.0103 37.9376 77.3158 37.9376Z" fill="#17171C"/>
</svg>
