<svg width="429" height="242" viewBox="0 0 429 242" fill="none" xmlns="http://www.w3.org/2000/svg">
<path d="M272.34 241.526L156.866 241.526C160.873 227.022 178.903 101.424 215.322 76.737C216.452 75.914 217.942 75.194 219.586 74.3711C220.613 74.9883 221.64 75.6055 222.616 76.2226C250.817 93.8639 267.922 223.268 272.34 241.526Z" fill="black" stroke="black" stroke-width="0.316895" stroke-linejoin="round"/>
<path d="M428.394 241.423L272.237 241.423C267.922 223.216 250.817 93.8639 222.668 76.1712C221.641 75.554 220.562 74.8853 219.586 74.2681C232.325 68.2505 257.906 62.5417 268.693 61.9245C271.107 61.7702 272.186 57.4499 280.353 40.7344C281.483 38.3685 282.87 34.7682 284.976 31.4766L311.584 31.4766C319.238 42.9974 322.423 61.8216 324.837 62.2331C328.844 62.7988 356.017 61.6673 379.03 76.1712C407.025 93.8639 424.027 223.165 428.394 241.423Z" fill="#13B880" stroke="#13B880" stroke-width="0.633789" stroke-linejoin="round"/>
<path d="M219.329 74.2688C217.634 75.0917 216.401 75.8119 215.271 76.6348C178.852 101.374 160.822 226.971 156.815 241.424L0.607422 241.424C4.61406 226.92 22.6439 101.322 59.0633 76.6348C69.1312 69.7943 100.208 62.5423 112.382 61.8737C114.797 61.7194 115.875 57.3991 124.043 40.6836C125.173 38.3177 126.56 34.7174 128.666 31.4258L155.274 31.4258C162.928 42.9466 166.112 61.7708 168.527 62.1823C172.174 62.6966 197.087 61.7707 219.329 74.2688Z" fill="#2C29C2" stroke="#2C29C2" stroke-width="0.633789" stroke-linejoin="round"/>
<path d="M155.222 31.4768L128.614 31.4768C130.72 28.0822 133.597 24.9963 137.86 23.6076C145.411 21.036 150.959 25.0992 155.222 31.4768Z" fill="#13B880"/>
<path d="M311.43 31.4768L284.822 31.4768C286.928 28.0822 289.805 24.9963 294.068 23.6076C301.619 21.036 307.218 25.0992 311.43 31.4768Z" fill="#2C29C2"/>
<path d="M141.354 54.7239C155.595 54.7239 167.14 42.4736 167.14 27.362C167.14 12.2504 155.595 0 141.354 0C127.112 0 115.567 12.2504 115.567 27.362C115.567 42.4736 127.112 54.7239 141.354 54.7239Z" fill="#13B880"/>
<path d="M297.921 54.7239C312.049 54.7239 323.502 42.4736 323.502 27.362C323.502 12.2504 312.049 0 297.921 0C283.793 0 272.34 12.2504 272.34 27.362C272.34 42.4736 283.793 54.7239 297.921 54.7239Z" fill="#2C29C2"/>
<path d="M85.1066 112.482C73.3435 153.217 66.5631 200.174 58.0361 235.508" stroke="black" stroke-width="3.33893" stroke-miterlimit="10" stroke-linecap="round" stroke-linejoin="round"/>
<path d="M349.647 112.482C362.695 154.708 371.016 188.293 377.797 237.566" stroke="black" stroke-width="3.33893" stroke-miterlimit="10" stroke-linecap="round" stroke-linejoin="round"/>
</svg>
