<svg xmlns="http://www.w3.org/2000/svg">


<symbol id="icon-menu" viewBox="0 0 20 20" fill="none">
  <line x1="3" y1="6" x2="17" y2="6" stroke-width="2"/>
  <line x1="3" y1="10" x2="17" y2="10" stroke-width="2"/>
  <line x1="3" y1="14" x2="17" y2="14" stroke-width="2"/>
</symbol>


<symbol id="icon-return" viewBox="0 0 44 24">
  <path d="M1.29289 11.2929C0.90237 11.6834 0.90237 12.3166 1.29289 12.7071L7.65685 19.0711C8.04738 19.4616 8.68054 19.4616 9.07107 19.0711C9.46159 18.6805 9.46159 18.0474 9.07107 17.6569L3.41422 12L9.07107 6.34315C9.46159 5.95262 9.46159 5.31946 9.07107 4.92893C8.68054 4.53841 8.04738 4.53841 7.65685 4.92893L1.29289 11.2929ZM42 11L2 11V13L42 13V11Z"/>
</symbol>



<symbol id="icon-profile" viewBox="0 0 24 24" >
  <path d="M15.7105 12.71C16.6909 11.9387 17.4065 10.8809 17.7577 9.68394C18.109 8.48697 18.0784 7.21027 17.6703 6.03147C17.2621 4.85267 16.4967 3.83039 15.4806 3.10686C14.4644 2.38332 13.2479 1.99451 12.0005 1.99451C10.753 1.99451 9.5366 2.38332 8.52041 3.10686C7.50423 3.83039 6.73883 4.85267 6.3307 6.03147C5.92257 7.21027 5.892 8.48697 6.24325 9.68394C6.59449 10.8809 7.31009 11.9387 8.29048 12.71C6.61056 13.383 5.14477 14.4994 4.04938 15.9399C2.95398 17.3805 2.27005 19.0913 2.07048 20.89C2.05604 21.0213 2.0676 21.1542 2.10451 21.2811C2.14142 21.4079 2.20295 21.5263 2.2856 21.6293C2.4525 21.8375 2.69527 21.9708 2.96049 22C3.2257 22.0292 3.49164 21.9518 3.69981 21.7849C3.90798 21.618 4.04131 21.3752 4.07049 21.11C4.29007 19.1552 5.22217 17.3498 6.6887 16.0388C8.15524 14.7278 10.0534 14.003 12.0205 14.003C13.9876 14.003 15.8857 14.7278 17.3523 16.0388C18.8188 17.3498 19.7509 19.1552 19.9705 21.11C19.9977 21.3557 20.1149 21.5827 20.2996 21.747C20.4843 21.9114 20.7233 22.0015 20.9705 22H21.0805C21.3426 21.9698 21.5822 21.8373 21.747 21.6313C21.9119 21.4252 21.9886 21.1624 21.9605 20.9C21.76 19.0962 21.0724 17.381 19.9713 15.9382C18.8703 14.4954 17.3974 13.3795 15.7105 12.71ZM12.0005 12C11.2094 12 10.436 11.7654 9.7782 11.3259C9.12041 10.8864 8.60772 10.2616 8.30497 9.53074C8.00222 8.79983 7.923 7.99557 8.07734 7.21964C8.23168 6.44372 8.61265 5.73099 9.17206 5.17158C9.73147 4.61217 10.4442 4.2312 11.2201 4.07686C11.996 3.92252 12.8003 4.00173 13.5312 4.30448C14.2621 4.60724 14.8868 5.11993 15.3264 5.77772C15.7659 6.43552 16.0005 7.20888 16.0005 8C16.0005 9.06087 15.5791 10.0783 14.8289 10.8284C14.0788 11.5786 13.0614 12 12.0005 12Z"/>
</symbol>


<symbol id="icon-search" viewBox="0 0 24 24">
  <path d="M21.07 16.83L19 14.71C18.5547 14.2868 17.9931 14.0063 17.3872 13.9047C16.7813 13.8032 16.1589 13.8851 15.6 14.14L14.7 13.24C15.7605 11.8229 16.2449 10.0567 16.0555 8.29684C15.8662 6.537 15.0172 4.91423 13.6794 3.7552C12.3417 2.59618 10.6145 1.98696 8.84565 2.05019C7.07678 2.11341 5.39754 2.84439 4.14596 4.09597C2.89438 5.34755 2.1634 7.0268 2.10017 8.79567C2.03695 10.5645 2.64617 12.2917 3.80519 13.6294C4.96421 14.9672 6.58699 15.8162 8.34683 16.0055C10.1067 16.1949 11.8729 15.7106 13.29 14.65L14.18 15.54C13.8951 16.0996 13.793 16.7346 13.8881 17.3553C13.9831 17.9761 14.2706 18.5513 14.71 19L16.83 21.12C17.3925 21.6818 18.155 21.9974 18.95 21.9974C19.745 21.9974 20.5075 21.6818 21.07 21.12C21.3557 20.8406 21.5828 20.5069 21.7378 20.1386C21.8928 19.7702 21.9726 19.3746 21.9726 18.975C21.9726 18.5754 21.8928 18.1798 21.7378 17.8114C21.5828 17.4431 21.3557 17.1094 21.07 16.83ZM12.59 12.59C11.8902 13.288 10.9993 13.7629 10.0297 13.9549C9.06017 14.1468 8.05549 14.047 7.14259 13.6682C6.2297 13.2894 5.44955 12.6485 4.9007 11.8265C4.35185 11.0046 4.05893 10.0384 4.05893 9.05C4.05893 8.06163 4.35185 7.09544 4.9007 6.27347C5.44955 5.45149 6.2297 4.81062 7.14259 4.43182C8.05549 4.05301 9.06017 3.95325 10.0297 4.14515C10.9993 4.33706 11.8902 4.812 12.59 5.51C13.0556 5.97446 13.4251 6.52621 13.6771 7.13367C13.9292 7.74112 14.0589 8.39233 14.0589 9.05C14.0589 9.70768 13.9292 10.3589 13.6771 10.9663C13.4251 11.5738 13.0556 12.1255 12.59 12.59ZM19.66 19.66C19.567 19.7537 19.4564 19.8281 19.3346 19.8789C19.2127 19.9297 19.082 19.9558 18.95 19.9558C18.818 19.9558 18.6873 19.9297 18.5654 19.8789C18.4436 19.8281 18.333 19.7537 18.24 19.66L16.12 17.54C16.0263 17.447 15.9519 17.3364 15.9011 17.2146C15.8503 17.0927 15.8242 16.962 15.8242 16.83C15.8242 16.698 15.8503 16.5673 15.9011 16.4454C15.9519 16.3236 16.0263 16.213 16.12 16.12C16.213 16.0263 16.3236 15.9519 16.4454 15.9011C16.5673 15.8503 16.698 15.8242 16.83 15.8242C16.962 15.8242 17.0927 15.8503 17.2146 15.9011C17.3364 15.9519 17.447 16.0263 17.54 16.12L19.66 18.24C19.7537 18.333 19.8281 18.4436 19.8789 18.5654C19.9296 18.6873 19.9558 18.818 19.9558 18.95C19.9558 19.082 19.9296 19.2127 19.8789 19.3346C19.8281 19.4564 19.7537 19.567 19.66 19.66Z"/>
</symbol>


</svg>
