<svg width="320" height="240" viewBox="0 0 320 240" fill="none" xmlns="http://www.w3.org/2000/svg">
<path d="M197.065 158.595C180.568 172.97 156.13 176.039 136.12 164.487C116.111 152.934 106.549 130.236 110.75 108.762" stroke="#F6DFDF" stroke-width="5"/>
<path d="M313.423 210.231C309.942 216.261 238.632 182.822 154.797 134.419C70.9616 86.017 6.3476 40.9805 9.82875 34.951C12.1322 30.9613 43.9037 44.6514 89.4255 68.3939C112.699 80.5326 157.713 53.7306 190.465 72.6401C226.657 93.5356 216.721 140.435 237.212 153.31C284.771 183.195 315.856 206.017 313.423 210.231Z" stroke="#F6DFDF" stroke-width="5"/>
<path d="M195.977 138.995C184.999 158.01 160.685 164.525 141.671 153.547C122.656 142.569 116.141 118.255 127.119 99.2405C138.097 80.2261 162.411 73.7112 181.426 84.6892C200.44 95.6672 206.955 119.981 195.977 138.995Z" stroke="#17171C" stroke-width="2"/>
<path d="M116.275 111.813C113.366 130.312 121.845 149.526 139.033 159.45C156.221 169.373 177.101 167.11 191.666 155.34" stroke="#17171C" stroke-width="2"/>
<path d="M122.549 115.672C121.316 130.516 128.524 145.443 142.279 153.385C156.034 161.326 172.565 160.105 184.804 151.615" stroke="#17171C" stroke-width="2"/>
<path d="M197.065 158.595C180.568 172.97 156.13 176.039 136.12 164.487C116.111 152.934 106.549 130.236 110.75 108.762" stroke="#17171C" stroke-width="2"/>
<circle cx="161.553" cy="119.389" r="31.4296" transform="rotate(30 161.553 119.389)" fill="black"/>
<path d="M313.423 210.231C309.942 216.261 238.632 182.822 154.797 134.419C70.9616 86.017 6.3476 40.9805 9.82875 34.951C12.1322 30.9613 43.9037 44.6514 89.4255 68.3939C112.699 80.5326 157.713 53.7306 190.465 72.6401C226.657 93.5356 216.721 140.435 237.212 153.31C284.771 183.195 315.856 206.017 313.423 210.231Z" stroke="#383737" stroke-width="2"/>
<path d="M296.427 200.603C293.756 205.228 236.085 176.931 156.544 131.008C77.0041 85.0857 23.662 49.2892 26.3325 44.6638C28.0996 41.6032 48.9041 50.0452 91.894 72.9173C118.726 88.4085 155.01 58.1266 187.542 77.3185C219.224 96.009 207.098 139.117 232.077 153.539C277.391 181.562 298.293 197.37 296.427 200.603Z" stroke="#383737" stroke-width="2"/>
<path d="M274.362 187.842C272.264 191.476 220.402 164.248 157.876 128.149C95.3511 92.0496 45.8393 60.7502 47.9375 57.1159C49.3259 54.7112 72.7332 65.4208 106.527 83.4007C123.804 92.5933 159.157 66.1814 185.337 83.0032C209.695 98.6537 201.375 137.286 216.722 146.776C252.343 168.805 275.829 185.302 274.362 187.842Z" stroke="#383737" stroke-width="2"/>
<path d="M262.534 180.996C261.294 183.144 215.86 158.019 159.281 125.354C102.703 92.688 58.2269 65.903 59.4667 63.7555C60.2872 62.3345 79.6502 73.0709 110.021 89.7011C125.549 98.2037 155.867 72.5522 181.291 87.2308C205.071 100.96 195.73 138.667 209.703 147.107C242.134 166.695 263.401 179.496 262.534 180.996Z" stroke="#383737" stroke-width="2"/>
<path d="M225.449 202.619L231.621 212.066L238.314 212.49L233.019 215.947L234.788 226.658L229.674 217.089L223.06 216.615L228.02 213.264L225.449 202.619Z" fill="#FECA00"/>
<path d="M123.997 195.498L121.949 199.128L122.813 201.304L120.938 200.263L117.837 202.74L120.081 199.419L119.244 197.26L121.036 198.214L123.997 195.498Z" fill="#FECA00"/>
<path d="M34.8289 92.5094L50.1578 91.0551L54.9924 86.1215L55.7205 91.3213L69.7213 93.6395L54.9298 94.2493L50.0862 99.1062L49.2687 94.1968L34.8289 92.5094Z" fill="#2C29C2"/>
<path d="M263.046 111.58L267.135 110.629L268.158 108.486L268.666 110.611L272.617 111.244L268.625 111.835L267.595 113.946L267.08 111.943L263.046 111.58Z" fill="#FE5B00"/>
<path d="M201.479 65.2897L203.751 66.3117L206.035 64.0717L204.297 67.1373L205.095 70.1589L203.181 68.7182L200.922 70.9132L202.548 68.0032L201.479 65.2897Z" fill="#383737"/>
<path d="M122.123 57.1003L121.041 53.0441L118.867 52.0899L120.974 51.5144L121.481 47.5447L122.199 51.5164L124.342 52.4786L122.357 53.0572L122.123 57.1003Z" fill="#C34905"/>
<path d="M79.1621 146.959L73.2426 147.089C72.2245 147.112 71.3853 147.895 71.2926 148.909V148.909C71.2 149.921 70.3639 150.703 69.3479 150.728L65.2086 150.83C64.1912 150.855 63.354 151.639 63.2612 152.652V152.652C63.1685 153.665 62.3313 154.449 61.314 154.474L57.2245 154.575C56.2024 154.6 55.3579 155.38 55.2521 156.397V156.397C55.1463 157.414 54.3019 158.194 53.2798 158.22L47.4056 158.365" stroke="black" stroke-width="2" stroke-miterlimit="10" stroke-linecap="round" stroke-linejoin="round"/>
<path d="M164.264 34.4292L161.644 36.8695L163.925 39.5929L161.32 42.0484L163.601 44.7719L161.011 47.2132L163.277 49.9508L160.686 52.3921" stroke="black" stroke-miterlimit="10" stroke-linecap="round" stroke-linejoin="round"/>
</svg>
