<svg width="789" height="605" viewBox="0 0 789 605" fill="none" xmlns="http://www.w3.org/2000/svg">
<path d="M417.412 110.097L474.879 176.687" stroke="#13B880" stroke-width="2.5" stroke-linecap="round" stroke-linejoin="round"/>
<path d="M368.604 114.336L345.636 144.247" stroke="#13B880" stroke-width="2.5" stroke-linecap="round" stroke-linejoin="round"/>
<path d="M227.325 291.33L211.197 310.653" stroke="#13B880" stroke-width="2.5" stroke-linecap="round" stroke-linejoin="round"/>
<path d="M471.455 153.653L493.053 178.136" stroke="#13B880" stroke-width="2.5" stroke-linecap="round" stroke-linejoin="round"/>
<path d="M408.336 118.771L373.774 127.625L24.9033 564.911L770.878 561.697L408.336 118.771Z" fill="#13B880"/>
<path d="M420.891 139.52L389.54 121.197L355.553 181.799L386.903 200.131L420.891 139.52Z" fill="white" stroke="black" stroke-width="2.5" stroke-linecap="round" stroke-linejoin="round"/>
<path d="M381.285 177.842C382.307 176.983 382.421 175.435 381.54 174.386C380.66 173.337 379.117 173.182 378.095 174.042C377.074 174.901 376.959 176.448 377.84 177.497C378.721 178.546 380.263 178.701 381.285 177.842Z" fill="black"/>
<path d="M386.624 172.199C387.652 171.344 387.774 169.795 386.898 168.74C386.022 167.685 384.478 167.522 383.451 168.377C382.423 169.232 382.3 170.78 383.177 171.836C384.053 172.891 385.597 173.053 386.624 172.199Z" fill="black"/>
<path d="M389.752 162.644C390.773 161.785 390.888 160.238 390.007 159.188C389.126 158.139 387.584 157.985 386.562 158.844C385.54 159.703 385.426 161.25 386.307 162.299C387.187 163.349 388.73 163.503 389.752 162.644Z" fill="black"/>
<path d="M393.98 155.035C395.002 154.176 395.116 152.628 394.236 151.579C393.355 150.53 391.813 150.375 390.791 151.234C389.769 152.094 389.654 153.641 390.535 154.69C391.416 155.739 392.958 155.894 393.98 155.035Z" fill="black"/>
<path d="M398.212 147.438C399.233 146.579 399.348 145.032 398.467 143.983C397.586 142.933 396.044 142.779 395.022 143.638C394 144.497 393.886 146.044 394.767 147.094C395.647 148.143 397.19 148.297 398.212 147.438Z" fill="black"/>
<path d="M169.851 582.281L150.008 514.951L176.337 482.267L193.33 539.443L169.851 582.281Z" fill="#EF1500" stroke="black" stroke-width="2.5" stroke-linecap="round" stroke-linejoin="round"/>
<path d="M249.569 523.743L192.881 539.151L176.714 482.133L232.41 465.653L249.569 523.743Z" fill="white" stroke="black" stroke-width="2.5" stroke-linecap="round" stroke-linejoin="round"/>
<path d="M205.497 497.996L150.237 514.347L170.357 582.457L225.617 566.106L205.497 497.996Z" fill="white" stroke="black" stroke-width="2.5" stroke-linecap="round" stroke-linejoin="round"/>
<path d="M225.979 565.675L206.136 498.337L232.465 465.653L249.568 523.743L225.979 565.675Z" fill="black" stroke="black" stroke-width="2.5" stroke-linecap="round" stroke-linejoin="round"/>
<path d="M185.702 553.094C195.501 553.094 203.444 545.145 203.444 535.338C203.444 525.532 195.501 517.582 185.702 517.582C175.904 517.582 167.961 525.532 167.961 535.338C167.961 545.145 175.904 553.094 185.702 553.094Z" fill="black" stroke="black" stroke-width="2.5" stroke-linecap="round" stroke-linejoin="round"/>
<path d="M185.924 545.122C191.306 545.122 195.669 540.756 195.669 535.37C195.669 529.984 191.306 525.617 185.924 525.617C180.542 525.617 176.18 529.984 176.18 535.37C176.18 540.756 180.542 545.122 185.924 545.122Z" fill="white" stroke="black" stroke-width="2.5" stroke-linecap="round" stroke-linejoin="round"/>
<path d="M182.185 545.359C186.693 545.359 190.347 541.701 190.347 537.19C190.347 532.678 186.693 529.021 182.185 529.021C177.677 529.021 174.022 532.678 174.022 537.19C174.022 541.701 177.677 545.359 182.185 545.359Z" fill="white" stroke="black" stroke-width="2.5" stroke-linecap="round" stroke-linejoin="round"/>
<path d="M604.584 405.682L513.721 480.726L568.683 547.385L659.547 472.341L604.584 405.682Z" fill="white" stroke="black" stroke-width="2.275" stroke-linecap="round" stroke-linejoin="round"/>
<path d="M523.773 492.98L614.543 418.025" stroke="black" stroke-width="2.275" stroke-linecap="round" stroke-linejoin="round"/>
<path d="M592.314 417.71L601.051 428.305" stroke="black" stroke-width="2.275" stroke-linecap="round" stroke-linejoin="round"/>
<path d="M580.792 427.037L589.521 437.632" stroke="black" stroke-width="2.275" stroke-linecap="round" stroke-linejoin="round"/>
<path d="M570.221 436.522L578.958 447.117" stroke="black" stroke-width="2.275" stroke-linecap="round" stroke-linejoin="round"/>
<path d="M603.767 412.7L602.642 421.83" stroke="black" stroke-width="2.275" stroke-linecap="round" stroke-linejoin="round"/>
<path d="M598.572 416.654L607.695 417.781" stroke="black" stroke-width="2.275" stroke-linecap="round" stroke-linejoin="round"/>
<path d="M577.974 438.255L581.673 435.206" stroke="black" stroke-width="2.275" stroke-linecap="round" stroke-linejoin="round"/>
<path d="M591.549 424.522L587.664 427.731L590.399 431.049L594.285 427.84L591.549 424.522Z" stroke="black" stroke-width="2.275" stroke-linecap="round" stroke-linejoin="round"/>
<path d="M612.92 430.75L536.578 493.8L570.034 534.375L646.375 471.325L612.92 430.75Z" fill="#13B880"/>
<path d="M191.771 340.62C192.196 349.695 191.708 377.771 193.589 382.544C194.172 384.017 194.935 386.782 196.454 387.562C200.555 389.65 202.924 390.264 205.789 394.384C206.38 395.235 204.113 397.268 203.483 398.024C203.357 398.166 210.504 395.401 210.339 395.519C209.324 396.228 200.894 401.703 200.162 400.686C197.934 397.488 195.935 396.165 192.165 394.235C190.638 393.447 189.803 389.13 188.709 386.814C186.537 382.135 163.766 349.332 163.766 349.332L178.414 358.273L176.611 341.73L184.97 356.06L191.771 340.62Z" fill="#EF1500"/>
<path d="M200.761 448.574C217.414 448.574 230.915 435.063 230.915 418.395C230.915 401.728 217.414 388.216 200.761 388.216C184.107 388.216 170.606 401.728 170.606 418.395C170.606 435.063 184.107 448.574 200.761 448.574Z" fill="black" stroke="black" stroke-width="2.5" stroke-linecap="round" stroke-linejoin="round"/>
<path d="M198.595 378.841L181.041 384.045L184.405 395.412L201.96 390.208L198.595 378.841Z" fill="black" stroke="black" stroke-width="2.5" stroke-linecap="round" stroke-linejoin="round"/>
<path d="M440.663 111.901C440.86 121.354 417.837 134.62 392.531 135.802C366.808 137.015 345.344 123.387 345.147 113.91C344.95 104.433 355.687 63.2887 391.839 62.5245C426.149 61.7998 440.458 102.401 440.663 111.901Z" fill="#EF1500" stroke="black" stroke-width="2.5" stroke-miterlimit="10"/>
<path d="M400.751 120.009C485.011 114.866 552.345 94.7597 551.147 75.1007C549.949 55.4417 480.672 43.6742 396.413 48.8172C312.153 53.9602 244.819 74.0662 246.017 93.7252C247.215 113.384 316.492 125.152 400.751 120.009Z" fill="black" stroke="black" stroke-width="2.5" stroke-linecap="round" stroke-linejoin="round"/>
<path d="M461.356 72.7103C461.962 82.6754 432.233 92.6012 394.861 94.8779C357.489 97.1545 326.769 90.939 326.162 80.9502C325.556 70.9614 339.362 26.9256 390.532 23.8061C439.097 20.8441 460.75 62.7372 461.356 72.7103Z" fill="#EF1500" stroke="black" stroke-width="2.5" stroke-miterlimit="10"/>
<path d="M339.972 81.1814C342.776 81.1628 345.035 78.9646 345.017 76.2716C344.999 73.5786 342.712 71.4105 339.908 71.4291C337.104 71.4477 334.846 73.6459 334.863 76.339C334.881 79.032 337.169 81.2 339.972 81.1814Z" stroke="black" stroke-width="1.875" stroke-miterlimit="10"/>
<path d="M363.623 86.9167C366.427 86.8981 368.685 84.6999 368.667 82.0069C368.649 79.3138 366.362 77.1458 363.558 77.1644C360.754 77.183 358.496 79.3812 358.514 82.0743C358.532 84.7673 360.819 86.9353 363.623 86.9167Z" stroke="black" stroke-width="1.875" stroke-miterlimit="10"/>
<path d="M392.435 88.8682C395.239 88.8495 397.498 86.6513 397.48 83.9583C397.462 81.2653 395.175 79.0973 392.371 79.1159C389.567 79.1345 387.308 81.3327 387.326 84.0257C387.344 86.7187 389.632 88.8868 392.435 88.8682Z" stroke="black" stroke-width="1.875" stroke-miterlimit="10"/>
<path d="M421.851 84.49C424.655 84.4714 426.914 82.2732 426.896 79.5802C426.878 76.8872 424.591 74.7192 421.787 74.7378C418.983 74.7564 416.724 76.9546 416.742 79.6476C416.76 82.3406 419.048 84.5087 421.851 84.49Z" stroke="black" stroke-width="1.875" stroke-miterlimit="10"/>
<path d="M446.578 75.574C449.382 75.5554 451.64 73.3572 451.622 70.6642C451.604 67.9712 449.317 65.8032 446.513 65.8218C443.709 65.8404 441.451 68.0386 441.469 70.7316C441.487 73.4246 443.774 75.5926 446.578 75.574Z" stroke="black" stroke-width="1.875" stroke-miterlimit="10"/>
<path d="M556.509 345.875L614.824 330.673L600.791 276.754L542.476 291.956L556.509 345.875Z" fill="black" stroke="black" stroke-width="2.71875" stroke-linecap="round" stroke-linejoin="round"/>
<path d="M600.8 276.685L577.053 261.024L518.24 276.181L542.483 291.889L600.8 276.685Z" fill="white" stroke="black" stroke-width="2.71875" stroke-linecap="round" stroke-linejoin="round"/>
<path d="M600.627 276.725L576.88 261.064L518.067 276.22L542.318 291.936L600.627 276.725Z" fill="white" stroke="black" stroke-width="2.71875" stroke-linecap="round" stroke-linejoin="round"/>
<path d="M531.904 329.646L556.509 345.913L542.515 292.164L518.004 276.236L531.904 329.646Z" fill="#EF1500" stroke="black" stroke-width="2.5" stroke-linecap="round" stroke-linejoin="round"/>
<path d="M430.344 175.3L408.628 190.63C406.755 191.922 406.463 194.719 407.935 196.806L463.033 274.873C463.686 275.65 464.296 276.463 464.859 277.307C465.071 278.484 465.554 279.595 466.27 280.553C466.986 281.51 467.915 282.287 468.983 282.822C468.983 280.049 469.094 278.592 469.645 276.961C469.871 276.377 470.207 275.842 470.636 275.385L490.81 260.93C492.668 259.622 492.974 256.841 491.487 254.738L436.429 176.695C434.925 174.623 432.202 173.985 430.344 175.3Z" fill="white" stroke="black" stroke-width="2.5" stroke-linecap="round" stroke-linejoin="round"/>
<path d="M436.61 202.959C432.446 206.007 422.82 203.25 421.505 202.785H421.442V202.604C421.442 200.863 422.025 191.292 426.118 188.338C429.613 185.817 434.564 189.126 432.926 194.49C432.929 194.508 432.929 194.527 432.926 194.545H432.989C438.601 194.711 440.089 200.414 436.61 202.959Z" fill="#EF1500"/>
<path d="M450.361 222.369C446.197 225.418 436.571 222.668 435.256 222.204H435.193V222.03C435.193 220.289 435.776 210.71 439.869 207.764C443.364 205.243 448.314 208.552 446.677 213.908C446.681 213.929 446.681 213.951 446.677 213.971H446.74C452.352 214.129 453.84 219.832 450.361 222.369Z" fill="#EF1500"/>
<path d="M464.395 241.835C460.223 244.883 450.605 242.134 449.291 241.669H449.228V241.496C449.228 239.755 449.81 230.176 453.903 227.23C457.398 224.709 462.349 228.017 460.711 233.374C460.714 233.395 460.714 233.416 460.711 233.437H460.774C466.387 233.626 467.874 239.33 464.395 241.835Z" fill="#EF1500"/>
<path d="M478.689 260.985C474.525 264.034 464.899 261.276 463.584 260.812H463.521V260.631C463.521 258.89 464.104 249.318 468.197 246.364C471.692 243.843 476.643 247.152 475.005 252.517C475.008 252.535 475.008 252.553 475.005 252.572H475.068C480.68 252.737 482.168 258.441 478.689 260.985Z" fill="#EF1500"/>
<path d="M335.058 498.387L325.39 499.666L325.959 503.977L335.627 502.698L335.058 498.387Z" fill="black" stroke="black" stroke-width="2.5" stroke-linecap="round" stroke-linejoin="round"/>
<path d="M333.79 487.282L324.09 488.286L324.536 492.611L334.237 491.608L333.79 487.282Z" fill="black" stroke="black" stroke-width="2.5" stroke-linecap="round" stroke-linejoin="round"/>
<path d="M298.762 250.114C298.581 269.422 289.073 299.184 271.174 305.367C263.72 307.943 255.007 303.91 255.952 296.521C256.558 291.834 261.099 289.053 266.373 288.454C274.134 287.572 280.856 291.141 284.358 297.34C285.782 300.001 286.614 302.938 286.798 305.95C287.625 315.64 283.996 325.243 278.927 333.869C273.858 342.495 267.428 350.412 261.997 358.841C243.358 387.783 234.511 423.665 245.672 455.499C262.012 502.103 320.495 503.001 338.417 501.567" stroke="black" stroke-width="2.5" stroke-linecap="round" stroke-linejoin="round"/>
<path d="M338.243 490.16C326.074 490.294 278.722 499.511 261.894 447.251C254.762 425.076 261.618 399.04 275.66 381.914C285.892 369.412 299.273 361.109 313.26 355.666C328.625 349.687 344.603 349.285 360.211 344.59C370.019 341.644 379.677 337.201 387.595 329.843C395.513 322.486 401.59 311.937 402.81 300.216C404.833 280.781 393.175 262.348 378.748 252.304C362.218 240.811 344.705 239.7 326.862 248.074C309.018 256.448 301.863 275.543 309.71 289.384C319.36 306.399 346.705 307.502 366.319 275.685" stroke="black" stroke-width="2.5" stroke-linecap="round" stroke-linejoin="round"/>
<path d="M317.562 171.102L283.515 169.257L278.215 267.189L312.263 269.035L317.562 171.102Z" fill="white" stroke="black" stroke-width="2.5" stroke-linecap="round" stroke-linejoin="round"/>
<path d="M295.002 174.035L287.757 173.627L287.221 183.152L294.467 183.56L295.002 174.035Z" fill="#13B880"/>
<path d="M304.074 174.545L296.828 174.137L296.293 183.661L303.538 184.069L304.074 174.545Z" fill="#13B880"/>
<path d="M313.146 175.054L305.9 174.646L305.365 184.171L312.611 184.579L313.146 175.054Z" fill="#13B880"/>
<path d="M294.6 181.099L287.354 180.691L285.395 215.549L292.641 215.957L294.6 181.099Z" fill="#13B880"/>
<path d="M303.435 185.937L296.189 185.529L295.654 195.054L302.9 195.462L303.435 185.937Z" fill="#13B880"/>
<path d="M312.514 186.446L305.269 186.038L304.733 195.563L311.979 195.971L312.514 186.446Z" fill="#13B880"/>
<path d="M293.717 196.812L286.472 196.404L285.936 205.928L293.182 206.336L293.717 196.812Z" fill="#13B880"/>
<path d="M302.79 197.329L295.544 196.921L295.009 206.445L302.254 206.853L302.79 197.329Z" fill="#13B880"/>
<path d="M311.869 197.838L304.623 197.43L304.088 206.955L311.333 207.363L311.869 197.838Z" fill="#13B880"/>
<path d="M293.072 208.211L285.826 207.803L285.291 217.328L292.536 217.736L293.072 208.211Z" fill="#13B880"/>
<path d="M302.159 208.721L294.913 208.313L294.378 217.838L301.623 218.246L302.159 208.721Z" fill="#13B880"/>
<path d="M311.23 209.238L303.984 208.83L303.449 218.355L310.695 218.763L311.23 209.238Z" fill="#13B880"/>
<path d="M292.432 219.604L285.187 219.196L284.651 228.72L291.897 229.128L292.432 219.604Z" fill="#13B880"/>
<path d="M301.512 220.113L294.267 219.705L293.731 229.23L300.977 229.638L301.512 220.113Z" fill="#13B880"/>
<path d="M310.584 220.63L303.338 220.222L302.802 229.747L310.048 230.155L310.584 220.63Z" fill="#13B880"/>
<path d="M291.794 231.003L284.548 230.595L284.012 240.12L291.258 240.528L291.794 231.003Z" fill="#13B880"/>
<path d="M300.874 231.513L293.628 231.105L293.093 240.63L300.338 241.038L300.874 231.513Z" fill="#13B880"/>
<path d="M309.953 232.023L302.707 231.615L302.172 241.139L309.417 241.547L309.953 232.023Z" fill="#13B880"/>
<path d="M291.58 234.841L284.334 234.433L283.374 251.516L290.619 251.924L291.58 234.841Z" fill="#13B880"/>
<path d="M300.227 242.905L292.981 242.497L292.446 252.022L299.692 252.43L300.227 242.905Z" fill="#13B880"/>
<path d="M309.551 239.056L302.306 238.648L301.525 252.53L308.771 252.938L309.551 239.056Z" fill="#13B880"/>
<path d="M290.509 253.787L283.264 253.38L282.728 262.904L289.974 263.312L290.509 253.787Z" fill="#13B880"/>
<path d="M299.597 254.297L292.352 253.889L291.816 263.414L299.062 263.822L299.597 254.297Z" fill="#13B880"/>
<path d="M308.669 254.807L301.423 254.399L300.887 263.923L308.133 264.331L308.669 254.807Z" fill="#13B880"/>
<path d="M432.808 297.553L404.574 328.102C402.614 330.221 401.575 333.032 401.686 335.917C401.796 338.802 403.048 341.525 405.165 343.487L464.395 398.363C465.443 399.335 466.673 400.09 468.014 400.586C469.355 401.083 470.78 401.309 472.209 401.254C473.637 401.198 475.04 400.861 476.339 400.262C477.637 399.664 478.804 398.815 479.775 397.764L508.032 367.215C509.003 366.166 509.759 364.936 510.255 363.595C510.751 362.254 510.979 360.829 510.924 359.4C510.869 357.971 510.533 356.567 509.936 355.268C509.338 353.969 508.491 352.8 507.442 351.83L448.172 296.978C446.058 295.016 443.252 293.975 440.371 294.083C437.49 294.191 434.77 295.439 432.808 297.553ZM498.626 351.333C499.111 351.78 499.503 352.318 499.78 352.917C500.056 353.516 500.211 354.163 500.236 354.822C500.261 355.482 500.155 356.139 499.925 356.757C499.694 357.375 499.344 357.941 498.894 358.423L470.259 389.382C469.813 389.868 469.276 390.262 468.678 390.539C468.08 390.816 467.433 390.972 466.774 390.998C466.115 391.023 465.458 390.918 464.84 390.688C464.223 390.458 463.656 390.108 463.175 389.658L409.147 339.517C408.18 338.618 407.608 337.372 407.558 336.051C407.507 334.731 407.983 333.444 408.88 332.474L437.523 301.507C438.42 300.538 439.665 299.964 440.984 299.912C442.303 299.861 443.589 300.335 444.559 301.232L498.626 351.333Z" fill="black"/>
<path d="M438.113 296.663L409.588 327.504C408.608 328.561 407.845 329.802 407.344 331.156C406.843 332.509 406.613 333.947 406.668 335.389C406.723 336.831 407.061 338.248 407.664 339.56C408.266 340.871 409.121 342.05 410.179 343.03L469.999 398.41C471.056 399.39 472.296 400.151 473.648 400.651C474.999 401.151 476.436 401.38 477.876 401.325C479.316 401.269 480.731 400.93 482.04 400.327C483.349 399.724 484.526 398.869 485.505 397.811L513.983 366.97C517.918 362.189 517.131 355.154 513.314 351.546L453.611 296.064C451.471 294.1 448.641 293.06 445.739 293.173C442.837 293.285 440.096 294.539 438.113 296.663ZM504.537 350.971C505.509 351.877 506.084 353.131 506.135 354.459C506.187 355.787 505.711 357.082 504.813 358.061L475.902 389.319C474.995 390.288 473.743 390.86 472.417 390.912C471.091 390.964 469.798 390.49 468.818 389.595L414.256 339.036C413.284 338.13 412.709 336.877 412.658 335.548C412.606 334.22 413.082 332.925 413.98 331.947L442.891 300.688C443.798 299.718 445.051 299.146 446.378 299.096C447.704 299.046 448.997 299.522 449.975 300.42L504.537 350.971Z" stroke="black" stroke-width="1.875" stroke-miterlimit="10"/>
<path d="M444.559 301.255L498.626 351.333C499.111 351.78 499.503 352.318 499.78 352.917C500.056 353.516 500.211 354.163 500.236 354.822C500.261 355.482 500.155 356.139 499.925 356.757C499.694 357.375 499.344 357.942 498.893 358.423L470.258 389.382C469.813 389.868 469.276 390.262 468.678 390.539C468.08 390.816 467.432 390.972 466.774 390.998C466.115 391.023 465.458 390.918 464.84 390.688C464.222 390.458 463.656 390.108 463.174 389.658L409.147 339.517C408.179 338.618 407.607 337.372 407.557 336.051C407.507 334.731 407.983 333.444 408.88 332.474L437.522 301.508C438.423 300.541 439.669 299.972 440.989 299.924C442.308 299.877 443.592 300.356 444.559 301.255Z" fill="white"/>
<path d="M489.055 381C490.785 381 492.187 379.597 492.187 377.865C492.187 376.134 490.785 374.73 489.055 374.73C487.324 374.73 485.922 376.134 485.922 377.865C485.922 379.597 487.324 381 489.055 381Z" stroke="#13B880" stroke-width="1.875" stroke-miterlimit="10"/>
<path d="M471.211 400.757L475.619 401.183" stroke="black" stroke-width="1.875" stroke-linecap="round" stroke-linejoin="round"/>
<path d="M437.46 295.867L441.946 293.969" stroke="black" stroke-width="1.875" stroke-linecap="round" stroke-linejoin="round"/>
<path d="M424.613 325.692L432.917 316.719" stroke="black" stroke-width="1.875" stroke-linecap="round" stroke-linejoin="round"/>
<path d="M485.614 364.166L492.73 356.469" stroke="black" stroke-width="1.875" stroke-linecap="round" stroke-linejoin="round"/>
<path d="M466.74 384.569L488.362 361.196" stroke="black" stroke-width="1.875" stroke-linecap="round" stroke-linejoin="round"/>
<path d="M427.715 332.86L464.67 326.393L449.919 318.31L445.826 365.765L467.55 337.02L428.872 342.109L464.292 374.438L476.358 342.802" stroke="#2C29C2" stroke-width="1.875" stroke-linecap="round" stroke-linejoin="round"/>
<path d="M403.252 248.838L387.258 238.684L371.516 228.695C373.206 227.252 375 225.935 376.884 224.756C379.509 223.12 382.317 221.798 385.251 220.817C388.667 219.714 392.248 219.407 395.625 220.817C396.263 221.083 396.877 221.405 397.459 221.778C405.519 226.702 405.519 238.502 403.252 248.838Z" fill="#EF1500"/>
<path d="M383.518 275.984C377.891 278.15 371.184 277.189 366.115 274.369C361.046 271.549 356.828 266.736 355.474 260.977C354.206 255.565 356.41 250.004 359.275 245.482C362.928 239.716 367.147 234.209 372.42 229.853L401.834 248.137C400.88 252.357 399.479 256.463 397.655 260.386C394.869 266.192 391.445 272.943 383.518 275.984Z" fill="white" stroke="black" stroke-width="2.5" stroke-linecap="round" stroke-linejoin="round"/>
<path d="M391.594 231.641L387.328 238.006" stroke="black" stroke-width="2.5" stroke-linecap="round" stroke-linejoin="round"/>
<path d="M444.04 558.892L395.633 565.785L405.936 559.058L454.343 552.165L444.04 558.892Z" fill="white" stroke="black" stroke-width="2.5" stroke-linecap="round" stroke-linejoin="round"/>
<path d="M463.024 556.954L458.892 529.146L469.911 526.689L473.673 552.039" fill="white"/>
<path d="M463.024 556.954L458.892 529.146L469.911 526.689L473.673 552.039" stroke="black" stroke-width="2.5" stroke-linecap="round" stroke-linejoin="round"/>
<path d="M459.766 533.337L463.142 556.112L510.762 549.03L513.187 565.344L398.135 582.47L395.711 566.148L443.866 558.987L440.481 536.213L338.362 551.409L320.062 428.195L549.197 394.093L567.505 517.307L459.766 533.337Z" fill="black" stroke="black" stroke-width="2.5" stroke-linecap="round" stroke-linejoin="round"/>
<path d="M567.536 517.173L548.229 394.235L556.627 384.372L574.699 506.041L567.536 517.173Z" fill="black" stroke="black" stroke-width="2.5" stroke-linecap="round" stroke-linejoin="round"/>
<path d="M513.675 565.265L511.259 548.99L518.445 542.72L520.633 557.443L513.675 565.265Z" fill="white" stroke="black" stroke-width="2.5" stroke-linecap="round" stroke-linejoin="round"/>
<path d="M511.243 548.896L462.82 555.789L473.124 549.053L518.437 542.625L511.243 548.896Z" fill="white" stroke="black" stroke-width="2.5" stroke-linecap="round" stroke-linejoin="round"/>
<path d="M328.052 418.309L319.952 427.455L549.088 393.36L556.573 384.301L328.052 418.309Z" fill="#13B880" stroke="black" stroke-width="2.5" stroke-linecap="round" stroke-linejoin="round"/>
<path d="M548.607 390.973L567.396 517.425" stroke="#13B880" stroke-width="2.5" stroke-linecap="round" stroke-linejoin="round"/>
<path d="M545.443 398.366L324.671 431.23L341.698 545.802L562.47 512.938L545.443 398.366Z" fill="white" stroke="black" stroke-width="2.5" stroke-linecap="round" stroke-linejoin="round"/>
<path d="M525.635 414.073L348.329 440.466L361.89 531.717L539.196 505.323L525.635 414.073Z" fill="white" stroke="black" stroke-width="2.5" stroke-linecap="round" stroke-linejoin="round"/>
<path d="M521.671 439.882L364.942 463.649L373.632 521.048L530.36 497.282L521.671 439.882Z" fill="#EF1500"/>
<path d="M350.807 457.728L527.993 431.362" stroke="black" stroke-width="2.5" stroke-miterlimit="10"/>
<path d="M508.709 417.387L511.047 433.134" stroke="black" stroke-width="2.5" stroke-miterlimit="10"/>
<path d="M492.227 419.624L494.564 435.372" stroke="black" stroke-width="2.5" stroke-miterlimit="10"/>
<path d="M475.115 421.956L477.453 437.703" stroke="black" stroke-width="2.5" stroke-miterlimit="10"/>
<path d="M520.595 420.727L515.88 427.202" stroke="black" stroke-width="2.5" stroke-linecap="round" stroke-linejoin="round"/>
<path d="M515.061 421.594L521.531 426.304" stroke="black" stroke-width="2.5" stroke-linecap="round" stroke-linejoin="round"/>
<path d="M481.719 429.503L488.126 428.55" stroke="black" stroke-width="2.5" stroke-linecap="round" stroke-linejoin="round"/>
<path d="M502.953 425.558L499.925 426.009L500.232 428.074L503.26 427.623L502.953 425.558Z" fill="black" stroke="black" stroke-width="2.5" stroke-linecap="round" stroke-linejoin="round"/>
<path d="M378.497 472.412C391.642 470.285 392.988 478.667 406.132 476.54C419.277 474.413 417.939 466.039 431.06 463.936C444.181 461.832 445.551 470.191 458.688 468.064C471.825 465.937 470.494 457.563 483.623 455.459C496.752 453.356 498.114 461.714 511.251 459.587" stroke="black" stroke-width="2.275" stroke-linecap="round" stroke-linejoin="round"/>
<path d="M381.087 489.073C394.224 486.946 395.578 495.328 408.714 493.201C421.851 491.074 420.521 482.7 433.642 480.597C446.763 478.494 448.133 486.828 461.246 484.709C474.359 482.59 473.053 474.208 486.174 472.105C499.295 470.001 500.672 478.36 513.809 476.233" stroke="black" stroke-width="2.275" stroke-linecap="round" stroke-linejoin="round"/>
<path d="M383.322 504.671C396.467 502.544 397.813 510.926 410.958 508.799C424.102 506.672 422.764 498.298 435.885 496.195C449.007 494.091 450.376 502.449 463.513 500.322C476.65 498.195 475.32 489.822 488.449 487.718C501.578 485.615 502.939 493.973 516.076 491.846" stroke="black" stroke-width="2.275" stroke-linecap="round" stroke-linejoin="round"/>
<path d="M333.734 379.953C328.421 385.152 323.242 389.996 323.242 389.996C323.242 389.996 322.329 379.401 324.328 371.366C327.666 357.974 338.26 341.612 338.26 341.612L354.884 351.436C354.884 351.436 339.457 374.359 333.734 379.953Z" fill="white"/>
<path d="M355.482 352.113L347.776 347.198L365.494 320.595L372.964 325.574L355.482 352.113Z" fill="black"/>
</svg>
