<svg width="55" height="55" viewBox="0 0 55 55" fill="none" xmlns="http://www.w3.org/2000/svg">
<path d="M19.4054 19.2374L19.4002 19.2416L19.3953 19.2464L19.4054 19.2374ZM42.2169 18.81C42.0574 18.6563 41.8805 18.5219 41.6898 18.4094C41.4198 18.2505 41.1201 18.1486 40.8092 18.1102C40.4983 18.0717 40.1828 18.0974 39.8822 18.1857C39.5816 18.274 39.3023 18.4231 39.0617 18.6236C38.821 18.8241 38.624 19.0719 38.4828 19.3516C37.6934 20.9069 36.6047 22.2911 35.2791 23.4246C35.4818 22.2825 35.584 21.1248 35.5845 19.9647C35.5888 16.4358 34.6579 12.9688 32.8865 9.91662C31.1151 6.86447 28.5665 4.33624 25.5003 2.58933C25.1625 2.39785 24.7817 2.29533 24.3934 2.29138C24.0052 2.28743 23.6223 2.38218 23.2807 2.56674C22.9391 2.7513 22.65 3.01962 22.4405 3.34652C22.231 3.67342 22.1079 4.04819 22.083 4.43566C21.9547 6.60855 21.3867 8.7328 20.4132 10.6797C19.4398 12.6266 18.0812 14.3556 16.4199 15.7619L15.8917 16.1916C14.1544 17.3605 12.6167 18.8016 11.3375 20.4594C9.34903 22.9644 7.97158 25.8983 7.31435 29.0283C6.65713 32.1583 6.73821 35.3985 7.55117 38.4917C8.36413 41.585 9.8866 44.4463 11.9979 46.8487C14.1091 49.2512 16.7511 51.1287 19.7142 52.3323C20.0621 52.4745 20.4397 52.5289 20.8136 52.4906C21.1875 52.4524 21.5462 52.3227 21.8582 52.1131C22.1701 51.9034 22.4256 51.6202 22.6023 51.2885C22.7789 50.9567 22.8711 50.5866 22.8709 50.2108C22.8693 49.9676 22.8308 49.7262 22.7568 49.4946C22.2441 47.5674 22.0964 45.5612 22.3215 43.5797C24.4899 47.6696 27.9708 50.9116 32.2043 52.7844C32.721 53.0156 33.3052 53.0467 33.8436 52.8717C37.1884 51.7921 40.2017 49.8752 42.597 47.303C44.9923 44.7309 46.6901 41.589 47.5292 38.1759C48.3682 34.7628 48.3206 31.1918 47.3908 27.8023C46.461 24.4128 44.68 21.3173 42.2169 18.81ZM33.2684 48.2145C31.2708 47.2021 29.5086 45.7806 28.0965 44.0424C26.6843 42.3043 25.6538 40.2884 25.0719 38.1258C24.8942 37.3976 24.7567 36.6602 24.6601 35.9169C24.5946 35.4436 24.3829 35.0025 24.0545 34.6554C23.726 34.3083 23.2974 34.0726 22.8283 33.9811C22.6839 33.9526 22.5369 33.9384 22.3897 33.9386C21.9869 33.9384 21.5912 34.0445 21.2425 34.2461C20.8938 34.4476 20.6044 34.7376 20.4035 35.0867C18.502 38.3663 17.5458 42.1084 17.6407 45.8982C15.9683 44.598 14.5707 42.9787 13.5287 41.1343C12.4868 39.2899 11.8212 37.257 11.5707 35.1535C11.3202 33.05 11.4896 30.9177 12.0693 28.8802C12.6489 26.8426 13.6271 24.9404 14.9473 23.2837C15.9497 21.9817 17.159 20.8529 18.5269 19.9425C18.5861 19.9042 18.6429 19.8624 18.697 19.8171C18.697 19.8171 19.3769 19.2546 19.4002 19.2417C22.6651 16.4802 24.9873 12.7689 26.0431 8.62512C28.54 10.9334 30.205 14.0014 30.7794 17.353C31.3538 20.7045 30.8056 24.1519 29.2199 27.1599C29.0104 27.5613 28.9244 28.0157 28.9729 28.4659C29.0213 28.916 29.202 29.3418 29.4922 29.6894C29.7823 30.037 30.1689 30.2909 30.6032 30.419C31.0374 30.5472 31.4999 30.5438 31.9323 30.4095C35.4426 29.3091 38.5316 27.1597 40.7834 24.2506C42.1367 26.2496 43.0215 28.5282 43.3718 30.9167C43.7221 33.3052 43.5289 35.742 42.8066 38.0454C42.0842 40.3488 40.8514 42.4595 39.1999 44.2203C37.5484 45.981 35.5208 47.3463 33.2683 48.2146L33.2684 48.2145Z" fill="#DE2727"/>
</svg>
