<svg width="115" height="34" viewBox="0 0 115 34" fill="none" xmlns="http://www.w3.org/2000/svg">
<path fill-rule="evenodd" clip-rule="evenodd" d="M0.399414 8.0799C0.399414 5.85949 1.09241 4.028 2.4784 2.58544C3.87853 1.12874 5.74537 0.400391 8.07892 0.400391C10.1579 0.400391 11.848 0.937815 13.1491 2.01266C14.4644 3.07337 15.2352 4.53007 15.4614 6.38277H12.0672C11.8975 5.42106 11.459 4.67857 10.7519 4.15529C10.0448 3.63201 9.16792 3.37037 8.12135 3.37037C6.79193 3.37037 5.7383 3.78051 4.96045 4.60079C4.1826 5.40692 3.79367 6.56663 3.79367 8.0799C3.79367 9.59317 4.1826 10.76 4.96045 11.5802C5.7383 12.4005 6.79193 12.8106 8.12135 12.8106C9.16792 12.8106 10.0448 12.549 10.7519 12.0257C11.459 11.4883 11.8975 10.7387 12.0672 9.77703H15.4614C15.2352 11.6439 14.4644 13.1147 13.1491 14.1896C11.848 15.2503 10.1579 15.7806 8.07892 15.7806C5.74537 15.7806 3.87853 15.0593 2.4784 13.6168C1.09241 12.1601 0.399414 10.3145 0.399414 8.0799ZM16.7243 10.074C16.7243 8.40518 17.2405 7.08284 18.273 6.10699C19.3195 5.13114 20.6843 4.64321 22.3673 4.64321C24.0503 4.64321 25.4151 5.117 26.4616 6.06456C27.5082 6.99798 28.0315 8.26376 28.0315 9.86189V10.9226H19.9065C19.9065 11.559 20.1398 12.0682 20.6065 12.45C21.0874 12.8319 21.7945 13.0228 22.7279 13.0228C23.3361 13.0228 23.8452 12.9167 24.2553 12.7046C24.6655 12.4924 24.9201 12.1884 25.0191 11.7924H28.4133C28.3567 12.2025 28.2012 12.6339 27.9466 13.0864C27.692 13.5249 27.3385 13.9491 26.8859 14.3593C26.4475 14.7694 25.8605 15.1088 25.1251 15.3776C24.4038 15.6463 23.6048 15.7806 22.7279 15.7806C20.7762 15.7806 19.2842 15.2361 18.2518 14.1471C17.2335 13.0581 16.7243 11.7004 16.7243 10.074ZM19.9065 9.01332H24.8493C24.8493 8.56075 24.6513 8.1789 24.2553 7.86776C23.8735 7.55662 23.2441 7.40105 22.3673 7.40105C21.4904 7.40105 20.8611 7.55662 20.4792 7.86776C20.0974 8.16476 19.9065 8.54661 19.9065 9.01332ZM37.463 15.5685H41.133L37.6963 9.52246L38.9904 7.82533H40.7087V4.85536H38.7994C37.7387 4.85536 36.9892 5.14528 36.5508 5.72513L34.4081 8.61025H33.4959V4.85536H30.1017V15.5685H33.4959V11.5802H34.5778C34.8465 11.5802 35.0445 11.5732 35.1718 11.559L37.463 15.5685ZM47.9557 7.16769C51.4065 7.16769 53.1319 8.56782 53.1319 11.3681C53.1319 14.1684 51.4065 15.5685 47.9557 15.5685H43.034V4.85536H46.4282V7.16769H47.9557ZM46.4282 12.5985H47.7435C48.5072 12.5985 49.0305 12.5207 49.3134 12.3652C49.5962 12.2096 49.7376 11.8772 49.7376 11.3681C49.7376 10.8589 49.5962 10.5266 49.3134 10.371C49.0305 10.2155 48.5072 10.1377 47.7435 10.1377H46.4282V12.5985ZM69.7462 6.17063C68.8269 5.15235 67.4975 4.64321 65.7579 4.64321C64.2871 4.64321 63.1062 5.01093 62.2152 5.74635C61.3242 6.46763 60.7514 7.45762 60.4968 8.71632H58.8634V4.85536H55.4691V15.5685H58.8634V11.6863H60.4968C60.7514 12.9591 61.3242 13.9633 62.2152 14.6987C63.1062 15.42 64.2871 15.7806 65.7579 15.7806C67.4975 15.7806 68.8269 15.2715 69.7462 14.2532C70.6796 13.2349 71.1463 11.8843 71.1463 10.2013C71.1463 8.51833 70.6796 7.17477 69.7462 6.17063ZM73.4771 4.85536H76.8713V5.51299L76.2349 7.42226H77.0835C77.4088 6.5737 77.8896 5.90192 78.526 5.40692C79.1766 4.89778 80.1029 4.64321 81.3051 4.64321C82.7901 4.64321 83.9356 5.17357 84.7418 6.23427C85.5479 7.29498 85.951 8.6244 85.951 10.2225C85.951 11.8207 85.5479 13.1501 84.7418 14.2108C83.9356 15.2573 82.7901 15.7806 81.3051 15.7806C80.1029 15.7806 79.1766 15.5331 78.526 15.0381C77.8896 14.529 77.4088 13.8501 77.0835 13.0016H76.2349L76.8713 14.9108V19.5992H73.4771V4.85536ZM100.132 4.85536H96.7378V8.71632H91.6889V4.85536H88.2946V15.5685H91.6889V11.6863H96.7378V15.5685H100.132V4.85536ZM103.95 6.08577C105.081 5.12407 106.531 4.64321 108.299 4.64321C110.067 4.64321 111.509 5.12407 112.627 6.08577C113.758 7.03334 114.324 8.40518 114.324 10.2013C114.324 11.9974 113.758 13.3764 112.627 14.3381C111.509 15.2998 110.067 15.7806 108.299 15.7806C106.531 15.7806 105.081 15.3068 103.95 14.3593C102.819 13.3976 102.253 12.0116 102.253 10.2013C102.253 8.40518 102.819 7.03334 103.95 6.08577ZM105.647 10.2013C105.647 11.0782 105.88 11.7358 106.347 12.1742C106.814 12.5985 107.464 12.8106 108.299 12.8106C109.119 12.8106 109.763 12.5985 110.229 12.1742C110.696 11.7358 110.929 11.0782 110.929 10.2013C110.929 9.3386 110.696 8.69511 110.229 8.27083C109.763 7.8324 109.119 7.61319 108.299 7.61319C107.464 7.61319 106.814 7.8324 106.347 8.27083C105.88 8.69511 105.647 9.3386 105.647 10.2013ZM69.5037 10.6713C69.5037 12.4108 68.839 13.2806 67.5096 13.2806C66.8166 13.2806 66.3075 13.0684 65.9822 12.6442C65.6569 12.2199 65.4943 11.5622 65.4943 10.6713C65.4943 8.94584 66.166 8.08313 67.5096 8.08313C68.839 8.08313 69.5037 8.94584 69.5037 10.6713ZM82.9721 13.2806C84.3016 13.2806 84.9663 12.4108 84.9663 10.6713C84.9663 8.94584 84.3016 8.08313 82.9721 8.08313C81.6286 8.08313 80.9568 8.94584 80.9568 10.6713C80.9568 11.5622 81.1194 12.2199 81.4447 12.6442C81.77 13.0684 82.2791 13.2806 82.9721 13.2806Z" fill="#2E2E38"/>
<path d="M6.96151 28.7596H7.75351V31.1836H6.76951V29.5996H2.18551V31.1836H1.20151V28.7596H1.99351C2.64151 27.4516 2.88151 25.9876 2.88151 23.6356H6.96151V28.7596ZM2.97751 28.7596H5.97751V24.4876H3.85351C3.79351 26.3596 3.54151 27.6196 2.97751 28.7596ZM14.6122 23.6356V29.5996H13.6282V24.4876H11.3002C11.2882 27.7516 11.1202 29.5996 9.16416 29.5996V28.7596C10.3282 28.7596 10.3162 27.0196 10.3162 23.6356H14.6122ZM18.7891 23.6356H20.6971V29.5996H19.7011V26.9956H18.9691L17.7571 29.1316C17.5651 29.4316 17.2771 29.5996 16.8811 29.5996H16.0051V28.7716H16.9771L18.0091 26.9476C17.0131 26.8156 16.4371 26.3476 16.4371 25.3156C16.4371 24.1036 17.3131 23.6356 18.7891 23.6356ZM18.8731 26.2156H19.7011V24.4276H18.8731C17.9131 24.4276 17.4211 24.6076 17.4211 25.3156C17.4211 26.0356 17.9131 26.2156 18.8731 26.2156ZM29.3054 26.4316L31.8854 29.5996H30.7334L28.6094 27.0076C28.5254 27.0316 28.4294 27.0436 28.3214 27.0436H27.8894V29.5996H26.9054V23.6356H27.8894V26.1676H28.3814L29.9294 24.0796C30.1454 23.7796 30.4214 23.6356 30.8054 23.6356H31.7414V24.4876H30.7694L29.3054 26.4316ZM32.7999 26.6116C32.7999 24.8836 34.0479 23.5156 35.9559 23.5156C37.8519 23.5156 39.0999 24.8836 39.0999 26.6116C39.0999 28.3636 37.8519 29.7196 35.9559 29.7196C34.0479 29.7196 32.7999 28.3636 32.7999 26.6116ZM33.7839 26.6116C33.7839 27.8596 34.5399 28.8796 35.9559 28.8796C37.3479 28.8796 38.1039 27.8596 38.1039 26.6116C38.1039 25.3756 37.3479 24.3676 35.9559 24.3676C34.5399 24.3676 33.7839 25.3756 33.7839 26.6116ZM41.6819 29.5996H40.6979V23.6356H42.6779L44.0699 29.3236H44.3579L45.7499 23.6356H47.7419V29.5996H46.7579V24.4996L46.9139 23.9236H46.6379L45.1979 29.5996H43.2299L41.8019 23.9236H41.5259L41.6819 24.4996V29.5996ZM49.4987 27.9436C49.4987 26.9956 50.0627 26.3476 51.4547 26.2036L53.8307 25.9756C53.7707 24.8836 53.1827 24.3436 52.1507 24.3436C51.2867 24.3436 50.4827 24.7396 50.4827 25.8556H49.5227C49.5227 24.6196 50.4587 23.5156 52.1507 23.5156C53.8187 23.5156 54.8147 24.6196 54.8147 26.2156V28.7596H55.6907V29.5996H54.6347C54.1907 29.5996 53.9267 29.3476 53.9267 28.9036V28.5796L54.0827 27.9556H53.7947C53.5667 28.8676 52.9307 29.7196 51.4907 29.7196C49.7507 29.7196 49.4987 28.5676 49.4987 27.9436ZM50.4827 27.8236C50.4827 28.5076 50.9267 28.8796 51.6107 28.8796C52.9667 28.8796 53.8307 27.9436 53.8307 26.7076L51.6227 26.9356C50.8667 27.0076 50.4827 27.2356 50.4827 27.8236ZM61.4125 26.1916V23.6356H62.3965V29.5996H61.4125V27.0316H58.0525V29.5996H57.0685V23.6356H58.0525V26.1916H61.4125ZM69.6723 28.7596H70.4643V31.1836H69.4803V29.5996H64.8963V31.1836H63.9123V28.7596H64.7043C65.3523 27.4516 65.5923 25.9876 65.5923 23.6356H69.6723V28.7596ZM65.6883 28.7596H68.6883V24.4876H66.5643C66.5043 26.3596 66.2523 27.6196 65.6883 28.7596Z" fill="#17171C"/>
</svg>
