<svg width="18" height="20" viewBox="0 0 18 20" fill="none" xmlns="http://www.w3.org/2000/svg">
<path d="M10.3621 0.663379L16.5929 4.15985C17.4623 4.64775 18 5.56285 18 6.55477V13.4451C18 14.437 17.4623 15.3521 16.5929 15.84L10.3621 19.3364C9.51678 19.8108 8.4832 19.8108 7.63784 19.3364L1.4071 15.84C0.537652 15.3521 0 14.437 0 13.4451V6.55477C0 5.56285 0.537652 4.64775 1.4071 4.15985L7.63784 0.663379C8.4832 0.18903 9.51678 0.18903 10.3621 0.663379ZM1.03846 6.58266V13.4451C1.03846 14.0609 1.37284 14.63 1.9153 14.9344L8.05758 18.3812C8.13712 18.412 8.22189 18.4279 8.3077 18.4279C8.69003 18.4279 8.99999 18.118 8.99999 17.7357V12.189C8.99999 11.285 8.49683 10.4562 7.69483 10.0391L7.23761 9.80142C7.12977 9.75547 7.02328 9.7052 6.91847 9.65047L1.03846 6.58266ZM7.48024 9.03669C8.58387 9.61248 9.41909 9.61248 10.5227 9.03669L16.4879 5.68785C16.341 5.35151 16.0862 5.06453 15.7529 4.87749L9.85395 1.56899C9.3243 1.27177 8.67569 1.27177 8.14604 1.56899L2.25826 4.87749C1.92494 5.06453 1.67019 5.35151 1.5233 5.68785L7.48024 9.03669ZM8.99999 2.73069C10.298 2.73069 11.3577 3.36865 11.4202 4.17028L11.4231 5.54319C11.4231 6.37958 10.3382 7.05759 8.99999 7.05759C7.66174 7.05759 6.57692 6.37958 6.57692 5.54319V4.17028C6.64224 3.36865 7.70193 2.73069 8.99999 2.73069ZM9.00025 5.15377C10.1244 5.15377 11.0356 4.69813 11.0356 4.13607C11.0356 3.57402 10.1244 3.11838 9.00025 3.11838C7.87614 3.11838 6.96487 3.57402 6.96487 4.13607C6.96487 4.69813 7.87614 5.15377 9.00025 5.15377Z" fill="#17171C"/>
</svg>
