<svg width="501" height="121" viewBox="0 0 501 121" fill="none" xmlns="http://www.w3.org/2000/svg">
<path fill-rule="evenodd" clip-rule="evenodd" d="M37.7246 29.2123C37.7246 20.9182 40.3132 14.0769 45.4904 8.68839C50.7205 3.24704 57.6938 0.526367 66.4106 0.526367C74.1764 0.526367 80.4894 2.53385 85.3496 6.54883C90.2627 10.511 93.1418 15.9523 93.9871 22.8729H81.3082C80.6743 19.2805 79.0366 16.507 76.3952 14.5524C73.7537 12.5977 70.4784 11.6204 66.569 11.6204C61.6032 11.6204 57.6674 13.1524 54.7618 16.2165C51.8563 19.2277 50.4035 23.5597 50.4035 29.2123C50.4035 34.865 51.8563 39.2233 54.7618 42.2874C57.6674 45.3515 61.6032 46.8835 66.569 46.8835C70.4784 46.8835 73.7537 45.9062 76.3952 43.9515C79.0366 41.944 80.6743 39.1441 81.3082 35.5518H93.9871C93.1418 42.5251 90.2627 48.0193 85.3496 52.0343C80.4894 55.9964 74.1764 57.9775 66.4106 57.9775C57.6938 57.9775 50.7205 55.2832 45.4904 49.8947C40.3132 44.4534 37.7246 37.5592 37.7246 29.2123ZM98.7045 36.6612C98.7045 30.4274 100.633 25.4879 104.489 21.8427C108.399 18.1975 113.497 16.375 119.783 16.375C126.07 16.375 131.168 18.1447 135.077 21.6842C138.986 25.1709 140.941 29.8991 140.941 35.8687V39.8309H110.591C110.591 42.2082 111.463 44.11 113.206 45.5364C115.002 46.9627 117.644 47.6759 121.13 47.6759C123.402 47.6759 125.304 47.2797 126.836 46.4873C128.368 45.6949 129.319 44.559 129.689 43.0798H142.367C142.156 44.6119 141.575 46.2231 140.624 47.9137C139.673 49.5513 138.352 51.1362 136.662 52.6682C135.024 54.2003 132.832 55.4682 130.085 56.4719C127.39 57.4756 124.406 57.9775 121.13 57.9775C113.84 57.9775 108.267 55.9436 104.41 51.8758C100.606 47.808 98.7045 42.7364 98.7045 36.6612ZM110.591 32.699H129.055C129.055 31.0085 128.315 29.5821 126.836 28.4199C125.409 27.2577 123.059 26.6765 119.783 26.6765C116.508 26.6765 114.157 27.2577 112.731 28.4199C111.304 29.5293 110.591 30.9557 110.591 32.699ZM176.171 57.1851H189.88L177.043 34.6008L181.877 28.2614H188.295V17.1674H181.164C177.201 17.1674 174.402 18.2504 172.764 20.4163L164.76 31.1934H161.353V17.1674H148.674V57.1851H161.353V42.2874H165.394C166.398 42.2874 167.138 42.261 167.613 42.2082L176.171 57.1851ZM215.366 25.8049C228.256 25.8049 234.701 31.0349 234.701 41.495C234.701 51.955 228.256 57.1851 215.366 57.1851H196.981V17.1674H209.66V25.8049H215.366ZM209.66 46.0911H214.573C217.426 46.0911 219.381 45.8005 220.437 45.2194C221.494 44.6383 222.022 43.3968 222.022 41.495C222.022 39.5931 221.494 38.3517 220.437 37.7706C219.381 37.1894 217.426 36.8989 214.573 36.8989H209.66V46.0911ZM296.762 22.0805C293.328 18.2768 288.362 16.375 281.864 16.375C276.37 16.375 271.959 17.7485 268.631 20.4956C265.302 23.1899 263.163 26.8879 262.212 31.5896H256.11V17.1674H243.431V57.1851H256.11V42.6836H262.212C263.163 47.4382 265.302 51.189 268.631 53.9361C271.959 56.6304 276.37 57.9775 281.864 57.9775C288.362 57.9775 293.328 56.0757 296.762 52.272C300.248 48.4684 301.992 43.4232 301.992 37.1366C301.992 30.85 300.248 25.8313 296.762 22.0805ZM310.698 17.1674H323.377V19.6239L321 26.7558H324.169C325.384 23.5861 327.181 21.0767 329.558 19.2277C331.988 17.3259 335.448 16.375 339.939 16.375C345.486 16.375 349.765 18.356 352.776 22.3182C355.787 26.2803 357.293 31.2462 357.293 37.2159C357.293 43.1855 355.787 48.1514 352.776 52.1135C349.765 56.0229 345.486 57.9775 339.939 57.9775C335.448 57.9775 331.988 57.053 329.558 55.204C327.181 53.3022 325.384 50.7664 324.169 47.5967H321L323.377 54.7285V72.2412H310.698V17.1674ZM410.265 17.1674H397.586V31.5896H378.726V17.1674H366.047V57.1851H378.726V42.6836H397.586V57.1851H410.265V17.1674ZM424.526 21.7635C428.752 18.1711 434.167 16.375 440.771 16.375C447.375 16.375 452.763 18.1711 456.936 21.7635C461.163 25.303 463.276 30.4274 463.276 37.1366C463.276 43.8458 461.163 48.9966 456.936 52.589C452.763 56.1813 447.375 57.9775 440.771 57.9775C434.167 57.9775 428.752 56.2077 424.526 52.6682C420.3 49.0759 418.187 43.8987 418.187 37.1366C418.187 30.4274 420.3 25.303 424.526 21.7635ZM430.866 37.1366C430.866 40.412 431.737 42.8685 433.481 44.5062C435.224 46.0911 437.654 46.8835 440.771 46.8835C443.835 46.8835 446.239 46.0911 447.982 44.5062C449.725 42.8685 450.597 40.412 450.597 37.1366C450.597 33.9141 449.725 31.5104 447.982 29.9255C446.239 28.2878 443.835 27.469 440.771 27.469C437.654 27.469 435.224 28.2878 433.481 29.9255C431.737 31.5104 430.866 33.9141 430.866 37.1366ZM295.855 38.8913C295.855 45.3893 293.372 48.6382 288.406 48.6382C285.818 48.6382 283.916 47.8458 282.701 46.2609C281.486 44.6761 280.878 42.2195 280.878 38.8913C280.878 32.4462 283.387 29.2237 288.406 29.2237C293.372 29.2237 295.855 32.4462 295.855 38.8913ZM346.167 48.6382C351.132 48.6382 353.615 45.3893 353.615 38.8913C353.615 32.4462 351.132 29.2237 346.167 29.2237C341.148 29.2237 338.638 32.4462 338.638 38.8913C338.638 42.2195 339.246 44.6761 340.461 46.2609C341.676 47.8458 343.578 48.6382 346.167 48.6382Z" fill="#17171C"/>
<path d="M144.272 107.038H147.292V116.281H143.54V110.241H126.06V116.281H122.308V107.038H125.328C127.799 102.05 128.714 96.4679 128.714 87.4992H144.272V107.038ZM129.08 107.038H140.52V90.7481H132.421C132.192 97.8864 131.231 102.691 129.08 107.038ZM172.53 87.4992V110.241H168.778V90.7481H159.901C159.855 103.194 159.215 110.241 151.756 110.241V107.038C156.195 107.038 156.149 100.403 156.149 87.4992H172.53ZM187.543 87.4992H194.818V110.241H191.02V100.312H188.229L183.608 108.457C182.875 109.601 181.777 110.241 180.267 110.241H176.927V107.084H180.633L184.568 100.129C180.771 99.6252 178.574 97.8407 178.574 93.9054C178.574 89.2838 181.914 87.4992 187.543 87.4992ZM187.863 97.3373H191.02V90.5193H187.863C184.202 90.5193 182.326 91.2057 182.326 93.9054C182.326 96.6509 184.202 97.3373 187.863 97.3373ZM225.813 98.161L235.651 110.241H231.259L223.159 100.357C222.839 100.449 222.473 100.495 222.061 100.495H220.414V110.241H216.662V87.4992H220.414V97.1543H222.29L228.193 89.1923C229.016 88.0483 230.069 87.4992 231.533 87.4992H235.102V90.7481H231.396L225.813 98.161ZM238.224 98.8473C238.224 92.2581 242.982 87.0417 250.258 87.0417C257.488 87.0417 262.247 92.2581 262.247 98.8473C262.247 105.528 257.488 110.699 250.258 110.699C242.982 110.699 238.224 105.528 238.224 98.8473ZM241.976 98.8473C241.976 103.606 244.858 107.496 250.258 107.496C255.566 107.496 258.449 103.606 258.449 98.8473C258.449 94.1342 255.566 90.2905 250.258 90.2905C244.858 90.2905 241.976 94.1342 241.976 98.8473ZM271.177 110.241H267.425V87.4992H274.975L280.283 109.189H281.381L286.689 87.4992H294.285V110.241H290.533V90.7939L291.128 88.5974H290.075L284.584 110.241H277.08L271.635 88.5974H270.582L271.177 90.7939V110.241ZM300.069 103.927C300.069 100.312 302.22 97.8407 307.528 97.2916L316.588 96.4221C316.359 92.2581 314.117 90.199 310.182 90.199C306.887 90.199 303.821 91.709 303.821 95.9646H300.16C300.16 91.2514 303.73 87.0417 310.182 87.0417C316.542 87.0417 320.34 91.2514 320.34 97.3373V107.038H323.68V110.241H319.654C317.961 110.241 316.954 109.28 316.954 107.587V106.352L317.549 103.972H316.45C315.581 107.45 313.156 110.699 307.665 110.699C301.03 110.699 300.069 106.306 300.069 103.927ZM303.821 103.469C303.821 106.077 305.514 107.496 308.122 107.496C313.293 107.496 316.588 103.927 316.588 99.2134L308.168 100.083C305.285 100.357 303.821 101.227 303.821 103.469ZM344.584 97.2458V87.4992H348.336V110.241H344.584V100.449H331.771V110.241H328.019V87.4992H331.771V97.2458H344.584ZM375.165 107.038H378.185V116.281H374.433V110.241H356.953V116.281H353.201V107.038H356.221C358.692 102.05 359.607 96.4679 359.607 87.4992H375.165V107.038ZM359.973 107.038H371.413V90.7481H363.313C363.084 97.8864 362.124 102.691 359.973 107.038Z" fill="#17171C"/>
</svg>
