<svg width="26" height="20" viewBox="0 0 26 20" fill="none" xmlns="http://www.w3.org/2000/svg">
<path d="M5.35381 11.7191C6.70665 11.7191 7.38308 10.834 7.38308 9.06375C7.38308 7.30794 6.70665 6.43003 5.35381 6.43003C3.98657 6.43003 3.30295 7.30794 3.30295 9.06375C3.30295 9.97045 3.46846 10.6397 3.79948 11.0714C4.13049 11.5032 4.6486 11.7191 5.35381 11.7191Z" fill="#2E2E38"/>
<path d="M13.209 3.6236H16.663V4.29282L16.0154 6.23574H16.8789C17.2099 5.37222 17.6992 4.6886 18.3469 4.18488C19.0089 3.66677 19.9516 3.40771 21.1749 3.40771C22.6861 3.40771 23.8518 3.94741 24.6721 5.02681C25.4925 6.10621 25.9027 7.45905 25.9027 9.08534C25.9027 10.7116 25.4925 12.0645 24.6721 13.1439C23.8518 14.2089 22.6861 14.7414 21.1749 14.7414C19.9516 14.7414 19.0089 14.4895 18.3469 13.9858C17.6992 13.4677 17.2099 12.7769 16.8789 11.9134H16.0154L16.663 13.8563V18.6272H13.209V3.6236ZM16.663 9.08534C16.663 10.8412 17.6273 11.7191 19.5558 11.7191C21.4843 11.7191 22.4486 10.8412 22.4486 9.08534C22.4486 7.31513 21.4843 6.43003 19.5558 6.43003C17.6273 6.43003 16.663 7.31513 16.663 9.08534Z" fill="#2E2E38"/>
<path d="M5.35381 11.7191C6.70665 11.7191 7.38308 10.834 7.38308 9.06375C7.38308 7.30794 6.70665 6.43003 5.35381 6.43003C3.98657 6.43003 3.30295 7.30794 3.30295 9.06375C3.30295 9.97045 3.46846 10.6397 3.79948 11.0714C4.13049 11.5032 4.6486 11.7191 5.35381 11.7191Z" fill="#2E2E38"/>
<path d="M16.663 9.08534C16.663 10.8412 17.6273 11.7191 19.5558 11.7191C21.4843 11.7191 22.4486 10.8412 22.4486 9.08534C22.4486 7.31513 21.4843 6.43003 19.5558 6.43003C17.6273 6.43003 16.663 7.31513 16.663 9.08534Z" fill="#2E2E38"/>
<path fill-rule="evenodd" clip-rule="evenodd" d="M5.35381 3.40771C7.12402 3.40771 8.47686 3.92583 9.41234 4.96205C10.3622 5.98388 10.8371 7.35111 10.8371 9.06375C10.8371 10.7764 10.3622 12.1508 9.41234 13.1871C8.47686 14.2233 7.12402 14.7414 5.35381 14.7414C3.85705 14.7414 2.65532 14.3744 1.74863 13.6404C0.841934 12.892 0.259055 11.8702 0 10.5749V7.5526C0.259055 6.27171 0.841934 5.26428 1.74863 4.53029C2.65532 3.78191 3.85705 3.40771 5.35381 3.40771ZM7.38308 9.06375C7.38308 10.834 6.70665 11.7191 5.35381 11.7191C4.6486 11.7191 4.13049 11.5032 3.79948 11.0714C3.46846 10.6397 3.30295 9.97045 3.30295 9.06375C3.30295 7.30794 3.98657 6.43003 5.35381 6.43003C6.70665 6.43003 7.38308 7.30794 7.38308 9.06375Z" fill="#2E2E38"/>
<path d="M9.63872 8.94907C9.63872 10.7193 8.9623 11.6044 7.60945 11.6044C6.90425 11.6044 6.38613 11.3885 6.05512 10.9567C5.7241 10.525 5.55859 9.85576 5.55859 8.94907C5.55859 7.19325 6.24222 6.31534 7.60945 6.31534C8.9623 6.31534 9.63872 7.19325 9.63872 8.94907Z" fill="white"/>
<path d="M25.3731 8.94907C25.3731 10.7193 24.6967 11.6044 23.3438 11.6044C22.6386 11.6044 22.1205 11.3885 21.7895 10.9567C21.4585 10.525 21.293 9.85576 21.293 8.94907C21.293 7.19325 21.9766 6.31534 23.3438 6.31534C24.6967 6.31534 25.3731 7.19325 25.3731 8.94907Z" fill="white"/>
</svg>
