<svg width="114" height="20" viewBox="0 0 114 20" fill="none" xmlns="http://www.w3.org/2000/svg">
<path fill-rule="evenodd" clip-rule="evenodd" d="M0 7.67951C0 5.4591 0.692994 3.62761 2.07898 2.18505C3.47911 0.728351 5.34596 0 7.67951 0C9.75849 0 11.4486 0.537424 12.7497 1.61227C14.065 2.67298 14.8357 4.12968 15.062 5.98238H11.6678C11.498 5.02067 11.0596 4.27818 10.3525 3.7549C9.64535 3.23162 8.7685 2.96998 7.72194 2.96998C6.39252 2.96998 5.33889 3.38012 4.56103 4.2004C3.78318 5.00653 3.39426 6.16624 3.39426 7.67951C3.39426 9.19278 3.78318 10.3596 4.56103 11.1798C5.33889 12.0001 6.39252 12.4103 7.72194 12.4103C8.7685 12.4103 9.64535 12.1486 10.3525 11.6253C11.0596 11.0879 11.498 10.3383 11.6678 9.37664H15.062C14.8357 11.2435 14.065 12.7143 12.7497 13.7892C11.4486 14.8499 9.75849 15.3802 7.67951 15.3802C5.34596 15.3802 3.47911 14.659 2.07898 13.2164C0.692994 11.7597 0 9.91406 0 7.67951ZM16.3249 9.67364C16.3249 8.00479 16.8411 6.68245 17.8736 5.7066C18.9201 4.73075 20.2849 4.24282 21.9679 4.24282C23.6509 4.24282 25.0156 4.71661 26.0622 5.66417C27.1088 6.59759 27.632 7.86337 27.632 9.4615V10.5222H19.507C19.507 11.1586 19.7404 11.6678 20.2071 12.0496C20.688 12.4315 21.3951 12.6224 22.3285 12.6224C22.9367 12.6224 23.4458 12.5163 23.8559 12.3042C24.2661 12.092 24.5206 11.788 24.6196 11.392H28.0139C27.9573 11.8021 27.8018 12.2335 27.5472 12.686C27.2926 13.1245 26.939 13.5487 26.4865 13.9589C26.0481 14.369 25.4611 14.7085 24.7257 14.9772C24.0044 15.2459 23.2054 15.3802 22.3285 15.3802C20.3768 15.3802 18.8848 14.8357 17.8523 13.7467C16.8341 12.6578 16.3249 11.3001 16.3249 9.67364ZM19.507 8.61293H24.4499C24.4499 8.16036 24.2519 7.77851 23.8559 7.46737C23.4741 7.15623 22.8447 7.00066 21.9679 7.00066C21.091 7.00066 20.4617 7.15623 20.0798 7.46737C19.698 7.76437 19.507 8.14622 19.507 8.61293ZM37.0635 15.1681H40.7336L37.2969 9.12207L38.591 7.42494H40.3093V4.45497H38.4C37.3393 4.45497 36.5898 4.74489 36.1513 5.32474L34.0087 8.20986H33.0965V4.45497H29.7022V15.1681H33.0965V11.1798H34.1784C34.4471 11.1798 34.6451 11.1728 34.7724 11.1586L37.0635 15.1681ZM47.5562 6.7673C51.0071 6.7673 52.7325 8.16743 52.7325 10.9677C52.7325 13.768 51.0071 15.1681 47.5562 15.1681H42.6346V4.45497H46.0288V6.7673H47.5562ZM46.0288 12.1981H47.3441C48.1078 12.1981 48.6311 12.1203 48.9139 11.9648C49.1968 11.8092 49.3382 11.4768 49.3382 10.9677C49.3382 10.4586 49.1968 10.1262 48.9139 9.97063C48.6311 9.81506 48.1078 9.73728 47.3441 9.73728H46.0288V12.1981ZM69.3468 5.77024C68.4275 4.75196 67.0981 4.24282 65.3585 4.24282C63.8877 4.24282 62.7068 4.61053 61.8158 5.34596C60.9248 6.06724 60.352 7.05723 60.0974 8.31593H58.4639V4.45497H55.0697V15.1681H58.4639V11.2859H60.0974C60.352 12.5588 60.9248 13.5629 61.8158 14.2983C62.7068 15.0196 63.8877 15.3802 65.3585 15.3802C67.0981 15.3802 68.4275 14.8711 69.3468 13.8528C70.2802 12.8345 70.7469 11.4839 70.7469 9.80092C70.7469 8.11794 70.2802 6.77437 69.3468 5.77024ZM73.0777 4.45497H76.4719V5.1126L75.8355 7.02187H76.6841C77.0093 6.17331 77.4902 5.50153 78.1266 5.00653C78.7772 4.49739 79.7035 4.24282 80.9057 4.24282C82.3906 4.24282 83.5362 4.77318 84.3423 5.83388C85.1485 6.89459 85.5515 8.22401 85.5515 9.82214C85.5515 11.4203 85.1485 12.7497 84.3423 13.8104C83.5362 14.857 82.3906 15.3802 80.9057 15.3802C79.7035 15.3802 78.7772 15.1327 78.1266 14.6377C77.4902 14.1286 77.0093 13.4497 76.6841 12.6012H75.8355L76.4719 14.5105V19.1988H73.0777V4.45497ZM99.7327 4.45497H96.3384V8.31593H91.2895V4.45497H87.8952V15.1681H91.2895V11.2859H96.3384V15.1681H99.7327V4.45497ZM103.551 5.68538C104.682 4.72368 106.132 4.24282 107.899 4.24282C109.667 4.24282 111.11 4.72368 112.227 5.68538C113.359 6.63295 113.924 8.00479 113.924 9.80092C113.924 11.597 113.359 12.976 112.227 13.9377C111.11 14.8994 109.667 15.3802 107.899 15.3802C106.132 15.3802 104.682 14.9065 103.551 13.9589C102.419 12.9972 101.853 11.6112 101.853 9.80092C101.853 8.00479 102.419 6.63295 103.551 5.68538ZM105.248 9.80092C105.248 10.6778 105.481 11.3354 105.948 11.7738C106.414 12.1981 107.065 12.4103 107.899 12.4103C108.72 12.4103 109.363 12.1981 109.83 11.7738C110.297 11.3354 110.53 10.6778 110.53 9.80092C110.53 8.93821 110.297 8.29472 109.83 7.87044C109.363 7.43201 108.72 7.2128 107.899 7.2128C107.065 7.2128 106.414 7.43201 105.948 7.87044C105.481 8.29472 105.248 8.93821 105.248 9.80092ZM69.1043 10.2709C69.1043 12.0104 68.4396 12.8802 67.1102 12.8802C66.4172 12.8802 65.9081 12.6681 65.5828 12.2438C65.2575 11.8195 65.0948 11.1619 65.0948 10.2709C65.0948 8.54545 65.7666 7.68274 67.1102 7.68274C68.4396 7.68274 69.1043 8.54545 69.1043 10.2709ZM82.5727 12.8802C83.9021 12.8802 84.5668 12.0104 84.5668 10.2709C84.5668 8.54545 83.9021 7.68274 82.5727 7.68274C81.2292 7.68274 80.5574 8.54545 80.5574 10.2709C80.5574 11.1619 80.72 11.8195 81.0453 12.2438C81.3706 12.6681 81.8797 12.8802 82.5727 12.8802Z" fill="#2E2E38"/>
</svg>
