<svg width="33" height="20" viewBox="0 0 33 20" fill="none" xmlns="http://www.w3.org/2000/svg">
<path d="M6.881 10.8618C8.54288 10.8618 9.37382 9.77451 9.37382 7.59992C9.37382 5.44302 8.54288 4.36456 6.881 4.36456C5.20144 4.36456 4.36166 5.44302 4.36166 7.59992C4.36166 8.71373 4.56497 9.53583 4.9716 10.0662C5.37823 10.5966 6.0147 10.8618 6.881 10.8618Z" fill="#2E2E38"/>
<path d="M16.5305 0.91705H20.7736V1.73915L19.978 4.12589H21.0388C21.4454 3.06512 22.0465 2.22534 22.8421 1.60655C23.6554 0.970087 24.8134 0.651855 26.3162 0.651855C28.1725 0.651855 29.6045 1.31484 30.6123 2.64081C31.62 3.96677 32.1239 5.62865 32.1239 7.62644C32.1239 9.62423 31.62 11.2861 30.6123 12.6121C29.6045 13.9204 28.1725 14.5745 26.3162 14.5745C24.8134 14.5745 23.6554 14.2651 22.8421 13.6463C22.0465 13.0099 21.4454 12.1612 21.0388 11.1005H19.978L20.7736 13.4872V19.348H16.5305V0.91705ZM20.7736 7.62644C20.7736 9.78335 21.9581 10.8618 24.3272 10.8618C26.6963 10.8618 27.8808 9.78335 27.8808 7.62644C27.8808 5.45186 26.6963 4.36456 24.3272 4.36456C21.9581 4.36456 20.7736 5.45186 20.7736 7.62644Z" fill="#2E2E38"/>
<path d="M6.881 10.8618C8.54288 10.8618 9.37382 9.77451 9.37382 7.59992C9.37382 5.44302 8.54288 4.36456 6.881 4.36456C5.20144 4.36456 4.36166 5.44302 4.36166 7.59992C4.36166 8.71373 4.56497 9.53583 4.9716 10.0662C5.37823 10.5966 6.0147 10.8618 6.881 10.8618Z" fill="#2E2E38"/>
<path d="M20.7736 7.62644C20.7736 9.78335 21.9581 10.8618 24.3272 10.8618C26.6963 10.8618 27.8808 9.78335 27.8808 7.62644C27.8808 5.45186 26.6963 4.36456 24.3272 4.36456C21.9581 4.36456 20.7736 5.45186 20.7736 7.62644Z" fill="#2E2E38"/>
<path fill-rule="evenodd" clip-rule="evenodd" d="M6.881 0.651855C9.05558 0.651855 10.7175 1.28832 11.8666 2.56125C13.0335 3.8165 13.6169 5.49605 13.6169 7.59992C13.6169 9.70379 13.0335 11.3922 11.8666 12.6651C10.7175 13.938 9.05558 14.5745 6.881 14.5745C5.04232 14.5745 3.56608 14.1237 2.45227 13.222C1.33846 12.3027 0.622431 11.0474 0.304199 9.45628V5.74357C0.622431 4.17009 1.33846 2.93252 2.45227 2.03086C3.56608 1.11152 5.04232 0.651855 6.881 0.651855ZM9.37382 7.59992C9.37382 9.77451 8.54288 10.8618 6.881 10.8618C6.0147 10.8618 5.37823 10.5966 4.9716 10.0662C4.56497 9.53583 4.36166 8.71373 4.36166 7.59992C4.36166 5.44302 5.20144 4.36456 6.881 4.36456C8.54288 4.36456 9.37382 5.44302 9.37382 7.59992Z" fill="#2E2E38"/>
<path d="M12.1435 7.45899C12.1435 9.63358 11.3126 10.7209 9.65069 10.7209C8.78439 10.7209 8.14792 10.4557 7.74129 9.92529C7.33466 9.3949 7.13135 8.5728 7.13135 7.45899C7.13135 5.30209 7.97113 4.22363 9.65069 4.22363C11.3126 4.22363 12.1435 5.30209 12.1435 7.45899Z" fill="white"/>
<path d="M31.4731 7.45899C31.4731 9.63358 30.6422 10.7209 28.9803 10.7209C28.114 10.7209 27.4775 10.4557 27.0709 9.92529C26.6643 9.3949 26.4609 8.5728 26.4609 7.45899C26.4609 5.30209 27.3007 4.22363 28.9803 4.22363C30.6422 4.22363 31.4731 5.30209 31.4731 7.45899Z" fill="white"/>
</svg>
