<svg width="134" height="30" viewBox="0 0 134 30" fill="none" xmlns="http://www.w3.org/2000/svg">
<path d="M13.5712 2.82521L21.6955 7.38425C22.8292 8.02043 23.5303 9.21362 23.5303 10.507V19.4913C23.5303 20.7846 22.8292 21.9778 21.6955 22.614L13.5712 27.173C12.469 27.7915 11.1213 27.7915 10.019 27.173L1.89478 22.614C0.761104 21.9778 0.0600586 20.7846 0.0600586 19.4913V10.507C0.0600586 9.21362 0.761104 8.02043 1.89478 7.38425L10.019 2.82521C11.1213 2.2067 12.469 2.2067 13.5712 2.82521ZM1.41411 10.5434V19.4913C1.41411 20.2942 1.8501 21.0363 2.55742 21.4332L10.5663 25.9274C10.6701 25.9676 10.7806 25.9884 10.8925 25.9884C11.391 25.9884 11.7952 25.5843 11.7952 25.0858V17.8534C11.7952 16.6747 11.1391 15.594 10.0933 15.0503L9.49718 14.7403C9.35657 14.6804 9.21772 14.6149 9.08106 14.5435L1.41411 10.5434ZM9.81355 13.7432C11.2526 14.4939 12.3416 14.4939 13.7806 13.7432L21.5586 9.37662C21.3671 8.93807 21.0349 8.56387 20.6003 8.31999L12.9086 4.00604C12.218 3.61849 11.3723 3.61849 10.6817 4.00604L3.0046 8.31999C2.56999 8.56387 2.23782 8.93807 2.04628 9.37662L9.81355 13.7432ZM11.7952 5.52078C13.4877 5.52078 14.8694 6.35261 14.9508 7.39786L14.9546 9.188C14.9546 10.2786 13.5401 11.1626 11.7952 11.1626C10.0502 11.1626 8.63571 10.2786 8.63571 9.188V7.39786C8.72089 6.35261 10.1026 5.52078 11.7952 5.52078ZM11.7955 8.68023C13.2612 8.68023 14.4494 8.08612 14.4494 7.35326C14.4494 6.62039 13.2612 6.02629 11.7955 6.02629C10.3298 6.02629 9.14156 6.62039 9.14156 7.35326C9.14156 8.08612 10.3298 8.68023 11.7955 8.68023Z" fill="#3A05BA"/>
<path d="M43.001 21.43C42.583 21.7213 42.032 21.9303 41.348 22.057C40.664 22.1963 39.961 22.266 39.239 22.266C38.3903 22.266 37.5733 22.1393 36.788 21.886C36.0153 21.6327 35.325 21.2273 34.717 20.67C34.1217 20.1127 33.6467 19.397 33.292 18.523C32.9373 17.649 32.76 16.5913 32.76 15.35C32.76 14.058 32.9627 12.975 33.368 12.101C33.7733 11.2143 34.2927 10.505 34.926 9.973C35.5593 9.42833 36.2623 9.03567 37.035 8.795C37.8077 8.55433 38.5677 8.434 39.315 8.434C40.1383 8.434 40.8287 8.48467 41.386 8.586C41.956 8.68733 42.4247 8.80767 42.792 8.947L42.241 11.303C41.9243 11.1637 41.5507 11.0623 41.12 10.999C40.702 10.9357 40.17 10.904 39.524 10.904C38.954 10.904 38.4347 10.999 37.966 11.189C37.51 11.3663 37.1173 11.6387 36.788 12.006C36.4587 12.3733 36.199 12.8357 36.009 13.393C35.8317 13.9503 35.743 14.6027 35.743 15.35C35.743 16.0087 35.8253 16.6103 35.99 17.155C36.1547 17.6997 36.4017 18.1683 36.731 18.561C37.0603 18.9537 37.4783 19.2577 37.985 19.473C38.4917 19.6883 39.0807 19.796 39.752 19.796C40.3727 19.796 40.892 19.739 41.31 19.625C41.7407 19.511 42.1207 19.3653 42.45 19.188L43.001 21.43ZM52.5078 21.088C52.0772 21.4173 51.4882 21.7023 50.7408 21.943C50.0062 22.171 49.2145 22.285 48.3658 22.285C46.6558 22.285 45.4018 21.8163 44.6038 20.879C43.8058 19.9417 43.4068 18.656 43.4068 17.022C43.4068 15.2867 43.8565 13.9757 44.7558 13.089C45.6552 12.1897 46.9218 11.74 48.5558 11.74C49.0878 11.74 49.6135 11.8097 50.1328 11.949C50.6522 12.0757 51.1145 12.2973 51.5198 12.614C51.9252 12.918 52.2482 13.336 52.4888 13.868C52.7422 14.3873 52.8688 15.0333 52.8688 15.806C52.8688 16.072 52.8498 16.3633 52.8118 16.68C52.7865 16.9967 52.7358 17.326 52.6598 17.668H46.0098C46.0732 18.5293 46.3202 19.169 46.7508 19.587C47.1942 19.9923 47.9098 20.195 48.8978 20.195C49.4932 20.195 50.0252 20.1127 50.4938 19.948C50.9752 19.7707 51.3425 19.5933 51.5958 19.416L52.5078 21.088ZM48.5178 13.83C47.7325 13.83 47.1498 14.0453 46.7698 14.476C46.3898 14.894 46.1682 15.4323 46.1048 16.091H50.3988C50.4495 15.3943 50.3228 14.8433 50.0188 14.438C49.7148 14.0327 49.2145 13.83 48.5178 13.83ZM58.6591 17.858H57.7281V22H55.0681V12.025H57.7281V16.338L58.5831 15.977L61.1291 12.025H63.9981C63.5547 12.633 63.1177 13.2473 62.6871 13.868C62.2691 14.476 61.8447 15.084 61.4141 15.692L60.1601 16.528L61.4901 17.345C61.9714 18.1303 62.4591 18.9093 62.9531 19.682C63.4471 20.442 63.9347 21.2147 64.4161 22H61.3381L58.6591 17.858ZM68.2627 19.777C68.5034 19.8277 68.7377 19.8657 68.9657 19.891C69.1937 19.9037 69.409 19.91 69.6117 19.91C71.0304 19.91 71.7397 19.454 71.7397 18.542C71.7397 17.6933 71.0557 17.269 69.6877 17.269C69.1684 17.269 68.6934 17.326 68.2627 17.44V19.777ZM68.2627 15.597C68.6427 15.5337 69.029 15.4893 69.4217 15.464C69.8144 15.4387 70.1437 15.426 70.4097 15.426C71.1444 15.426 71.7714 15.5083 72.2907 15.673C72.81 15.825 73.228 16.0403 73.5447 16.319C73.874 16.5977 74.1084 16.927 74.2477 17.307C74.3997 17.687 74.4757 18.0923 74.4757 18.523C74.4757 19.1183 74.3807 19.644 74.1907 20.1C74.0007 20.5433 73.703 20.917 73.2977 21.221C72.8924 21.525 72.3604 21.753 71.7017 21.905C71.0557 22.057 70.2704 22.133 69.3457 22.133C68.5477 22.133 67.851 22.1203 67.2557 22.095C66.6604 22.0823 66.1094 22.057 65.6027 22.019V12.025H68.2627V15.597ZM85.3147 22.285C84.5167 22.285 83.8327 22.1837 83.2627 21.981C82.7054 21.7783 82.2367 21.4933 81.8567 21.126C81.4894 20.746 81.2107 20.29 81.0207 19.758C80.8307 19.226 80.7041 18.6307 80.6407 17.972H78.7787V22H76.1187V12.025H78.7787V15.749H80.6787C80.8307 14.4697 81.2741 13.4817 82.0087 12.785C82.7434 12.0883 83.8581 11.74 85.3527 11.74C86.1761 11.74 86.8791 11.873 87.4617 12.139C88.0571 12.3923 88.5447 12.7533 88.9247 13.222C89.3047 13.6907 89.5834 14.248 89.7607 14.894C89.9507 15.54 90.0457 16.2493 90.0457 17.022C90.0457 18.6687 89.6531 19.9607 88.8677 20.898C88.0951 21.8227 86.9107 22.285 85.3147 22.285ZM83.1867 17.022C83.1867 17.972 83.3387 18.7193 83.6427 19.264C83.9594 19.796 84.5231 20.062 85.3337 20.062C85.6757 20.062 85.9671 20.0113 86.2077 19.91C86.4611 19.796 86.6701 19.6187 86.8347 19.378C86.9994 19.1373 87.1197 18.827 87.1957 18.447C87.2717 18.0543 87.3097 17.5793 87.3097 17.022C87.3097 16.0087 87.1641 15.2487 86.8727 14.742C86.5814 14.2227 86.0367 13.963 85.2387 13.963C84.5547 13.963 84.0417 14.1973 83.6997 14.666C83.3577 15.1347 83.1867 15.92 83.1867 17.022ZM92.0157 12.025H93.9157L94.2387 13.26H94.4667C94.8593 12.7533 95.3153 12.3733 95.8347 12.12C96.354 11.8667 96.962 11.74 97.6587 11.74C99.0013 11.74 100.008 12.1453 100.68 12.956C101.351 13.754 101.687 15.027 101.687 16.775C101.687 17.611 101.579 18.371 101.364 19.055C101.148 19.7263 100.832 20.309 100.414 20.803C99.9957 21.2843 99.4763 21.658 98.8557 21.924C98.2477 22.1773 97.5447 22.304 96.7467 22.304C96.316 22.304 95.9423 22.2597 95.6257 22.171C95.309 22.095 94.9923 21.9873 94.6757 21.848V25.781H92.0157V12.025ZM96.8417 13.963C96.2337 13.963 95.765 14.1023 95.4357 14.381C95.1063 14.647 94.853 15.065 94.6757 15.635V19.511C94.891 19.6883 95.1317 19.8277 95.3977 19.929C95.6637 20.0303 95.9993 20.081 96.4047 20.081C97.266 20.081 97.9057 19.815 98.3237 19.283C98.7417 18.7383 98.9507 17.877 98.9507 16.699C98.9507 15.8503 98.786 15.1853 98.4567 14.704C98.14 14.21 97.6017 13.963 96.8417 13.963ZM110.105 18.143H106.324V22H103.664V12.025H106.324V15.73H110.105V12.025H112.765V22H110.105V18.143ZM114.741 17.022C114.741 15.3753 115.178 14.0833 116.052 13.146C116.926 12.2087 118.174 11.74 119.795 11.74C120.644 11.74 121.385 11.873 122.018 12.139C122.652 12.405 123.177 12.7787 123.595 13.26C124.013 13.7287 124.324 14.286 124.526 14.932C124.742 15.5653 124.849 16.262 124.849 17.022C124.849 17.8327 124.735 18.5673 124.507 19.226C124.279 19.872 123.95 20.423 123.519 20.879C123.089 21.335 122.557 21.6833 121.923 21.924C121.303 22.1647 120.593 22.285 119.795 22.285C118.934 22.285 118.187 22.152 117.553 21.886C116.92 21.62 116.394 21.2527 115.976 20.784C115.558 20.3027 115.248 19.7453 115.045 19.112C114.843 18.466 114.741 17.7693 114.741 17.022ZM117.477 17.022C117.477 17.44 117.522 17.8327 117.61 18.2C117.699 18.5673 117.832 18.8903 118.009 19.169C118.199 19.435 118.44 19.6503 118.731 19.815C119.023 19.9797 119.377 20.062 119.795 20.062C121.341 20.062 122.113 19.0487 122.113 17.022C122.113 16.5787 122.069 16.1733 121.98 15.806C121.904 15.426 121.771 15.103 121.581 14.837C121.404 14.5583 121.163 14.343 120.859 14.191C120.568 14.039 120.213 13.963 119.795 13.963C119.073 13.963 118.503 14.2037 118.085 14.685C117.68 15.1663 117.477 15.9453 117.477 17.022Z" fill="#17171C"/>
</svg>
