<svg xmlns="http://www.w3.org/2000/svg" viewBox="0 0 1023.74 767.96"><defs><style>.cls-1,.cls-10,.cls-11,.cls-13,.cls-14,.cls-4,.cls-8{fill:none;}.cls-2{fill:#2c29c2;}.cls-3,.cls-5{fill:#fff;}.cls-13,.cls-16,.cls-3,.cls-4{stroke:#000;}.cls-16,.cls-3,.cls-4{stroke-linecap:round;stroke-linejoin:round;}.cls-11,.cls-16,.cls-3,.cls-4{stroke-width:4px;}.cls-6{fill:#8d8d94;}.cls-7{fill:#2e2e38;}.cls-8{stroke:#17171c;}.cls-9{fill:#aeaeb2;}.cls-10{stroke:#c7c7cc;}.cls-11,.cls-14{stroke:#f3f3f6;}.cls-12{fill:#007aff;}.cls-13{stroke-width:2px;}.cls-15{fill:#ef1500;}</style></defs><g id="Слой_7" data-name="Слой 7"><rect class="cls-1" width="1023.74" height="767.96"/></g><g id="Слой_2" data-name="Слой 2"><polygon class="cls-2" points="849.7 688.53 237.38 532.49 237.38 26.62 849.7 182.65 849.7 688.53"/><polygon class="cls-3" points="822.57 702.64 212.61 547.31 212.61 43.71 822.57 199.05 822.57 702.64"/><line class="cls-4" x1="212.61" y1="90.49" x2="822.14" y2="245.71"/><line class="cls-4" x1="775.51" y1="186.77" x2="775.51" y2="232.95"/><line class="cls-4" x1="727.36" y1="174.51" x2="727.36" y2="220.69"/><line class="cls-4" x1="677.04" y1="161.7" x2="677.04" y2="207.87"/><line class="cls-4" x1="815.04" y1="205.79" x2="783.55" y2="228.58"/><line class="cls-4" x1="784.24" y1="197.61" x2="815.04" y2="236.94"/><line class="cls-4" x1="686.17" y1="187.67" x2="718.17" y2="195.82"/><polygon class="cls-4" points="764.55 213.82 738.2 207.1 738.2 194.61 764.55 201.32 764.55 213.82"/><path class="cls-5" d="M244.16,104.87,785.05,248.32a4.2,4.2,0,0,1,2.67,4v247.6c0,1.82-1.19,3-2.67,2.6L244.16,359.08a4.18,4.18,0,0,1-2.67-4V107.47C241.49,105.64,242.68,104.48,244.16,104.87Z" transform="translate(-0.23 -0.02)"/><path class="cls-6" d="M268.36,150.35l1.37-.8.64.17v7.94l-.64-.17v-7l-1.37.79Z" transform="translate(-0.23 -0.02)"/><path class="cls-7" d="M318.26,162l2.3.62a3.28,3.28,0,0,1,1.91,1.16,3.2,3.2,0,0,1,.6,2,2.21,2.21,0,0,1-.26,1.1,1.29,1.29,0,0,1-.77.61,2.74,2.74,0,0,1,.94,1.1,3.45,3.45,0,0,1,.3,1.45,2.24,2.24,0,0,1-.6,1.77,2.1,2.1,0,0,1-1.91.16l-2.51-.67Zm.75,5.13v3.49l1.76.47a1.46,1.46,0,0,0,1.34-.09,1.49,1.49,0,0,0,.4-1.2,2.26,2.26,0,0,0-.4-1.4,2.23,2.23,0,0,0-1.34-.8Zm0-4.08v3.24l1.55.4a1.55,1.55,0,0,0,1.33-.06,1.35,1.35,0,0,0,.41-1.09,2.07,2.07,0,0,0-.41-1.29,2.34,2.34,0,0,0-1.33-.79Zm7.47,7.36-1-.26v3l-.7-.18v-6.61l.7.18v2.78l1,.25,1.53-2.37.87.23-1.76,2.72,2,4-.87-.23Zm3.3,3.19.16,0a.52.52,0,0,0,.35,0,.62.62,0,0,0,.29-.35,2.46,2.46,0,0,0,.19-.77,9.56,9.56,0,0,0,.08-1.35V168l3.62,1v6.62l-.7-.18V169.6l-2.22-.59v2.38a9.64,9.64,0,0,1-.12,1.69,2.79,2.79,0,0,1-.32,1,1,1,0,0,1-.51.44,1.24,1.24,0,0,1-.66,0l-.16-.05Zm10.66,3.64a2.79,2.79,0,0,1-.92-.44,3.14,3.14,0,0,1-.71-.78,4.7,4.7,0,0,1-.46-1.09,5.22,5.22,0,0,1-.17-1.36L337,173.3v3l-.7-.19v-6.62l.7.19v2.85l1.19.31a3.9,3.9,0,0,1,.2-1.17,1.93,1.93,0,0,1,.47-.81,1.23,1.23,0,0,1,.7-.39,1.93,1.93,0,0,1,.89,0,2.45,2.45,0,0,1,.91.46,3,3,0,0,1,.71.79,4,4,0,0,1,.46,1.11,5.14,5.14,0,0,1,.17,1.35v.58a4.41,4.41,0,0,1-.17,1.28,2.11,2.11,0,0,1-.46.84,1.4,1.4,0,0,1-.72.42A1.73,1.73,0,0,1,340.44,177.28Zm0-.81a1,1,0,0,0,1.09-.3,2.31,2.31,0,0,0,.43-1.59V174a3.89,3.89,0,0,0-.12-1,2.69,2.69,0,0,0-.32-.81,2,2,0,0,0-.48-.56,1.44,1.44,0,0,0-.6-.31,1,1,0,0,0-1.1.28,2.34,2.34,0,0,0-.43,1.6v.58a3.45,3.45,0,0,0,.43,1.82A1.91,1.91,0,0,0,340.44,176.47Zm6.77.07-.57,0a4.55,4.55,0,0,1-.75-.13,2.64,2.64,0,0,1-1.55-1,3.44,3.44,0,0,1-.48-1.94v-2l.71.19v2a2.41,2.41,0,0,0,.28,1.3,1.76,1.76,0,0,0,1,.64,5.92,5.92,0,0,0,.75.13l.57,0v-3.38l.71.19v6.62l-.71-.19Zm6.18-1.52-.66,1.2-2.13,3.67-.88-.24V173l.71.19v5.63l.66-1.21,2.13-3.68.88.24v6.61l-.71-.19Zm1.88-.51,4.27,1.13v.8l-1.78-.48v5.83l-.71-.19v-5.82l-1.78-.48Zm5.45,1.44.7.18v2.39l1.18.32a2.94,2.94,0,0,1,1.66,1,2.75,2.75,0,0,1,.51,1.68,1.8,1.8,0,0,1-.52,1.42,1.84,1.84,0,0,1-1.65.13l-1.88-.5Zm.7,3.36V182l1.18.32c.53.13.9.12,1.11-.06a1.08,1.08,0,0,0,.33-.89,1.75,1.75,0,0,0-.33-1.07,1.91,1.91,0,0,0-1.11-.63Zm10.75.47-2.75-.73v5.83l-.7-.19v-6.62l4.16,1.11v6.61l-.71-.19Zm4.54,7.12a3.09,3.09,0,0,1-1-.46,3.39,3.39,0,0,1-.74-.81,4.5,4.5,0,0,1-.48-1.09,5.85,5.85,0,0,1-.16-1.37v-.58a3.88,3.88,0,0,1,.18-1.25,2.34,2.34,0,0,1,.46-.86,1.42,1.42,0,0,1,.74-.42,2,2,0,0,1,1,0,2.69,2.69,0,0,1,1,.47,3.07,3.07,0,0,1,.75.81,3.8,3.8,0,0,1,.47,1.1,5.33,5.33,0,0,1,.17,1.36v.57a4.34,4.34,0,0,1-.17,1.27,2.4,2.4,0,0,1-.48.85,1.41,1.41,0,0,1-.74.42A2.12,2.12,0,0,1,376.71,186.9Zm0-.81a1.12,1.12,0,0,0,1.17-.28,2.29,2.29,0,0,0,.45-1.59v-.58a3.32,3.32,0,0,0-.46-1.82,1.88,1.88,0,0,0-1.16-.89,1.08,1.08,0,0,0-1.17.28,2.2,2.2,0,0,0-.45,1.57v.58a3.39,3.39,0,0,0,.45,1.82A2.07,2.07,0,0,0,376.71,186.09Zm3,.8.16,0a.49.49,0,0,0,.64-.36,2.46,2.46,0,0,0,.19-.77,9.4,9.4,0,0,0,.08-1.34v-3.18l3.63,1v6.61l-.71-.18v-5.83l-2.22-.58v2.38a10.85,10.85,0,0,1-.11,1.68,3,3,0,0,1-.32,1,1,1,0,0,1-.52.44,1.35,1.35,0,0,1-.66,0l-.16,0Zm10.18.45-3-.79v3l-.7-.18v-6.62l.7.18v2.84l3,.8V183.7l.7.18v6.62l-.7-.18Zm4.54,4.27a2.73,2.73,0,0,1-1-.47,3.11,3.11,0,0,1-.73-.8,3.72,3.72,0,0,1-.48-1.09,5.42,5.42,0,0,1-.16-1.37v-.58a3.86,3.86,0,0,1,.17-1.25,2.1,2.1,0,0,1,.47-.85,1.39,1.39,0,0,1,.73-.44,2.32,2.32,0,0,1,1,.05,2.53,2.53,0,0,1,1,.47,3.07,3.07,0,0,1,.75.81,3.77,3.77,0,0,1,.47,1.1,5.31,5.31,0,0,1,.17,1.35v.59a4.27,4.27,0,0,1-.17,1.26,2.17,2.17,0,0,1-.48.86,1.38,1.38,0,0,1-.74.4A1.87,1.87,0,0,1,394.47,191.61Zm0-.82a1.12,1.12,0,0,0,1.18-.27,2.25,2.25,0,0,0,.45-1.59v-.58a3.33,3.33,0,0,0-.46-1.81,1.93,1.93,0,0,0-1.17-.91,1.12,1.12,0,0,0-1.17.29,2.21,2.21,0,0,0-.45,1.57v.58a3.3,3.3,0,0,0,.45,1.81A2,2,0,0,0,394.47,190.79Zm7.78,2.79-4.09-1.08v1.72l-.7-.19v-2.51l.57.15a4.19,4.19,0,0,0,.3-.6,3.82,3.82,0,0,0,.19-.71,8.82,8.82,0,0,0,.08-1q0-.56,0-1.38v-2l3.58.94v5.83l.74.19v2.52l-.7-.19Zm-2.91-5.4c0,.55,0,1,0,1.41s-.05.71-.09,1a3.34,3.34,0,0,1-.15.73,5.77,5.77,0,0,1-.22.58l2.65.7v-5l-2.16-.57Zm8.4,1.25-.66,1.2L405,194.3l-.88-.24v-6.61l.71.19v5.62l.66-1.21,2.13-3.67.88.23v6.61l-.71-.18Zm4.49,6.89a2.63,2.63,0,0,1-.94-.45,3.54,3.54,0,0,1-.72-.81,4,4,0,0,1-.47-1.09,5.34,5.34,0,0,1-.16-1.36V192a4.22,4.22,0,0,1,.16-1.25,2.21,2.21,0,0,1,.47-.86,1.48,1.48,0,0,1,.72-.42,1.79,1.79,0,0,1,.94,0,2.19,2.19,0,0,1,.79.35,2.37,2.37,0,0,1,.61.57,2.69,2.69,0,0,1,.43.71,3.81,3.81,0,0,1,.25.79l-.74-.19a2.85,2.85,0,0,0-.47-.88,1.49,1.49,0,0,0-.87-.53,1,1,0,0,0-1.13.29,2.28,2.28,0,0,0-.43,1.58v.58a4.67,4.67,0,0,0,.11,1,3,3,0,0,0,.33.8,2.38,2.38,0,0,0,.49.58,2.08,2.08,0,0,0,.63.32,1,1,0,0,0,.88-.1,1.45,1.45,0,0,0,.46-.74l.74.19a2.09,2.09,0,0,1-.67,1.27A1.51,1.51,0,0,1,412.23,196.32Zm5.07-1.79-.95-.25v3l-.7-.19v-6.61l.7.19v2.78l.95.25,1.52-2.37.88.23-1.76,2.72,2,4L419,198Zm5.6,4.63a2.93,2.93,0,0,1-1.7-1.28,3.67,3.67,0,0,1-.48-1.1,5.29,5.29,0,0,1-.16-1.36v-.58a3.86,3.86,0,0,1,.17-1.25,2.21,2.21,0,0,1,.47-.86,1.44,1.44,0,0,1,.73-.43,2.32,2.32,0,0,1,1,0,3.05,3.05,0,0,1,1,.46,3.46,3.46,0,0,1,.75.82,3.77,3.77,0,0,1,.47,1.1,5.31,5.31,0,0,1,.17,1.35v.59a4.27,4.27,0,0,1-.17,1.26,2.38,2.38,0,0,1-.48.86,1.38,1.38,0,0,1-.74.4A2,2,0,0,1,422.9,199.16Zm0-.83a1.1,1.1,0,0,0,1.18-.27,2.26,2.26,0,0,0,.44-1.59v-.57a3.34,3.34,0,0,0-.45-1.82,2,2,0,0,0-1.17-.91,1.1,1.1,0,0,0-1.17.29,2.23,2.23,0,0,0-.45,1.58v.57a3.36,3.36,0,0,0,.45,1.82A2,2,0,0,0,422.9,198.33Zm3.84-4.86,2,.52a2.44,2.44,0,0,1,1.42.87,2.3,2.3,0,0,1,.45,1.43,1.56,1.56,0,0,1-.17.74,1,1,0,0,1-.51.46,2.24,2.24,0,0,1,.67.81,2.17,2.17,0,0,1,.22,1,1.62,1.62,0,0,1-.44,1.28,1.56,1.56,0,0,1-1.42.12l-2.19-.58Zm.7,3.81v2.19l1.49.39a1,1,0,0,0,.88,0,.93.93,0,0,0,.26-.75,1.48,1.48,0,0,0-.26-.88,1.53,1.53,0,0,0-.88-.51Zm0-2.84v2.05l1.27.34a1.07,1.07,0,0,0,.89,0,.87.87,0,0,0,.26-.7,1.31,1.31,0,0,0-.26-.81,1.56,1.56,0,0,0-.89-.51Zm6.87,7.74a2.88,2.88,0,0,1-1.71-1.28,4.43,4.43,0,0,1-.48-1.08,6,6,0,0,1-.16-1.37v-.59a4.2,4.2,0,0,1,.17-1.25,2.22,2.22,0,0,1,.47-.85,1.4,1.4,0,0,1,.74-.43,2,2,0,0,1,1,0,2.61,2.61,0,0,1,1,.47,3.19,3.19,0,0,1,.75.8,4,4,0,0,1,.47,1.11,5.25,5.25,0,0,1,.17,1.35v.58a4.34,4.34,0,0,1-.17,1.27,2.49,2.49,0,0,1-.48.85,1.4,1.4,0,0,1-.74.41A2.11,2.11,0,0,1,434.31,202.18Zm0-.82a1.09,1.09,0,0,0,1.17-.28,2.24,2.24,0,0,0,.45-1.58v-.58a3.28,3.28,0,0,0-.46-1.82,1.89,1.89,0,0,0-1.16-.9,1.11,1.11,0,0,0-1.17.28,2.23,2.23,0,0,0-.45,1.58v.58a3.33,3.33,0,0,0,.45,1.81A2,2,0,0,0,434.31,201.36Zm5.81,2.36a2.8,2.8,0,0,1-1.67-1.24,4.46,4.46,0,0,1-.62-2.47v-.59a3,3,0,0,1,.62-2.14,1.62,1.62,0,0,1,1.67-.36,2.79,2.79,0,0,1,1.67,1.24,4.61,4.61,0,0,1,.62,2.48v.54l-3.86-1v0A3.5,3.5,0,0,0,439,202a1.89,1.89,0,0,0,1.14.87,1.13,1.13,0,0,0,1-.08,1.38,1.38,0,0,0,.52-.73l.72.2a2.55,2.55,0,0,1-.25.72,1.57,1.57,0,0,1-.45.53,1.61,1.61,0,0,1-.66.26A2.53,2.53,0,0,1,440.12,203.72Zm0-6A1.06,1.06,0,0,0,439,198a2.24,2.24,0,0,0-.46,1.41l3.13.82a3.26,3.26,0,0,0-.47-1.67A1.88,1.88,0,0,0,440.12,197.74Zm6.46,1,.7.19v5.82l2.09.56v-5.82l.7.19v5.82l2.1.55V200.2l.7.19V207l-6.29-1.67Zm11.77,4.13-.66,1.2-2.13,3.67-.88-.23v-6.61l.7.18v5.63l.67-1.22,2.13-3.67.87.24v6.61l-.7-.19Zm4.6,6.93a3.42,3.42,0,0,1-1-.48,3.74,3.74,0,0,1-.75-.83,3.78,3.78,0,0,1-.48-1.1,4.82,4.82,0,0,1-.17-1.34v-.58a3.83,3.83,0,0,1,.17-1.24,2.24,2.24,0,0,1,.49-.85,1.45,1.45,0,0,1,.75-.42,2.09,2.09,0,0,1,1,0l.39.11v-2.55l.71.18v2.56l.39.1a2.64,2.64,0,0,1,1,.48,3.12,3.12,0,0,1,.76.82,3.8,3.8,0,0,1,.49,1.12,5.08,5.08,0,0,1,.17,1.32v.59a4,4,0,0,1-.18,1.25,2,2,0,0,1-.49.85,1.53,1.53,0,0,1-.76.41,2,2,0,0,1-1,0l-.39-.11v2.56l-.71-.19v-2.55Zm-1.68-3.56a3.31,3.31,0,0,0,.46,1.83A2.13,2.13,0,0,0,463,209l.39.1V203.9l-.39-.1a1.14,1.14,0,0,0-1.22.25,2.21,2.21,0,0,0-.46,1.59Zm2.78-2.13v5.16l.39.1a1.17,1.17,0,0,0,1.22-.26,2.21,2.21,0,0,0,.46-1.58v-.59a3.3,3.3,0,0,0-.46-1.81,2,2,0,0,0-1.22-.92Zm6.67,7.75a2.58,2.58,0,0,1-1-.51,3.06,3.06,0,0,1-.71-1V214l-.7-.19v-9.27l.54.15.09,1.13a1.44,1.44,0,0,1,.71-.71,1.66,1.66,0,0,1,1,0,2.44,2.44,0,0,1,.85.43,2.66,2.66,0,0,1,.67.77,4.42,4.42,0,0,1,.42,1.08,6,6,0,0,1,.16,1.39v.59a4.75,4.75,0,0,1-.16,1.28,2.43,2.43,0,0,1-.42.87,1.32,1.32,0,0,1-.67.43A2.06,2.06,0,0,1,470.72,211.84Zm-.15-.86a1,1,0,0,0,1.11-.27,2.47,2.47,0,0,0,.41-1.62v-.58a3.44,3.44,0,0,0-.42-1.83,1.78,1.78,0,0,0-1.1-.86,1,1,0,0,0-1.08.26,2.24,2.24,0,0,0-.45,1.51v.69a3.43,3.43,0,0,0,.43,1.82A1.88,1.88,0,0,0,470.57,211Zm5.77,2.34a2.76,2.76,0,0,1-1-.46,3.29,3.29,0,0,1-.73-.8,4.23,4.23,0,0,1-.49-1.1,5.85,5.85,0,0,1-.16-1.37V209a4.1,4.1,0,0,1,.17-1.25,2.36,2.36,0,0,1,.48-.86,1.5,1.5,0,0,1,.73-.42,2,2,0,0,1,1,.05,2.55,2.55,0,0,1,1,.46,3.17,3.17,0,0,1,.75.8,3.48,3.48,0,0,1,.47,1.11,5.27,5.27,0,0,1,.17,1.36v.58a4.32,4.32,0,0,1-.17,1.26,2.06,2.06,0,0,1-.48.85,1.48,1.48,0,0,1-.74.42A2,2,0,0,1,476.34,213.32Zm0-.82a1.11,1.11,0,0,0,1.17-.27,2.33,2.33,0,0,0,.44-1.58v-.59a3.35,3.35,0,0,0-.45-1.81,2,2,0,0,0-1.16-.91,1.13,1.13,0,0,0-1.18.29,2.2,2.2,0,0,0-.45,1.57v.59a3.37,3.37,0,0,0,.45,1.81A2,2,0,0,0,476.34,212.5Zm3.83-4.87,2,.53a2.55,2.55,0,0,1,1.42.86,2.44,2.44,0,0,1,.44,1.45,1.51,1.51,0,0,1-.17.73,1,1,0,0,1-.51.46,2.16,2.16,0,0,1,.67.81,2.12,2.12,0,0,1,.23,1,1.55,1.55,0,0,1-.46,1.27,1.5,1.5,0,0,1-1.41.13l-2.19-.58Zm.7,3.83v2.18l1.49.4a1,1,0,0,0,.88,0,.93.93,0,0,0,.26-.75,1.41,1.41,0,0,0-.26-.87,1.43,1.43,0,0,0-.88-.51Zm0-2.84v2l1.28.34a1.08,1.08,0,0,0,.88,0,.84.84,0,0,0,.25-.7,1.25,1.25,0,0,0-.25-.8,1.46,1.46,0,0,0-.88-.51Zm6.13,7.53a2.05,2.05,0,0,1-1.23-.83,2.62,2.62,0,0,1-.43-1.53,2.59,2.59,0,0,1,.12-.83,1.19,1.19,0,0,1,.39-.56,1.48,1.48,0,0,1,.7-.21,3,3,0,0,1,1,.12l1.22.32V212a1.91,1.91,0,0,0-.29-1.12,1.5,1.5,0,0,0-.93-.59,1,1,0,0,0-.89,0,.91.91,0,0,0-.33.68l-.75-.2a2.12,2.12,0,0,1,.15-.71,1.17,1.17,0,0,1,.37-.5,1.21,1.21,0,0,1,.61-.22,2.31,2.31,0,0,1,.84.07,2.36,2.36,0,0,1,1.43,1,3,3,0,0,1,.49,1.76v4.49l-.55-.14-.1-1.27a1.6,1.6,0,0,1-.77.79A1.58,1.58,0,0,1,487,216.15Zm0-.81a1.25,1.25,0,0,0,.69,0,1.14,1.14,0,0,0,.55-.3,1.33,1.33,0,0,0,.38-.56,2.11,2.11,0,0,0,.14-.77v-.3l-1.22-.33a1.39,1.39,0,0,0-1.17.05,1,1,0,0,0-.34.83,1.5,1.5,0,0,0,.25.88A1.22,1.22,0,0,0,487,215.34Zm7.89-.16-3-.78v3l-.7-.19v-6.62l.7.19v2.84l3,.79v-2.85l.7.19v6.62l-.7-.19Zm6.19-1-.67,1.2-2.13,3.67-.87-.23v-6.61l.7.18V218l.66-1.22,2.14-3.67.86.24V220l-.69-.19Zm4.48,6.9a2.87,2.87,0,0,1-1.67-1.24,4.56,4.56,0,0,1-.62-2.48v-.58a3,3,0,0,1,.62-2.14,1.6,1.6,0,0,1,1.67-.36,2.76,2.76,0,0,1,1.67,1.24,4.48,4.48,0,0,1,.63,2.47v.55l-3.86-1v0a3.51,3.51,0,0,0,.42,1.84,1.92,1.92,0,0,0,1.14.87,1.19,1.19,0,0,0,1-.08,1.47,1.47,0,0,0,.51-.73l.72.19a2.62,2.62,0,0,1-.25.73,1.46,1.46,0,0,1-.45.53,1.49,1.49,0,0,1-.66.25A2.52,2.52,0,0,1,505.6,221.09Zm0-6a1,1,0,0,0-1.1.24,2.1,2.1,0,0,0-.46,1.4l3.12.83a3.21,3.21,0,0,0-.47-1.67A1.79,1.79,0,0,0,505.6,215.11Zm10.13,5.59-3-.78v3l-.71-.18v-6.62l.71.19v2.84l3,.79v-2.85l.7.19v6.62l-.7-.19Zm3.79,4.08a2.11,2.11,0,0,1-1.21-.83,2.54,2.54,0,0,1-.44-1.53,2.91,2.91,0,0,1,.12-.83,1.23,1.23,0,0,1,.4-.56,1.35,1.35,0,0,1,.7-.21,2.81,2.81,0,0,1,1,.12l1.22.32v-.6a2,2,0,0,0-.28-1.11,1.58,1.58,0,0,0-.94-.6,1.05,1.05,0,0,0-.88.06.84.84,0,0,0-.33.68l-.76-.2a2,2,0,0,1,.15-.72,1.21,1.21,0,0,1,.37-.49,1.12,1.12,0,0,1,.61-.22,2.29,2.29,0,0,1,.84.07,2.41,2.41,0,0,1,1.44,1,3,3,0,0,1,.49,1.75v4.5l-.55-.14-.1-1.28a1.67,1.67,0,0,1-.77.8A1.64,1.64,0,0,1,519.52,224.78Zm.06-.81a1.33,1.33,0,0,0,.68,0,1.38,1.38,0,0,0,.93-.87,2.15,2.15,0,0,0,.14-.77v-.31l-1.22-.32a1.39,1.39,0,0,0-1.17.05,1,1,0,0,0-.34.83,1.59,1.59,0,0,0,.24.88A1.24,1.24,0,0,0,519.58,224Zm8.53-.05-1-.25v3l-.7-.19v-6.61l.7.19v2.78l1,.25,1.53-2.38.88.24-1.77,2.72,2,3.95-.87-.24Zm5.6,4.63a2.89,2.89,0,0,1-1-.48,3,3,0,0,1-.74-.8,3.67,3.67,0,0,1-.48-1.1,5.29,5.29,0,0,1-.16-1.36v-.58a3.9,3.9,0,0,1,.17-1.25,2.21,2.21,0,0,1,.47-.86,1.47,1.47,0,0,1,.74-.43,2.12,2.12,0,0,1,1,.05,2.85,2.85,0,0,1,1,.46,3.1,3.1,0,0,1,.75.82,3.59,3.59,0,0,1,.47,1.09,5,5,0,0,1,.17,1.36v.58a4,4,0,0,1-.17,1.27,2.13,2.13,0,0,1-.48.85,1.3,1.3,0,0,1-.74.41A2.1,2.1,0,0,1,533.71,228.55Zm0-.83a1.12,1.12,0,0,0,1.18-.27,2.34,2.34,0,0,0,.44-1.59v-.58a3.3,3.3,0,0,0-.46-1.82,1.94,1.94,0,0,0-1.16-.9,1.1,1.1,0,0,0-1.17.29,2.2,2.2,0,0,0-.45,1.57V225a3.39,3.39,0,0,0,.45,1.82A2,2,0,0,0,533.71,227.72Zm5.12-2.15-.58-1.58v5.66l-.69-.19v-6.61l1,.26,1.76,4.56L542,224l1,.25v6.62l-.7-.19v-5.66l-.58,1.27-1.08,2.3-.71-.19Zm9.43.92-2.76-.73v5.82l-.7-.19v-6.61l4.16,1.1v6.62l-.7-.19Zm2.51-.14.71.19v2.38l1.18.32a2.79,2.79,0,0,1,1.65,1,2.75,2.75,0,0,1,.51,1.68,1.76,1.76,0,0,1-.52,1.41,1.8,1.8,0,0,1-1.64.13l-1.89-.5Zm.71,3.37v2.64l1.18.32a1.29,1.29,0,0,0,1.11-.05,1.08,1.08,0,0,0,.33-.89,1.71,1.71,0,0,0-.33-1.07,2,2,0,0,0-1.11-.64Zm8.78,5.86a2.7,2.7,0,0,1-.92-.44,3.12,3.12,0,0,1-.71-.78,4.15,4.15,0,0,1-.45-1.09,4.82,4.82,0,0,1-.17-1.36l-1.2-.31v3l-.7-.19v-6.62l.7.19v2.84l1.2.32a4.07,4.07,0,0,1,.18-1.18,2,2,0,0,1,.48-.8,1.34,1.34,0,0,1,.7-.4,2.1,2.1,0,0,1,.89,0,2.45,2.45,0,0,1,.91.46,3,3,0,0,1,.71.79,3.69,3.69,0,0,1,.45,1.11,4.75,4.75,0,0,1,.17,1.35v.58a4.09,4.09,0,0,1-.17,1.28,2,2,0,0,1-.45.84,1.44,1.44,0,0,1-.72.42A1.74,1.74,0,0,1,560.26,235.58Zm0-.82a1,1,0,0,0,1.09-.29,2.38,2.38,0,0,0,.43-1.6v-.57a3.89,3.89,0,0,0-.12-1,2.85,2.85,0,0,0-.32-.81,2,2,0,0,0-.48-.56,1.52,1.52,0,0,0-.6-.32,1,1,0,0,0-1.1.29,2.38,2.38,0,0,0-.43,1.59v.59a3.55,3.55,0,0,0,.43,1.82A1.86,1.86,0,0,0,560.26,234.76Zm2.9-5.12,4.26,1.14v.79l-1.78-.47v5.82l-.71-.19v-5.82l-1.77-.47Zm7.2,8.62a2.81,2.81,0,0,1-1.68-1.24,4.52,4.52,0,0,1-.61-2.47V234a3,3,0,0,1,.61-2.13,1.63,1.63,0,0,1,1.68-.37,2.76,2.76,0,0,1,1.66,1.25,4.38,4.38,0,0,1,.63,2.47v.54l-3.86-1v0a3.37,3.37,0,0,0,.43,1.83,1.89,1.89,0,0,0,1.14.87,1.14,1.14,0,0,0,1-.08,1.4,1.4,0,0,0,.52-.72l.72.19a2.74,2.74,0,0,1-.26.73,1.62,1.62,0,0,1-.44.53,1.74,1.74,0,0,1-.66.25A2.31,2.31,0,0,1,570.36,238.26Zm0-6a1.07,1.07,0,0,0-1.11.24,2.24,2.24,0,0,0-.46,1.41l3.13.82a3.08,3.08,0,0,0-.48-1.67A1.83,1.83,0,0,0,570.36,232.28Zm6.18,7.62a2.49,2.49,0,0,1-1-.51,2.68,2.68,0,0,1-.7-1V242l-.71-.18v-9.26l.55.14.08,1.14a1.4,1.4,0,0,1,.71-.71,1.69,1.69,0,0,1,1,0,2.37,2.37,0,0,1,.84.42,2.77,2.77,0,0,1,.66.77,3.53,3.53,0,0,1,.43,1.08,5.42,5.42,0,0,1,.16,1.39v.58a4.53,4.53,0,0,1-.16,1.3,2.22,2.22,0,0,1-.43.87,1.25,1.25,0,0,1-.66.41A1.6,1.6,0,0,1,576.54,239.9Zm-.16-.86a1,1,0,0,0,1.1-.27,2.32,2.32,0,0,0,.42-1.61v-.59a3.35,3.35,0,0,0-.43-1.83,1.77,1.77,0,0,0-1.09-.86,1,1,0,0,0-1.08.27,2.18,2.18,0,0,0-.44,1.5v.69a3.59,3.59,0,0,0,.42,1.83A1.83,1.83,0,0,0,576.38,239Zm5.71,2.33a2.85,2.85,0,0,1-1.68-1.24,4.61,4.61,0,0,1-.61-2.47v-.59a3.11,3.11,0,0,1,.61-2.14,1.63,1.63,0,0,1,1.68-.35,2.74,2.74,0,0,1,1.67,1.24,4.57,4.57,0,0,1,.62,2.47v.54l-3.85-1v0a3.51,3.51,0,0,0,.42,1.84,1.89,1.89,0,0,0,1.14.87,1.16,1.16,0,0,0,1-.08,1.44,1.44,0,0,0,.51-.72l.72.19a2.73,2.73,0,0,1-.25.73,1.55,1.55,0,0,1-.45.53,1.67,1.67,0,0,1-.67.25A2.49,2.49,0,0,1,582.09,241.37Zm0-6a1,1,0,0,0-1.11.25,2.13,2.13,0,0,0-.45,1.4l3.11.83a3.12,3.12,0,0,0-.46-1.67A1.86,1.86,0,0,0,582.09,235.39Z" transform="translate(-0.23 -0.02)"/><path class="cls-8" d="M289.87,145.35l16.77,4.44a4.2,4.2,0,0,1,2.66,4V174.6c0,1.82-1.19,3-2.66,2.6l-16.77-4.45a4.2,4.2,0,0,1-2.66-4V148C287.21,146.12,288.4,145,289.87,145.35Z" transform="translate(-0.23 -0.02)"/><path class="cls-9" d="M696.61,267l-1-.27v3.72l-.63-.17v-7.94l.63.17V266l1,.27,2.06-2.95.78.21-2.3,3.23,2.48,4.76-.79-.21Zm5.12,5.15a1.76,1.76,0,0,1-1.06-.71,2.22,2.22,0,0,1-.36-1.31,2.55,2.55,0,0,1,.09-.71.94.94,0,0,1,.34-.47,1.13,1.13,0,0,1,.61-.2,2.7,2.7,0,0,1,.88.11l1,.28v-.52a1.71,1.71,0,0,0-.25-1,1.26,1.26,0,0,0-.79-.5.89.89,0,0,0-.77.05.77.77,0,0,0-.28.58l-.64-.18a1.6,1.6,0,0,1,.12-.6,1,1,0,0,1,.32-.43,1,1,0,0,1,.52-.19,2.17,2.17,0,0,1,2,.89,2.61,2.61,0,0,1,.42,1.51v3.85l-.46-.12-.1-1.09a1.35,1.35,0,0,1-.66.67A1.31,1.31,0,0,1,701.73,272.14Zm0-.69a1.09,1.09,0,0,0,.59,0,1.07,1.07,0,0,0,.48-.26,1.21,1.21,0,0,0,.31-.48,1.59,1.59,0,0,0,.13-.66v-.26l-1-.28a1.22,1.22,0,0,0-1,0,.87.87,0,0,0-.3.72,1.29,1.29,0,0,0,.22.74A1.07,1.07,0,0,0,701.76,271.45Zm5-.65-.81-.22v2.61l-.61-.16v-5.67l.61.16v2.38l.81.22,1.31-2,.75.19-1.51,2.34L709,274l-.75-.2Zm6.4,1.08,1.85.48a3.19,3.19,0,0,0-.12-.79,2.34,2.34,0,0,0-.28-.64,1.62,1.62,0,0,0-.43-.47,1.3,1.3,0,0,0-.52-.27.92.92,0,0,0-.75.06,1.2,1.2,0,0,0-.39.55l-.64-.17a2,2,0,0,1,.21-.57,1.23,1.23,0,0,1,.37-.41,1.16,1.16,0,0,1,.52-.22,1.82,1.82,0,0,1,.68.05,2.29,2.29,0,0,1,.79.41,2.6,2.6,0,0,1,.63.69,3.07,3.07,0,0,1,.4.94,3.88,3.88,0,0,1,.15,1.09v.5a3.77,3.77,0,0,1-.15,1.13,1.71,1.71,0,0,1-.4.73,1.13,1.13,0,0,1-.63.37,1.64,1.64,0,0,1-.79,0,2.13,2.13,0,0,1-1.2-.81,3.32,3.32,0,0,1-.58-1.39l.64.17a2.39,2.39,0,0,0,.39.85,1.38,1.38,0,0,0,.75.48,1,1,0,0,0,.95-.24A2,2,0,0,0,715,273l-1.85-.48Zm3-1.65,3.66,1v.68l-1.53-.4v5l-.61-.16v-5l-1.52-.41Zm6.22,7.4a2.28,2.28,0,0,1-.83-.4,2.61,2.61,0,0,1-.63-.69,3.28,3.28,0,0,1-.41-.93,4.81,4.81,0,0,1-.14-1.17v-.5a3.63,3.63,0,0,1,.15-1.07,1.8,1.8,0,0,1,.4-.74,1.23,1.23,0,0,1,.63-.37,1.7,1.7,0,0,1,.83.05,2,2,0,0,1,.82.4,2.52,2.52,0,0,1,.65.69,3,3,0,0,1,.4.94,4.34,4.34,0,0,1,.14,1.16v.5a3.56,3.56,0,0,1-.14,1.09,2,2,0,0,1-.41.73,1.16,1.16,0,0,1-.64.35A1.55,1.55,0,0,1,722.43,277.63Zm0-.7a1,1,0,0,0,1-.24,1.89,1.89,0,0,0,.38-1.36v-.49a2.86,2.86,0,0,0-.39-1.56,1.65,1.65,0,0,0-1-.77.94.94,0,0,0-1,.24,1.91,1.91,0,0,0-.39,1.36v.49a2.86,2.86,0,0,0,.39,1.56A1.7,1.7,0,0,0,722.43,276.93Zm7.27,2.63a2.38,2.38,0,0,1-.8-.39,2.79,2.79,0,0,1-.63-.69,3.58,3.58,0,0,1-.4-.93,4.83,4.83,0,0,1-.14-1.18v-.5a3.8,3.8,0,0,1,.14-1.07,1.88,1.88,0,0,1,.4-.73,1.28,1.28,0,0,1,.63-.37,1.48,1.48,0,0,1,.8,0,2.2,2.2,0,0,1,.68.3,2,2,0,0,1,.52.49,2.68,2.68,0,0,1,.37.61,3,3,0,0,1,.21.68l-.64-.17a2.28,2.28,0,0,0-.39-.76,1.33,1.33,0,0,0-.75-.45.91.91,0,0,0-1,.25,2,2,0,0,0-.37,1.35v.5a3.33,3.33,0,0,0,.1.86,2.43,2.43,0,0,0,.28.69,2.1,2.1,0,0,0,.42.5,1.52,1.52,0,0,0,.54.27.81.81,0,0,0,.75-.08,1.19,1.19,0,0,0,.39-.64l.64.17a1.88,1.88,0,0,1-.57,1.09A1.29,1.29,0,0,1,729.7,279.56Zm6.3,1.6-3.5-.93v1.47l-.6-.16v-2.15l.48.12a2.58,2.58,0,0,0,.27-.52,2.92,2.92,0,0,0,.15-.6,6.46,6.46,0,0,0,.07-.84c0-.33,0-.72,0-1.19v-1.7l3.06.82v5l.65.17v2.15l-.61-.16Zm-2.49-4.64c0,.47,0,.87,0,1.21a6.65,6.65,0,0,1-.08.86,3.41,3.41,0,0,1-.12.62,5,5,0,0,1-.2.49l2.28.6V276l-1.85-.5Zm5.74,5.58a2.42,2.42,0,0,1-1.43-1.07,3.87,3.87,0,0,1-.53-2.12v-.5a2.61,2.61,0,0,1,.53-1.83,1.36,1.36,0,0,1,1.43-.31,2.29,2.29,0,0,1,1.43,1.07,3.8,3.8,0,0,1,.54,2.11v.47l-3.31-.88v0a2.9,2.9,0,0,0,.37,1.57,1.64,1.64,0,0,0,1,.74,1,1,0,0,0,.86-.06,1.24,1.24,0,0,0,.45-.63l.62.17a2.48,2.48,0,0,1-.23.63,1.36,1.36,0,0,1-.37.45,1.44,1.44,0,0,1-.57.21A1.86,1.86,0,0,1,739.25,282.1Zm0-5.13a.89.89,0,0,0-.94.22,1.76,1.76,0,0,0-.4,1.2l2.68.71a2.73,2.73,0,0,0-.4-1.44A1.57,1.57,0,0,0,739.25,277Zm2.56,5.1.15,0a.44.44,0,0,0,.3,0,.54.54,0,0,0,.24-.3,1.66,1.66,0,0,0,.16-.65,7.33,7.33,0,0,0,.07-1.16v-2.72l3.11.82v5.67l-.6-.16v-5l-1.9-.5v2a7.31,7.31,0,0,1-.11,1.45,2.56,2.56,0,0,1-.27.86.86.86,0,0,1-.44.37,1,1,0,0,1-.56,0l-.15,0Zm6.69,2.48a1.76,1.76,0,0,1-1.06-.71,2.32,2.32,0,0,1-.36-1.31,2.45,2.45,0,0,1,.09-.71,1,1,0,0,1,.34-.48,1.13,1.13,0,0,1,.61-.19,2.66,2.66,0,0,1,.88.1l1,.28V281a1.63,1.63,0,0,0-.25-1,1.34,1.34,0,0,0-.79-.51.86.86,0,0,0-.76.06.69.69,0,0,0-.28.57l-.66-.17a2,2,0,0,1,.13-.61,1,1,0,0,1,.85-.62,1.9,1.9,0,0,1,.72.07,2.06,2.06,0,0,1,1.22.82,2.61,2.61,0,0,1,.42,1.51V285l-.46-.12-.1-1.1a1.37,1.37,0,0,1-.66.68A1.43,1.43,0,0,1,748.5,284.55Zm0-.69a1.27,1.27,0,0,0,.58,0,1.13,1.13,0,0,0,.48-.27,1.1,1.1,0,0,0,.32-.48,1.76,1.76,0,0,0,.12-.66v-.26l-1-.28a1.21,1.21,0,0,0-1,.05.86.86,0,0,0-.29.71,1.32,1.32,0,0,0,.21.75A1.14,1.14,0,0,0,748.54,283.86Zm3-4.26,3.66,1v.68l-1.53-.41v5l-.61-.16v-5l-1.52-.4Zm4.66,1.23.6.16V283l1,.26a2.43,2.43,0,0,1,1.42.87,2.35,2.35,0,0,1,.44,1.44,1.51,1.51,0,0,1-.45,1.21,1.58,1.58,0,0,1-1.41.11l-1.62-.43Zm.6,2.89V286l1,.27a1.12,1.12,0,0,0,1,0,.92.92,0,0,0,.28-.76,1.46,1.46,0,0,0-.28-.92,1.65,1.65,0,0,0-1-.55Z" transform="translate(-0.23 -0.02)"/><path class="cls-10" d="M762.71,282.56l3.81,5.74,3.81-3.71" transform="translate(-0.23 -0.02)"/><path class="cls-6" d="M267.58,198.72l2.27-2.18.51-.53a2.2,2.2,0,0,0,.37-.46,1.5,1.5,0,0,0,.31-.91,2,2,0,0,0-.38-1.2,1.73,1.73,0,0,0-1-.71,1,1,0,0,0-1,.17,1.25,1.25,0,0,0-.37,1l-.66-.17a2.41,2.41,0,0,1,.15-.87,1.4,1.4,0,0,1,.41-.61,1.13,1.13,0,0,1,.65-.3,1.9,1.9,0,0,1,.85,0,2.68,2.68,0,0,1,.85.41,3.08,3.08,0,0,1,.65.65,3.56,3.56,0,0,1,.41.83,3.13,3.13,0,0,1,.14.95,2.06,2.06,0,0,1-.36,1.19,6.51,6.51,0,0,1-1,1.12l-1.93,1.82,3.29.88v.72l-4.11-1.09Z" transform="translate(-0.23 -0.02)"/><path class="cls-7" d="M323.07,206.7,319,205.62V214l-.75-.2v-9.26l5.55,1.47v9.27l-.74-.2Zm5,9.82a2.25,2.25,0,0,1-1-.51,2.56,2.56,0,0,1-.7-1v3.61l-.71-.18v-9.26l.54.14.09,1.14a1.36,1.36,0,0,1,.71-.71,1.69,1.69,0,0,1,1.05,0,2.22,2.22,0,0,1,.84.42,2.61,2.61,0,0,1,.66.77A3.53,3.53,0,0,1,330,212a5.42,5.42,0,0,1,.16,1.39V214a4.53,4.53,0,0,1-.16,1.3,2.22,2.22,0,0,1-.43.87,1.22,1.22,0,0,1-.66.41A1.52,1.52,0,0,1,328.07,216.52Zm-.16-.86a1,1,0,0,0,1.11-.26,2.39,2.39,0,0,0,.42-1.62v-.58a3.44,3.44,0,0,0-.43-1.83,1.78,1.78,0,0,0-1.1-.86,1,1,0,0,0-1.08.27,2.18,2.18,0,0,0-.44,1.5V213a3.59,3.59,0,0,0,.42,1.83A1.8,1.8,0,0,0,327.91,215.66Zm5.77,2.36a3,3,0,0,1-1-.47,3.19,3.19,0,0,1-.74-.81,3.72,3.72,0,0,1-.48-1.09,5.34,5.34,0,0,1-.16-1.36v-.59a4.2,4.2,0,0,1,.17-1.25,2.21,2.21,0,0,1,.47-.86,1.38,1.38,0,0,1,.74-.42,2.16,2.16,0,0,1,1,0,3.07,3.07,0,0,1,1,.47,3,3,0,0,1,.74.81,3.48,3.48,0,0,1,.47,1.11A4.8,4.8,0,0,1,336,215v.58a4,4,0,0,1-.17,1.26,2.24,2.24,0,0,1-.48.86,1.37,1.37,0,0,1-.73.41A2.26,2.26,0,0,1,333.68,218Zm0-.82a1.13,1.13,0,0,0,1.17-.28,2.25,2.25,0,0,0,.45-1.59v-.57a3.28,3.28,0,0,0-.46-1.82,1.92,1.92,0,0,0-1.16-.9,1.09,1.09,0,0,0-1.18.28,2.23,2.23,0,0,0-.44,1.58v.57a3.34,3.34,0,0,0,.44,1.82A2,2,0,0,0,333.68,217.2Zm3.83-4.87,2,.52a2.44,2.44,0,0,1,1.42.87,2.32,2.32,0,0,1,.45,1.43,1.45,1.45,0,0,1-.18.74,1,1,0,0,1-.51.46,2.17,2.17,0,0,1,.67.82,2.11,2.11,0,0,1,.23,1,1.6,1.6,0,0,1-.45,1.28,1.56,1.56,0,0,1-1.42.12l-2.19-.58Zm.71,3.82v2.18l1.48.4a1,1,0,0,0,.89,0,.91.91,0,0,0,.25-.75,1.47,1.47,0,0,0-.25-.88,1.68,1.68,0,0,0-.89-.51Zm0-2.85v2l1.27.34c.42.12.71.11.88,0a.85.85,0,0,0,.26-.69,1.32,1.32,0,0,0-.26-.82,1.64,1.64,0,0,0-.88-.51ZM345,221a2.75,2.75,0,0,1-1.67-1.23,4.5,4.5,0,0,1-.62-2.48v-.59a3,3,0,0,1,.62-2.13,1.58,1.58,0,0,1,1.67-.36,2.68,2.68,0,0,1,1.66,1.25,4.45,4.45,0,0,1,.63,2.46v.55l-3.86-1v0a3.35,3.35,0,0,0,.43,1.83,1.87,1.87,0,0,0,1.14.88,1.16,1.16,0,0,0,1-.08,1.44,1.44,0,0,0,.52-.72l.72.19a3.05,3.05,0,0,1-.25.72,1.67,1.67,0,0,1-.45.53,1.59,1.59,0,0,1-.66.25A2,2,0,0,1,345,221Zm0-6a1,1,0,0,0-1.11.25,2.17,2.17,0,0,0-.46,1.4l3.13.83a3.24,3.24,0,0,0-.47-1.68A1.84,1.84,0,0,0,345,215.05Zm6.18,7.62a2.78,2.78,0,0,1-1-.51,3,3,0,0,1-.71-1v3.62l-.7-.19v-9.27l.54.15.09,1.13a1.4,1.4,0,0,1,.71-.71,1.69,1.69,0,0,1,1,0,2.56,2.56,0,0,1,1.5,1.19,4,4,0,0,1,.43,1.08,6.12,6.12,0,0,1,.16,1.4v.58a4.78,4.78,0,0,1-.16,1.29,2.15,2.15,0,0,1-.43.87,1.18,1.18,0,0,1-.66.42A1.85,1.85,0,0,1,351.21,222.67Zm-.16-.87a1,1,0,0,0,1.11-.26,2.49,2.49,0,0,0,.41-1.62v-.59a3.49,3.49,0,0,0-.42-1.83,1.85,1.85,0,0,0-1.1-.86,1,1,0,0,0-1.08.27,2.28,2.28,0,0,0-.45,1.51v.68a3.44,3.44,0,0,0,.43,1.83A1.83,1.83,0,0,0,351.05,221.8Zm7.41-2.91-.66,1.2-2.14,3.66-.87-.23V216.9l.7.19v5.62l.66-1.2,2.14-3.67.87.23v6.61l-.7-.19Zm1.88-.51,4.26,1.13v.8l-1.78-.48v5.82l-.7-.19v-5.82l-1.78-.47Zm5.44,1.44.7.19v2.38l1.19.32a2.58,2.58,0,0,1,2.16,2.69,1.77,1.77,0,0,1-.52,1.41,1.83,1.83,0,0,1-1.64.13l-1.89-.5Zm.7,3.37v2.64l1.19.32a1.29,1.29,0,0,0,1.11-.05,1.1,1.1,0,0,0,.33-.9,1.75,1.75,0,0,0-.33-1.07,2,2,0,0,0-1.11-.63Zm7.3-1.25.7.19V228l2.09.56v-5.82l.71.19v5.82l2.09.55v-5.83l.7.19v6.62l-6.29-1.67Zm11.77,4.13-.66,1.2-2.13,3.67-.88-.23v-6.62l.71.19v5.63l.66-1.22,2.13-3.67.88.24v6.61l-.71-.19Zm4.6,6.93a3.06,3.06,0,0,1-1-.49,3.51,3.51,0,0,1-.76-.82,4.41,4.41,0,0,1-.48-1.1,5.23,5.23,0,0,1-.17-1.34v-.58a4.13,4.13,0,0,1,.17-1.24,2.24,2.24,0,0,1,.49-.85,1.57,1.57,0,0,1,.76-.43,2.19,2.19,0,0,1,1,0l.4.11v-2.55l.7.18v2.56l.39.1a2.61,2.61,0,0,1,1,.48,3.26,3.26,0,0,1,.75.82,3.46,3.46,0,0,1,.49,1.12,4.68,4.68,0,0,1,.18,1.32v.59a4,4,0,0,1-.19,1.25,2.09,2.09,0,0,1-.49.85,1.5,1.5,0,0,1-.75.41,1.94,1.94,0,0,1-1,0l-.39-.11v2.56l-.7-.19V233.1Zm-1.67-3.56a3.49,3.49,0,0,0,.44,1.83,2.13,2.13,0,0,0,1.23.9l.4.11v-5.16l-.4-.11a1.2,1.2,0,0,0-1.23.26,2.31,2.31,0,0,0-.44,1.59Zm2.77-2.13v5.16l.39.1a1.17,1.17,0,0,0,1.22-.26,2.18,2.18,0,0,0,.46-1.58v-.59a3.24,3.24,0,0,0-.46-1.81,2,2,0,0,0-1.22-.92Zm6.68,7.75a2.62,2.62,0,0,1-1-.51,3,3,0,0,1-.71-1v3.61l-.7-.18v-9.27l.54.15.09,1.13a1.48,1.48,0,0,1,.71-.71,1.69,1.69,0,0,1,1.05,0,2.39,2.39,0,0,1,.84.43,2.49,2.49,0,0,1,.66.77,3.64,3.64,0,0,1,.43,1.08,5.47,5.47,0,0,1,.16,1.39v.59a4.5,4.5,0,0,1-.16,1.29,2.17,2.17,0,0,1-.43.86,1.25,1.25,0,0,1-.66.43A1.86,1.86,0,0,1,397.93,235.06Zm-.16-.86a1,1,0,0,0,1.11-.27,2.41,2.41,0,0,0,.42-1.62v-.58a3.44,3.44,0,0,0-.43-1.83,1.75,1.75,0,0,0-1.1-.86,1,1,0,0,0-1.08.26,2.28,2.28,0,0,0-.45,1.51v.69a3.53,3.53,0,0,0,.43,1.82A1.91,1.91,0,0,0,397.77,234.2Zm5.77,2.34a2.63,2.63,0,0,1-1-.46,3.19,3.19,0,0,1-.74-.81,3.84,3.84,0,0,1-.48-1.09,5.37,5.37,0,0,1-.16-1.37v-.58a4.22,4.22,0,0,1,.17-1.26,2.17,2.17,0,0,1,.47-.85,1.45,1.45,0,0,1,.74-.42,1.92,1.92,0,0,1,1,.05,2.67,2.67,0,0,1,1,.46,3.14,3.14,0,0,1,.74.8,3.48,3.48,0,0,1,.47,1.11,4.87,4.87,0,0,1,.17,1.36v.58a4,4,0,0,1-.17,1.26,2.13,2.13,0,0,1-.48.85,1.45,1.45,0,0,1-.73.42A2,2,0,0,1,403.54,236.54Zm0-.82a1.11,1.11,0,0,0,1.17-.27,2.28,2.28,0,0,0,.45-1.58v-.59a3.35,3.35,0,0,0-.46-1.81,2,2,0,0,0-1.16-.91,1.13,1.13,0,0,0-1.18.29,2.2,2.2,0,0,0-.45,1.57V233a3.37,3.37,0,0,0,.45,1.81A2,2,0,0,0,403.54,235.72Zm3.83-4.87,2,.53a2.43,2.43,0,0,1,1.42.86,2.38,2.38,0,0,1,.44,1.45,1.41,1.41,0,0,1-.17.73,1,1,0,0,1-.51.46,2.16,2.16,0,0,1,.67.81,2.12,2.12,0,0,1,.23,1,1.58,1.58,0,0,1-.45,1.27,1.52,1.52,0,0,1-1.42.13l-2.19-.58Zm.71,3.83v2.18l1.48.4a1.05,1.05,0,0,0,.89,0,.93.93,0,0,0,.25-.75,1.4,1.4,0,0,0-.25-.87,1.46,1.46,0,0,0-.89-.51Zm0-2.85v2.06l1.27.34a1.08,1.08,0,0,0,.88,0,.84.84,0,0,0,.26-.7,1.31,1.31,0,0,0-.26-.81,1.53,1.53,0,0,0-.88-.51Zm6.12,7.54a2.1,2.1,0,0,1-1.23-.83,2.7,2.7,0,0,1-.43-1.53,2.59,2.59,0,0,1,.12-.83,1.28,1.28,0,0,1,.4-.56,1.45,1.45,0,0,1,.7-.21,3,3,0,0,1,1,.12l1.22.32v-.59a1.89,1.89,0,0,0-.29-1.12,1.52,1.52,0,0,0-.93-.6,1.05,1.05,0,0,0-.88.06.87.87,0,0,0-.33.68l-.76-.2a1.9,1.9,0,0,1,.15-.71,1.26,1.26,0,0,1,.37-.5,1.21,1.21,0,0,1,.61-.22,2.31,2.31,0,0,1,.84.07,2.36,2.36,0,0,1,1.43,1,3,3,0,0,1,.49,1.75v4.5l-.54-.14-.11-1.27a1.6,1.6,0,0,1-.77.79A1.58,1.58,0,0,1,414.2,239.37Zm.05-.81a1.22,1.22,0,0,0,.68,0,1.18,1.18,0,0,0,.56-.3,1.31,1.31,0,0,0,.37-.56A2.11,2.11,0,0,0,416,237v-.31l-1.22-.32a1.39,1.39,0,0,0-1.17.05,1,1,0,0,0-.34.83,1.57,1.57,0,0,0,.24.88A1.24,1.24,0,0,0,414.25,238.56Zm7.88-.16-3-.78v3l-.7-.18v-6.62l.7.19v2.84l3,.79v-2.85l.7.19v6.62l-.7-.19Zm6.19-1-.66,1.2-2.14,3.67-.87-.23v-6.61l.7.18v5.63L426,240l2.14-3.67.87.24v6.61l-.7-.19Zm4.49,6.9a2.86,2.86,0,0,1-1.68-1.24,4.56,4.56,0,0,1-.62-2.48V240a3,3,0,0,1,.62-2.14,1.64,1.64,0,0,1,1.68-.37,2.8,2.8,0,0,1,1.66,1.25,4.5,4.5,0,0,1,.63,2.48v.54l-3.86-1v0a3.41,3.41,0,0,0,.43,1.84,1.89,1.89,0,0,0,1.14.87,1.17,1.17,0,0,0,1-.08,1.35,1.35,0,0,0,.51-.73l.73.19a2.62,2.62,0,0,1-.26.73,1.36,1.36,0,0,1-1.11.77A2.05,2.05,0,0,1,432.81,244.31Zm0-6a1.06,1.06,0,0,0-1.11.24,2.21,2.21,0,0,0-.46,1.4l3.13.83a3.21,3.21,0,0,0-.47-1.67A1.84,1.84,0,0,0,432.81,238.33Zm10.12,5.59-3-.78v3l-.71-.19v-6.61l.71.19v2.84l3,.79v-2.85l.71.19v6.62l-.71-.19Zm3.8,4.07a2.1,2.1,0,0,1-1.23-.82,2.67,2.67,0,0,1-.42-1.53,2.59,2.59,0,0,1,.12-.83,1.1,1.1,0,0,1,.39-.56,1.45,1.45,0,0,1,.7-.22,3.41,3.41,0,0,1,1,.13l1.21.32v-.6a1.88,1.88,0,0,0-.28-1.11,1.54,1.54,0,0,0-.93-.6,1.08,1.08,0,0,0-.89.06.87.87,0,0,0-.33.68l-.76-.2a2.55,2.55,0,0,1,.15-.72,1.16,1.16,0,0,1,.38-.49,1.06,1.06,0,0,1,.6-.22,2.34,2.34,0,0,1,.85.07,2.42,2.42,0,0,1,1.43,1,3.09,3.09,0,0,1,.49,1.76v4.5l-.55-.14-.1-1.28a1.62,1.62,0,0,1-.77.8A1.55,1.55,0,0,1,446.73,248Zm0-.8a1.36,1.36,0,0,0,.69,0,1.43,1.43,0,0,0,.55-.31,1.23,1.23,0,0,0,.37-.56,2,2,0,0,0,.14-.77v-.31l-1.21-.32a1.41,1.41,0,0,0-1.18.05,1,1,0,0,0-.34.83,1.52,1.52,0,0,0,.25.88A1.22,1.22,0,0,0,446.78,247.19ZM453,243l4.26,1.13v.8l-1.77-.48v5.82l-.71-.18v-5.83l-1.78-.47Zm7.2,8.62a2.83,2.83,0,0,1-1.67-1.24,4.56,4.56,0,0,1-.61-2.48v-.58a3,3,0,0,1,.61-2.14,1.61,1.61,0,0,1,1.67-.36,2.74,2.74,0,0,1,1.67,1.25,4.44,4.44,0,0,1,.63,2.47V249l-3.86-1v0a3.35,3.35,0,0,0,.43,1.83,1.83,1.83,0,0,0,1.13.87,1.12,1.12,0,0,0,1-.07,1.57,1.57,0,0,0,.52-.72l.71.19a2.86,2.86,0,0,1-.25.73,1.77,1.77,0,0,1-.45.53,1.62,1.62,0,0,1-.66.24A2.3,2.3,0,0,1,460.22,251.58Zm0-6a1,1,0,0,0-1.1.26,2.06,2.06,0,0,0-.46,1.4l3.12.83a3.09,3.09,0,0,0-.47-1.67A1.82,1.82,0,0,0,460.22,245.59Zm3,6,.16,0a.69.69,0,0,0,.35,0,.64.64,0,0,0,.28-.35,2.72,2.72,0,0,0,.2-.78,9.4,9.4,0,0,0,.08-1.34v-3.18l3.62,1v6.61l-.7-.19v-5.82l-2.22-.58v2.38a9.72,9.72,0,0,1-.12,1.69,2.94,2.94,0,0,1-.32,1,.91.91,0,0,1-.51.43,1.48,1.48,0,0,1-.66,0l-.16,0Zm8.48,3.07a2.82,2.82,0,0,1-1.68-1.24,4.52,4.52,0,0,1-.62-2.47v-.59a3.06,3.06,0,0,1,.62-2.14,1.64,1.64,0,0,1,1.68-.36,2.75,2.75,0,0,1,1.66,1.25,4.36,4.36,0,0,1,.63,2.47v.54l-3.86-1v0a3.51,3.51,0,0,0,.42,1.84,1.94,1.94,0,0,0,1.15.87,1.14,1.14,0,0,0,1-.08,1.47,1.47,0,0,0,.51-.73l.73.2a3.14,3.14,0,0,1-.26.73,1.53,1.53,0,0,1-.44.53,1.58,1.58,0,0,1-.66.24A2.29,2.29,0,0,1,471.7,254.62Zm0-6a1,1,0,0,0-1.11.25,2.19,2.19,0,0,0-.46,1.4l3.13.82a3.17,3.17,0,0,0-.48-1.67A1.82,1.82,0,0,0,471.7,248.64Zm5.87,7.54a3.39,3.39,0,0,1-1-.47,3.35,3.35,0,0,1-.75-.84,4.09,4.09,0,0,1-.49-1.1,5.23,5.23,0,0,1-.17-1.34v-.58a4.13,4.13,0,0,1,.17-1.24,2.25,2.25,0,0,1,.5-.85,1.41,1.41,0,0,1,.75-.42,2.09,2.09,0,0,1,1,0l.39.11v-2.55l.7.19v2.55l.4.1a2.89,2.89,0,0,1,1,.48,3.36,3.36,0,0,1,.76.83,3.74,3.74,0,0,1,.49,1.11,5.08,5.08,0,0,1,.17,1.32v.59a4,4,0,0,1-.18,1.25,2.14,2.14,0,0,1-.49.85,1.59,1.59,0,0,1-.76.42,2.16,2.16,0,0,1-1,0l-.4-.11V259l-.7-.19v-2.55Zm-1.68-3.55a3.36,3.36,0,0,0,.45,1.82,2,2,0,0,0,1.23.91l.39.1V250.3l-.39-.1a1.19,1.19,0,0,0-1.23.25,2.25,2.25,0,0,0-.45,1.59Zm2.77-2.14v5.16l.4.1a1.16,1.16,0,0,0,1.22-.26,2.21,2.21,0,0,0,.45-1.58v-.59a3.33,3.33,0,0,0-.45-1.81,2.1,2.1,0,0,0-1.22-.92Zm6.32,7.65a2.65,2.65,0,0,1-1-.47,3.34,3.34,0,0,1-.74-.8,4,4,0,0,1-.48-1.09,5.92,5.92,0,0,1-.16-1.37v-.58a4.15,4.15,0,0,1,.17-1.25,2.1,2.1,0,0,1,.47-.85,1.46,1.46,0,0,1,.74-.44,2.33,2.33,0,0,1,1,.05,2.69,2.69,0,0,1,1,.47,2.88,2.88,0,0,1,.74.81,3.78,3.78,0,0,1,.48,1.1,5.31,5.31,0,0,1,.17,1.35v.59a4.27,4.27,0,0,1-.17,1.26,2.44,2.44,0,0,1-.48.86,1.38,1.38,0,0,1-.74.4A1.87,1.87,0,0,1,485,258.14Zm0-.82a1.13,1.13,0,0,0,1.18-.27,2.31,2.31,0,0,0,.44-1.59v-.58a3.33,3.33,0,0,0-.45-1.81,2,2,0,0,0-1.17-.91,1.13,1.13,0,0,0-1.18.29,2.27,2.27,0,0,0-.44,1.57v.58a3.39,3.39,0,0,0,.44,1.81A1.94,1.94,0,0,0,485,257.32Zm7.51-.25-3-.79v3l-.7-.19v-6.62l.7.19v2.85l3,.78v-2.84l.71.19v6.61l-.71-.19Zm4.49,4.26a2.89,2.89,0,0,1-1.68-1.24,4.65,4.65,0,0,1-.61-2.48V257a3.14,3.14,0,0,1,.61-2.15,1.67,1.67,0,0,1,1.68-.36,2.85,2.85,0,0,1,1.67,1.25,4.57,4.57,0,0,1,.62,2.47v.55l-3.85-1v0a3.51,3.51,0,0,0,.42,1.84,2,2,0,0,0,1.14.87,1.24,1.24,0,0,0,1-.08,1.6,1.6,0,0,0,.51-.73l.72.19a3,3,0,0,1-.26.73,1.35,1.35,0,0,1-.44.53,1.45,1.45,0,0,1-.67.24A2.23,2.23,0,0,1,497,261.33Zm0-6a1.05,1.05,0,0,0-1.11.24,2.1,2.1,0,0,0-.45,1.4l3.12.83a3.12,3.12,0,0,0-.47-1.67A1.8,1.8,0,0,0,497,255.35Z" transform="translate(-0.23 -0.02)"/><path class="cls-8" d="M289.87,187.87l16.77,4.45a4.2,4.2,0,0,1,2.66,4v20.79c0,1.83-1.19,3-2.66,2.6l-16.77-4.44a4.2,4.2,0,0,1-2.66-4V190.47C287.21,188.65,288.4,187.48,289.87,187.87Z" transform="translate(-0.23 -0.02)"/><path class="cls-9" d="M696.61,309.52l-1-.28V313l-.63-.17v-7.94l.63.17v3.48l1,.28,2.06-3,.78.21-2.3,3.23,2.48,4.75-.79-.2Zm5.12,5.15a1.8,1.8,0,0,1-1.06-.71,2.25,2.25,0,0,1-.36-1.32,2.48,2.48,0,0,1,.09-.7,1,1,0,0,1,.34-.48,1.23,1.23,0,0,1,.61-.2,2.75,2.75,0,0,1,.88.12l1,.27v-.51a1.66,1.66,0,0,0-.25-1,1.26,1.26,0,0,0-.79-.5.89.89,0,0,0-.77,0,.81.81,0,0,0-.28.59l-.64-.18a1.56,1.56,0,0,1,.12-.6.94.94,0,0,1,.32-.43,1.05,1.05,0,0,1,.52-.2,1.94,1.94,0,0,1,.73.07,2.07,2.07,0,0,1,1.22.83,2.6,2.6,0,0,1,.42,1.5v3.86l-.46-.13-.1-1.08a1.35,1.35,0,0,1-.66.67A1.36,1.36,0,0,1,701.73,314.67Zm0-.69a1.32,1.32,0,0,0,.59,0,1.18,1.18,0,0,0,.48-.26,1.21,1.21,0,0,0,.31-.48,1.62,1.62,0,0,0,.13-.66v-.27l-1-.27c-.48-.12-.81-.12-1,0a.85.85,0,0,0-.3.71,1.33,1.33,0,0,0,.22.75A1.07,1.07,0,0,0,701.76,314Zm5-.66-.81-.21v2.61l-.61-.17v-5.67l.61.16v2.39l.81.21,1.31-2,.75.2-1.51,2.33,1.69,3.39-.75-.2Zm6.4,1.08,1.85.48a3.18,3.18,0,0,0-.12-.78,2.21,2.21,0,0,0-.28-.64,1.81,1.81,0,0,0-.43-.48,1.28,1.28,0,0,0-.52-.26.85.85,0,0,0-.75.06,1.22,1.22,0,0,0-.39.54l-.64-.17a2.09,2.09,0,0,1,.21-.56,1.37,1.37,0,0,1,.37-.42A1.28,1.28,0,0,1,713,312a1.85,1.85,0,0,1,.68.06,2.29,2.29,0,0,1,.79.41,2.45,2.45,0,0,1,.63.69,3,3,0,0,1,.4.93,3.9,3.9,0,0,1,.15,1.1v.5a3.75,3.75,0,0,1-.15,1.12,1.75,1.75,0,0,1-.4.74,1.19,1.19,0,0,1-.63.37,1.53,1.53,0,0,1-.79,0,2.06,2.06,0,0,1-1.2-.8,3.37,3.37,0,0,1-.58-1.39l.64.17a2.47,2.47,0,0,0,.39.85,1.32,1.32,0,0,0,.75.47.93.93,0,0,0,.95-.23,2,2,0,0,0,.4-1.35l-1.85-.48Zm3-1.64,3.66,1v.68l-1.53-.41v5l-.61-.16v-5l-1.52-.4Zm6.22,7.4a2.45,2.45,0,0,1-.83-.4,2.77,2.77,0,0,1-.63-.69,3.35,3.35,0,0,1-.41-.94,4.69,4.69,0,0,1-.14-1.17v-.5a3.73,3.73,0,0,1,.15-1.07,1.76,1.76,0,0,1,.4-.73,1.17,1.17,0,0,1,.63-.37,1.7,1.7,0,0,1,.83,0,2,2,0,0,1,.82.39,2.67,2.67,0,0,1,.65.69,3.13,3.13,0,0,1,.4.95,4.29,4.29,0,0,1,.14,1.16v.5a3.56,3.56,0,0,1-.14,1.09,2,2,0,0,1-.41.73,1.14,1.14,0,0,1-.64.34A1.65,1.65,0,0,1,722.43,320.16Zm0-.7a1,1,0,0,0,1-.24,1.91,1.91,0,0,0,.38-1.36v-.49a2.86,2.86,0,0,0-.39-1.56,1.67,1.67,0,0,0-1-.78.94.94,0,0,0-1,.25,1.89,1.89,0,0,0-.39,1.35v.49a2.82,2.82,0,0,0,.39,1.56A1.72,1.72,0,0,0,722.43,319.46Zm7.27,2.62a2.19,2.19,0,0,1-.8-.38,3,3,0,0,1-.63-.69,3.8,3.8,0,0,1-.4-.94,4.75,4.75,0,0,1-.14-1.17v-.5a3.7,3.7,0,0,1,.14-1.07,1.92,1.92,0,0,1,.4-.74,1.26,1.26,0,0,1,.63-.36,1.57,1.57,0,0,1,.8,0,2.22,2.22,0,0,1,.68.31,2,2,0,0,1,.52.49,2.62,2.62,0,0,1,.37.6,3.34,3.34,0,0,1,.21.68l-.64-.17a2.24,2.24,0,0,0-.39-.75,1.4,1.4,0,0,0-.75-.46.91.91,0,0,0-1,.26,2,2,0,0,0-.37,1.35v.5a3.38,3.38,0,0,0,.1.86,2.69,2.69,0,0,0,.28.69,2.1,2.1,0,0,0,.42.5,1.71,1.71,0,0,0,.54.27.84.84,0,0,0,.75-.08,1.19,1.19,0,0,0,.39-.64l.64.17a1.82,1.82,0,0,1-.57,1.08A1.24,1.24,0,0,1,729.7,322.08Zm6.3,1.6-3.5-.92v1.47l-.6-.16v-2.16l.48.13a2.58,2.58,0,0,0,.27-.52,2.86,2.86,0,0,0,.15-.61,6.31,6.31,0,0,0,.07-.84c0-.32,0-.72,0-1.18v-1.7L736,318v5l.65.17v2.16l-.61-.16Zm-2.49-4.63c0,.46,0,.87,0,1.2a6.48,6.48,0,0,1-.08.86,3.36,3.36,0,0,1-.12.63,5,5,0,0,1-.2.49l2.28.6v-4.31l-1.85-.49Zm5.74,5.58a2.42,2.42,0,0,1-1.43-1.07,3.91,3.91,0,0,1-.53-2.13v-.49a2.6,2.6,0,0,1,.53-1.83,1.36,1.36,0,0,1,1.43-.31,2.31,2.31,0,0,1,1.43,1.06,3.83,3.83,0,0,1,.54,2.12v.46l-3.31-.88v0a2.9,2.9,0,0,0,.37,1.57,1.66,1.66,0,0,0,1,.75,1,1,0,0,0,.86-.07,1.21,1.21,0,0,0,.45-.62l.62.17a2.41,2.41,0,0,1-.23.62,1.5,1.5,0,0,1-.37.46,1.29,1.29,0,0,1-.57.2A2,2,0,0,1,739.25,324.63Zm0-5.13a.89.89,0,0,0-.94.21,1.8,1.8,0,0,0-.4,1.2l2.68.71a2.69,2.69,0,0,0-.4-1.43A1.57,1.57,0,0,0,739.25,319.5Zm2.56,5.1.15,0a.61.61,0,0,0,.3,0,.53.53,0,0,0,.24-.31,1.62,1.62,0,0,0,.16-.65,7.19,7.19,0,0,0,.07-1.15V319.8l3.11.82v5.67l-.6-.16v-5l-1.9-.5v2a7.31,7.31,0,0,1-.11,1.45,2.64,2.64,0,0,1-.27.86.84.84,0,0,1-.44.36,1.07,1.07,0,0,1-.56,0l-.15,0Zm6.69,2.47a1.75,1.75,0,0,1-1.06-.7,2.35,2.35,0,0,1-.36-1.32,2.5,2.5,0,0,1,.09-.71,1.08,1.08,0,0,1,.34-.48,1.33,1.33,0,0,1,.61-.19,2.7,2.7,0,0,1,.88.11l1,.28v-.51a1.59,1.59,0,0,0-.25-1,1.34,1.34,0,0,0-.79-.51.9.9,0,0,0-.76.05.71.71,0,0,0-.28.58l-.66-.17a2,2,0,0,1,.13-.62,1,1,0,0,1,.32-.42,1,1,0,0,1,.53-.19,1.72,1.72,0,0,1,.72.07,2,2,0,0,1,1.22.82,2.59,2.59,0,0,1,.42,1.51v3.86l-.46-.13-.1-1.09a1.41,1.41,0,0,1-.66.68A1.36,1.36,0,0,1,748.5,327.07Zm0-.69a1.27,1.27,0,0,0,.58,0,1.12,1.12,0,0,0,.48-.26,1.1,1.1,0,0,0,.32-.48A1.76,1.76,0,0,0,750,325v-.26l-1-.28a1.18,1.18,0,0,0-1,0,.87.87,0,0,0-.29.71,1.35,1.35,0,0,0,.21.76A1.08,1.08,0,0,0,748.54,326.38Zm3-4.26,3.66,1v.68l-1.53-.41v5l-.61-.16v-5l-1.52-.41Zm4.66,1.24.6.16v2l1,.27a2.43,2.43,0,0,1,1.42.87,2.32,2.32,0,0,1,.44,1.43,1.49,1.49,0,0,1-.45,1.21,1.54,1.54,0,0,1-1.41.12l-1.62-.43Zm.6,2.88v2.27l1,.27a1.12,1.12,0,0,0,1,0A.94.94,0,0,0,759,328a1.43,1.43,0,0,0-.28-.91,1.65,1.65,0,0,0-1-.55Z" transform="translate(-0.23 -0.02)"/><path class="cls-10" d="M762.71,325.09l3.81,5.74,3.81-3.72" transform="translate(-0.23 -0.02)"/><path class="cls-6" d="M269.64,242.6a2.54,2.54,0,0,1-1.52-1.07,3.83,3.83,0,0,1-.59-2l.66.17a2.87,2.87,0,0,0,.41,1.42,1.74,1.74,0,0,0,1,.73,1.11,1.11,0,0,0,1.07-.13,1.32,1.32,0,0,0,.37-1,2,2,0,0,0-.36-1.18,1.72,1.72,0,0,0-1-.69l-.86-.23v-.73l.86.24a.92.92,0,0,0,.89-.15,1.24,1.24,0,0,0,.33-.94,1.88,1.88,0,0,0-.34-1.12,1.62,1.62,0,0,0-1-.64.91.91,0,0,0-.92.18,1.55,1.55,0,0,0-.39,1l-.66-.17a2.84,2.84,0,0,1,.16-.9,1.62,1.62,0,0,1,.4-.62,1.14,1.14,0,0,1,.61-.3,1.7,1.7,0,0,1,.8,0,2.62,2.62,0,0,1,.83.38,2.68,2.68,0,0,1,.61.6,2.46,2.46,0,0,1,.38.8,2.75,2.75,0,0,1,.14.91,2,2,0,0,1-.23,1,1.09,1.09,0,0,1-.64.53,2.62,2.62,0,0,1,.75,1,2.8,2.8,0,0,1,.26,1.19,2.44,2.44,0,0,1-.15.89,1.39,1.39,0,0,1-.4.61,1.25,1.25,0,0,1-.66.29A2.14,2.14,0,0,1,269.64,242.6Z" transform="translate(-0.23 -0.02)"/><path class="cls-8" d="M289.87,230.4l16.77,4.45a4.19,4.19,0,0,1,2.66,4v20.79c0,1.83-1.19,3-2.66,2.6l-16.77-4.44a4.21,4.21,0,0,1-2.66-4V233C287.21,231.17,288.4,230,289.87,230.4Z" transform="translate(-0.23 -0.02)"/><path class="cls-9" d="M696.61,352l-1-.27v3.72l-.63-.17v-7.94l.63.17V351l1,.27,2.06-2.94.78.2-2.3,3.24,2.48,4.75-.79-.21Zm5.12,5.15a1.76,1.76,0,0,1-1.06-.71,2.22,2.22,0,0,1-.36-1.31,2.6,2.6,0,0,1,.09-.71.94.94,0,0,1,.34-.47,1.23,1.23,0,0,1,.61-.2,2.7,2.7,0,0,1,.88.11l1,.28v-.51a1.72,1.72,0,0,0-.25-1,1.34,1.34,0,0,0-.79-.5.92.92,0,0,0-.77.05.77.77,0,0,0-.28.59l-.64-.18a1.62,1.62,0,0,1,.12-.61.91.91,0,0,1,.32-.42,1,1,0,0,1,.52-.2,2.16,2.16,0,0,1,2,.9,2.55,2.55,0,0,1,.42,1.5v3.85l-.46-.12-.1-1.09a1.37,1.37,0,0,1-.66.68A1.31,1.31,0,0,1,701.73,357.19Zm0-.69a1.09,1.09,0,0,0,.59,0,1.16,1.16,0,0,0,.48-.25,1.32,1.32,0,0,0,.31-.49,1.56,1.56,0,0,0,.13-.66v-.26l-1-.28a1.22,1.22,0,0,0-1,0,.87.87,0,0,0-.3.72,1.35,1.35,0,0,0,.22.75A1.05,1.05,0,0,0,701.76,356.5Zm5-.65-.81-.22v2.61l-.61-.16v-5.67l.61.16V355l.81.22,1.31-2,.75.2-1.51,2.33,1.69,3.38-.75-.19Zm6.4,1.08,1.85.48a3.11,3.11,0,0,0-.12-.78,2.28,2.28,0,0,0-.28-.65,1.62,1.62,0,0,0-.43-.47,1.16,1.16,0,0,0-.52-.26.89.89,0,0,0-.75.05,1.2,1.2,0,0,0-.39.55l-.64-.17a2,2,0,0,1,.21-.57,1.23,1.23,0,0,1,.37-.41,1.16,1.16,0,0,1,.52-.22,1.66,1.66,0,0,1,.68.06,2.11,2.11,0,0,1,.79.4,2.6,2.6,0,0,1,.63.69,3.18,3.18,0,0,1,.4.94,3.88,3.88,0,0,1,.15,1.09v.51a3.75,3.75,0,0,1-.15,1.12,1.81,1.81,0,0,1-.4.74,1.19,1.19,0,0,1-.63.37,1.79,1.79,0,0,1-.79,0,2.08,2.08,0,0,1-1.2-.81,3.28,3.28,0,0,1-.58-1.38l.64.17a2.47,2.47,0,0,0,.39.85,1.43,1.43,0,0,0,.75.47.93.93,0,0,0,.95-.24,2,2,0,0,0,.4-1.34l-1.85-.48Zm3-1.65,3.66,1v.68l-1.53-.41v5l-.61-.16v-5l-1.52-.41Zm6.22,7.4a2.25,2.25,0,0,1-.83-.39,2.77,2.77,0,0,1-.63-.69,3.48,3.48,0,0,1-.41-.94,4.81,4.81,0,0,1-.14-1.17V359a3.63,3.63,0,0,1,.15-1.07,1.8,1.8,0,0,1,.4-.74,1.23,1.23,0,0,1,.63-.37,2,2,0,0,1,.83.05,2.1,2.1,0,0,1,.82.4,2.52,2.52,0,0,1,.65.69,3,3,0,0,1,.4.94,4.37,4.37,0,0,1,.14,1.17v.5a3.54,3.54,0,0,1-.14,1.08,1.91,1.91,0,0,1-.41.73,1.16,1.16,0,0,1-.64.35A1.55,1.55,0,0,1,722.43,362.68Zm0-.7a1,1,0,0,0,1-.23,1.92,1.92,0,0,0,.38-1.36v-.49a2.82,2.82,0,0,0-.39-1.56,1.63,1.63,0,0,0-1-.78.93.93,0,0,0-1,.25,1.88,1.88,0,0,0-.39,1.35v.49a2.86,2.86,0,0,0,.39,1.56A1.66,1.66,0,0,0,722.43,362Zm7.27,2.63a2.21,2.21,0,0,1-.8-.39,2.79,2.79,0,0,1-.63-.69,3.58,3.58,0,0,1-.4-.93,4.81,4.81,0,0,1-.14-1.17v-.5a3.7,3.7,0,0,1,.14-1.07,1.92,1.92,0,0,1,.4-.74,1.28,1.28,0,0,1,.63-.37,1.58,1.58,0,0,1,.8,0,2.47,2.47,0,0,1,.68.3,2,2,0,0,1,.52.49,2.68,2.68,0,0,1,.37.61,3.16,3.16,0,0,1,.21.68l-.64-.17a2.38,2.38,0,0,0-.39-.76,1.38,1.38,0,0,0-.75-.45.93.93,0,0,0-1,.25,2,2,0,0,0-.37,1.36v.5a3.44,3.44,0,0,0,.1.86,2.69,2.69,0,0,0,.28.69,2.59,2.59,0,0,0,.42.5,1.68,1.68,0,0,0,.54.26.81.81,0,0,0,.75-.07,1.22,1.22,0,0,0,.39-.65l.64.17a1.82,1.82,0,0,1-.57,1.09A1.26,1.26,0,0,1,729.7,364.61Zm6.3,1.6-3.5-.93v1.48l-.6-.16v-2.16l.48.12a2.58,2.58,0,0,0,.27-.52,2.76,2.76,0,0,0,.15-.6,6.46,6.46,0,0,0,.07-.84c0-.32,0-.72,0-1.18v-1.7l3.06.81v5l.65.17v2.15l-.61-.16Zm-2.49-4.63c0,.46,0,.87,0,1.2a6.65,6.65,0,0,1-.08.86,3.41,3.41,0,0,1-.12.62,5,5,0,0,1-.2.49l2.28.61v-4.31l-1.85-.49Zm5.74,5.57a2.44,2.44,0,0,1-1.43-1.06,3.91,3.91,0,0,1-.53-2.13v-.49a2.63,2.63,0,0,1,.53-1.84,1.38,1.38,0,0,1,1.43-.31,2.29,2.29,0,0,1,1.43,1.07,3.83,3.83,0,0,1,.54,2.12V365l-3.31-.88v0a2.9,2.9,0,0,0,.37,1.57,1.6,1.6,0,0,0,1,.74,1,1,0,0,0,.86-.06,1.2,1.2,0,0,0,.45-.63l.62.17a2.48,2.48,0,0,1-.23.63,1.36,1.36,0,0,1-.37.45,1.3,1.3,0,0,1-.57.21A1.86,1.86,0,0,1,739.25,367.15Zm0-5.13a.89.89,0,0,0-.94.22,1.78,1.78,0,0,0-.4,1.2l2.68.71a2.73,2.73,0,0,0-.4-1.44A1.62,1.62,0,0,0,739.25,362Zm2.56,5.1.15,0a.44.44,0,0,0,.3,0,.51.51,0,0,0,.24-.3,1.66,1.66,0,0,0,.16-.65,7.19,7.19,0,0,0,.07-1.15v-2.73l3.11.83v5.67l-.6-.16v-5l-1.9-.5v2a7.26,7.26,0,0,1-.11,1.44,2.56,2.56,0,0,1-.27.86.86.86,0,0,1-.44.37,1,1,0,0,1-.56,0l-.15,0Zm6.69,2.48a1.76,1.76,0,0,1-1.06-.71,2.32,2.32,0,0,1-.36-1.31,2.45,2.45,0,0,1,.09-.71,1,1,0,0,1,.34-.48,1.22,1.22,0,0,1,.61-.19,3,3,0,0,1,.88.1l1,.29v-.51a1.64,1.64,0,0,0-.25-1,1.44,1.44,0,0,0-.79-.51.93.93,0,0,0-.76.06.69.69,0,0,0-.28.57l-.66-.17a2,2,0,0,1,.13-.61,1,1,0,0,1,.32-.42.92.92,0,0,1,.53-.19,1.87,1.87,0,0,1,.72.06,2.06,2.06,0,0,1,1.22.82,2.62,2.62,0,0,1,.42,1.52v3.85l-.46-.12-.1-1.1a1.37,1.37,0,0,1-.66.68A1.31,1.31,0,0,1,748.5,369.6Zm0-.69a1.27,1.27,0,0,0,.58,0,1.24,1.24,0,0,0,.48-.26,1.2,1.2,0,0,0,.32-.49,1.73,1.73,0,0,0,.12-.66v-.25l-1-.29a1.21,1.21,0,0,0-1,0,.86.86,0,0,0-.29.71,1.38,1.38,0,0,0,.21.76A1.13,1.13,0,0,0,748.54,368.91Zm3-4.26,3.66,1v.68l-1.53-.4v5l-.61-.16v-5l-1.52-.41Zm4.66,1.24.6.16v2l1,.26a2.48,2.48,0,0,1,1.42.87,2.35,2.35,0,0,1,.44,1.44,1.5,1.5,0,0,1-.45,1.21,1.58,1.58,0,0,1-1.41.11l-1.62-.42Zm.6,2.88V371l1,.26c.45.12.77.11,1,0a.92.92,0,0,0,.28-.76,1.48,1.48,0,0,0-.28-.92,1.76,1.76,0,0,0-1-.55Z" transform="translate(-0.23 -0.02)"/><path class="cls-10" d="M762.71,367.62l3.81,5.73,3.81-3.71" transform="translate(-0.23 -0.02)"/><path class="cls-6" d="M267.33,281.8l3-4.51.8.21v5.31l.87.23v.72l-.87-.22v1.9l-.64-.17v-1.9l-3.15-.84Zm3.15.84v-4.39L268,282Z" transform="translate(-0.23 -0.02)"/><path class="cls-7" d="M323.07,291.75,319,290.67v8.41l-.75-.2v-9.26l5.55,1.48v9.26l-.74-.2Zm5,9.83a2.49,2.49,0,0,1-1-.51,2.72,2.72,0,0,1-.7-1v3.6l-.71-.17v-9.27l.54.15.09,1.13a1.36,1.36,0,0,1,.71-.71,1.69,1.69,0,0,1,1.05,0,2.22,2.22,0,0,1,.84.42,2.75,2.75,0,0,1,.66.77,3.75,3.75,0,0,1,.43,1.08,5.47,5.47,0,0,1,.16,1.39V299a4.46,4.46,0,0,1-.16,1.29,2.22,2.22,0,0,1-.43.87,1.3,1.3,0,0,1-.66.42A1.73,1.73,0,0,1,328.07,301.58Zm-.16-.86a1,1,0,0,0,1.11-.27,2.38,2.38,0,0,0,.42-1.61v-.59a3.46,3.46,0,0,0-.43-1.83,1.78,1.78,0,0,0-1.1-.86,1,1,0,0,0-1.08.27,2.2,2.2,0,0,0-.44,1.5V298a3.57,3.57,0,0,0,.42,1.83A1.86,1.86,0,0,0,327.91,300.72Zm5.77,2.35a2.65,2.65,0,0,1-1-.47,3,3,0,0,1-.74-.81,3.72,3.72,0,0,1-.48-1.09,5.34,5.34,0,0,1-.16-1.36v-.59a4.2,4.2,0,0,1,.17-1.25,2.29,2.29,0,0,1,.47-.86,1.53,1.53,0,0,1,.74-.42,2,2,0,0,1,1,0,2.84,2.84,0,0,1,1,.46,3.18,3.18,0,0,1,.74.81,3.48,3.48,0,0,1,.47,1.11A4.85,4.85,0,0,1,336,300v.59a3.9,3.9,0,0,1-.17,1.25,2.17,2.17,0,0,1-.48.86,1.37,1.37,0,0,1-.73.41A2.11,2.11,0,0,1,333.68,303.07Zm0-.82a1.11,1.11,0,0,0,1.17-.28,2.24,2.24,0,0,0,.45-1.58v-.58a3.22,3.22,0,0,0-.46-1.81,1.9,1.9,0,0,0-1.16-.91,1.11,1.11,0,0,0-1.18.28,2.23,2.23,0,0,0-.44,1.58v.58a3.33,3.33,0,0,0,.44,1.81A2,2,0,0,0,333.68,302.25Zm3.83-4.87,2,.52a2.44,2.44,0,0,1,1.42.87,2.35,2.35,0,0,1,.45,1.44,1.41,1.41,0,0,1-.18.73,1.06,1.06,0,0,1-.51.47,2.07,2.07,0,0,1,.67.81,2.11,2.11,0,0,1,.23.95,1.59,1.59,0,0,1-.45,1.28,1.53,1.53,0,0,1-1.42.12l-2.19-.57Zm.71,3.82v2.18l1.48.4a1,1,0,0,0,.89,0,.9.9,0,0,0,.25-.74,1.45,1.45,0,0,0-.25-.88,1.56,1.56,0,0,0-.89-.51Zm0-2.85v2.06l1.27.34a1,1,0,0,0,.88,0,.87.87,0,0,0,.26-.7,1.29,1.29,0,0,0-.26-.81,1.53,1.53,0,0,0-.88-.51Zm6.81,7.73a2.76,2.76,0,0,1-1.67-1.24,4.47,4.47,0,0,1-.62-2.48v-.58a3,3,0,0,1,.62-2.14,1.58,1.58,0,0,1,1.67-.36,2.72,2.72,0,0,1,1.66,1.25,4.46,4.46,0,0,1,.63,2.47v.54l-3.86-1v0a3.33,3.33,0,0,0,.43,1.83,1.87,1.87,0,0,0,1.14.88,1.13,1.13,0,0,0,1-.08,1.4,1.4,0,0,0,.52-.72l.72.19a3.3,3.3,0,0,1-.25.73,1.92,1.92,0,0,1-.45.53,1.73,1.73,0,0,1-.66.24A2.11,2.11,0,0,1,345,306.08Zm0-6a1.06,1.06,0,0,0-1.11.25,2.19,2.19,0,0,0-.46,1.4l3.13.83a3.18,3.18,0,0,0-.47-1.67A1.86,1.86,0,0,0,345,300.1Zm6.18,7.62a2.49,2.49,0,0,1-1-.51,3,3,0,0,1-.71-1v3.62l-.7-.19v-9.26l.54.14.09,1.13a1.4,1.4,0,0,1,.71-.71,1.62,1.62,0,0,1,1,0,2.37,2.37,0,0,1,.84.42,2.49,2.49,0,0,1,.66.77,3.8,3.8,0,0,1,.43,1.07,6.12,6.12,0,0,1,.16,1.4v.58a4.78,4.78,0,0,1-.16,1.29,2.09,2.09,0,0,1-.43.87,1.18,1.18,0,0,1-.66.42A1.6,1.6,0,0,1,351.21,307.72Zm-.16-.87a1.06,1.06,0,0,0,1.11-.25,2.52,2.52,0,0,0,.41-1.63v-.59a3.49,3.49,0,0,0-.42-1.83,1.89,1.89,0,0,0-1.1-.86A1,1,0,0,0,350,302a2.24,2.24,0,0,0-.45,1.51v.68A3.43,3.43,0,0,0,350,306,1.79,1.79,0,0,0,351.05,306.85Zm7.41-2.91-.66,1.2-2.14,3.67-.87-.24V302l.7.18v5.63l.66-1.21,2.14-3.67.87.23v6.61l-.7-.19Zm1.88-.51,4.26,1.13v.8l-1.78-.47v5.82l-.7-.19V304.7l-1.78-.48Zm5.44,1.45.7.18v2.39l1.19.31a2.88,2.88,0,0,1,1.65,1,2.78,2.78,0,0,1,.51,1.69,1.76,1.76,0,0,1-.52,1.41,1.83,1.83,0,0,1-1.64.13l-1.89-.5Zm.7,3.36v2.65l1.19.31a1.29,1.29,0,0,0,1.11-.05,1.1,1.1,0,0,0,.33-.9,1.7,1.7,0,0,0-.33-1.06,2,2,0,0,0-1.11-.64Zm9.34,6a2.69,2.69,0,0,1-1.73-1.33,4.54,4.54,0,0,1-.47-1.26,7.7,7.7,0,0,1-.16-1.67v-.84c0-.46,0-.89.05-1.31a8.75,8.75,0,0,1,.18-1.12,3.31,3.31,0,0,1,.38-.87,1.48,1.48,0,0,1,.6-.54,1.43,1.43,0,0,1,.66-.14,3.3,3.3,0,0,1,.69,0l.78.11a3.68,3.68,0,0,0,.93,0v.81a2.64,2.64,0,0,1-.79,0l-.73-.1c-.23,0-.44-.06-.65-.07a1.09,1.09,0,0,0-.57.12,1.35,1.35,0,0,0-.6.75,5.19,5.19,0,0,0-.26,1.46,1.39,1.39,0,0,1,.74-.68,1.69,1.69,0,0,1,1.07,0,2.27,2.27,0,0,1,.89.45,2.89,2.89,0,0,1,.69.78,4,4,0,0,1,.46,1.08,4.59,4.59,0,0,1,.17,1.32v.58A3.75,3.75,0,0,1,378,313a2,2,0,0,1-.48.83,1.54,1.54,0,0,1-.73.42A2,2,0,0,1,375.82,314.24Zm0-5.84a1.15,1.15,0,0,0-1.18.23,2.05,2.05,0,0,0-.46,1.45v.69a3.22,3.22,0,0,0,.45,1.76,2,2,0,0,0,1.19.9,1.12,1.12,0,0,0,1.17-.27,2.2,2.2,0,0,0,.44-1.53v-.58a3.13,3.13,0,0,0-.45-1.76A1.88,1.88,0,0,0,375.82,308.4Zm5.8,7.38a2.75,2.75,0,0,1-1.68-1.24,4.52,4.52,0,0,1-.62-2.47v-.59a3,3,0,0,1,.62-2.13,1.6,1.6,0,0,1,1.68-.36,2.73,2.73,0,0,1,1.66,1.24,4.46,4.46,0,0,1,.63,2.47v.54l-3.86-1v0a3.37,3.37,0,0,0,.43,1.83,1.86,1.86,0,0,0,1.14.87,1.14,1.14,0,0,0,1-.08,1.38,1.38,0,0,0,.51-.72l.73.19a3.14,3.14,0,0,1-.26.73,1.45,1.45,0,0,1-.45.53,1.63,1.63,0,0,1-.66.25A2.26,2.26,0,0,1,381.62,315.78Zm0-6a1.05,1.05,0,0,0-1.11.25,2.13,2.13,0,0,0-.46,1.4l3.12.83a3.12,3.12,0,0,0-.47-1.68A1.83,1.83,0,0,0,381.62,309.8Zm5.44.62a2.49,2.49,0,0,1,1.4.9,2.54,2.54,0,0,1,.46,1.48,1.62,1.62,0,0,1-.17.79.86.86,0,0,1-.52.45,2,2,0,0,1,.65.82,2.17,2.17,0,0,1,.2,1,1.53,1.53,0,0,1-.5,1.27,1.66,1.66,0,0,1-1.52.14,2.74,2.74,0,0,1-1.55-1,3.27,3.27,0,0,1-.59-1.62l.73.19a2.2,2.2,0,0,0,.39,1,1.93,1.93,0,0,0,1,.59,1.2,1.2,0,0,0,1,0,.89.89,0,0,0,.3-.74,1.41,1.41,0,0,0-.3-.89,1.77,1.77,0,0,0-1-.58l-.59-.16v-.79l.59.15a1,1,0,0,0,.87-.05.87.87,0,0,0,.27-.7,1.34,1.34,0,0,0-.27-.84,1.5,1.5,0,0,0-.87-.52,1,1,0,0,0-.89.05,1.09,1.09,0,0,0-.36.67l-.73-.19a1.75,1.75,0,0,1,.56-1.21A1.58,1.58,0,0,1,387.06,310.42Zm5.55,8.28a2.65,2.65,0,0,1-1-.47,3.15,3.15,0,0,1-.74-.8,4.41,4.41,0,0,1-.48-1.1,5.83,5.83,0,0,1-.16-1.36v-.59a4.08,4.08,0,0,1,.17-1.24,2.27,2.27,0,0,1,.47-.86,1.47,1.47,0,0,1,.74-.43,1.92,1.92,0,0,1,1,0,2.67,2.67,0,0,1,1,.46,3.23,3.23,0,0,1,.75.81,3.54,3.54,0,0,1,.46,1.1,5,5,0,0,1,.18,1.36v.58a4,4,0,0,1-.18,1.26,2.06,2.06,0,0,1-.48.85,1.35,1.35,0,0,1-.73.42A2,2,0,0,1,392.61,318.7Zm0-.82a1.13,1.13,0,0,0,1.17-.27,2.32,2.32,0,0,0,.45-1.59v-.59a3.27,3.27,0,0,0-.46-1.81,1.89,1.89,0,0,0-1.16-.9,1.09,1.09,0,0,0-1.17.28,2.21,2.21,0,0,0-.45,1.57v.59a3.35,3.35,0,0,0,.45,1.81A2,2,0,0,0,392.61,317.88Zm7.29-3.17-2.75-.72v5.82l-.7-.19V313l4.16,1.11v6.61l-.71-.19Zm3.8,6.93a2.05,2.05,0,0,1-1.23-.83,2.62,2.62,0,0,1-.43-1.53,2.53,2.53,0,0,1,.12-.82,1.13,1.13,0,0,1,.39-.56,1.39,1.39,0,0,1,.71-.23,3.3,3.3,0,0,1,1,.12l1.22.34v-.6a1.91,1.91,0,0,0-.29-1.12,1.48,1.48,0,0,0-.93-.6,1,1,0,0,0-.88.06.86.86,0,0,0-.33.68l-.76-.2a2,2,0,0,1,.15-.72,1.14,1.14,0,0,1,.37-.49,1.32,1.32,0,0,1,.61-.23,2.15,2.15,0,0,1,.84.09,2.34,2.34,0,0,1,1.43.95,3,3,0,0,1,.49,1.76v4.5l-.54-.14-.11-1.28a1.56,1.56,0,0,1-.77.79A1.58,1.58,0,0,1,403.7,321.64Zm.05-.81a1.58,1.58,0,0,0,.68,0,1.29,1.29,0,0,0,.56-.31,1.45,1.45,0,0,0,.37-.56,2.11,2.11,0,0,0,.14-.77v-.3l-1.22-.33a1.42,1.42,0,0,0-1.17.05,1,1,0,0,0-.34.84,1.58,1.58,0,0,0,.24.87A1.34,1.34,0,0,0,403.75,320.83Zm6.18,2.46a2.66,2.66,0,0,1-.94-.46,3.27,3.27,0,0,1-.72-.8,3.86,3.86,0,0,1-.47-1.09,5.31,5.31,0,0,1-.16-1.37V319a4.17,4.17,0,0,1,.16-1.25,2,2,0,0,1,.47-.85,1.4,1.4,0,0,1,.72-.44,2.16,2.16,0,0,1,.94,0,2.72,2.72,0,0,1,.79.36,2.55,2.55,0,0,1,.61.57,2.69,2.69,0,0,1,.43.71,4.52,4.52,0,0,1,.25.79l-.75-.2a3,3,0,0,0-.46-.88,1.66,1.66,0,0,0-.87-.53,1.07,1.07,0,0,0-1.13.3,2.28,2.28,0,0,0-.44,1.57v.59a4.05,4.05,0,0,0,.12,1,2.85,2.85,0,0,0,.33.79,2.41,2.41,0,0,0,.49.59,1.55,1.55,0,0,0,.63.31,1,1,0,0,0,.88-.08,1.44,1.44,0,0,0,.45-.76l.75.2a2.12,2.12,0,0,1-.67,1.27A1.48,1.48,0,0,1,409.93,323.29ZM417,322.1l-3-.79v3l-.71-.18v-6.62l.71.18v2.85l3,.79v-2.84l.71.17v6.62l-.71-.18Zm4.55,4.28a2.67,2.67,0,0,1-1-.48,3,3,0,0,1-.74-.8,4.18,4.18,0,0,1-.48-1.09,5.85,5.85,0,0,1-.16-1.37v-.57a4.17,4.17,0,0,1,.17-1.26,2.22,2.22,0,0,1,.47-.85,1.47,1.47,0,0,1,.74-.43,2.16,2.16,0,0,1,1,0,3.07,3.07,0,0,1,1,.47,3.23,3.23,0,0,1,.75.81,4.06,4.06,0,0,1,.47,1.1,5.31,5.31,0,0,1,.17,1.35v.59a4.39,4.39,0,0,1-.17,1.27,2.4,2.4,0,0,1-.48.85,1.47,1.47,0,0,1-.74.41A2.11,2.11,0,0,1,421.56,326.38Zm0-.83a1.11,1.11,0,0,0,1.17-.26,2.29,2.29,0,0,0,.45-1.59v-.59a3.24,3.24,0,0,0-.46-1.81,2,2,0,0,0-1.16-.91,1.11,1.11,0,0,0-1.17.29,2.23,2.23,0,0,0-.45,1.57v.59a3.35,3.35,0,0,0,.45,1.81A1.91,1.91,0,0,0,421.56,325.55Zm5.81,2.37a2.68,2.68,0,0,1-.94-.47,3,3,0,0,1-.72-.79,3.93,3.93,0,0,1-.47-1.1,5.29,5.29,0,0,1-.16-1.36v-.58a4.29,4.29,0,0,1,.16-1.26,2.17,2.17,0,0,1,.47-.85,1.41,1.41,0,0,1,.72-.43,2,2,0,0,1,.94,0,2.47,2.47,0,0,1,.79.35,2.58,2.58,0,0,1,.61.58,2.19,2.19,0,0,1,.42.71,3.66,3.66,0,0,1,.26.79l-.75-.2a2.58,2.58,0,0,0-.47-.88,1.6,1.6,0,0,0-.86-.54,1.07,1.07,0,0,0-1.13.31,2.25,2.25,0,0,0-.44,1.57v.58a4.05,4.05,0,0,0,.12,1,3.27,3.27,0,0,0,.33.81,2.49,2.49,0,0,0,.49.57,1.55,1.55,0,0,0,.63.31.93.93,0,0,0,.87-.08,1.46,1.46,0,0,0,.46-.75l.75.2a2.14,2.14,0,0,1-.67,1.26A1.48,1.48,0,0,1,427.37,327.92Zm2.56-6L434.2,323v.79l-1.78-.47v5.82l-.7-.19v-5.82l-1.79-.47Zm5.45,1.44.7.19v2.38l1.19.31a2.8,2.8,0,0,1,1.65,1,2.73,2.73,0,0,1,.51,1.68,1.76,1.76,0,0,1-.52,1.41,1.83,1.83,0,0,1-1.64.13l-1.89-.5Zm.7,3.37v2.64l1.19.31a1.24,1.24,0,0,0,1.1,0,1.1,1.1,0,0,0,.34-.9,1.68,1.68,0,0,0-.34-1.06,1.92,1.92,0,0,0-1.1-.64Zm8.58,5.8a2.12,2.12,0,0,1-1.23-.82,2.75,2.75,0,0,1-.43-1.53,2.62,2.62,0,0,1,.12-.84,1.2,1.2,0,0,1,.4-.55,1.35,1.35,0,0,1,.7-.22,3,3,0,0,1,1,.12l1.22.32v-.59a2,2,0,0,0-.29-1.13,1.5,1.5,0,0,0-.93-.58,1,1,0,0,0-.88.05.89.89,0,0,0-.33.68l-.76-.19a2.47,2.47,0,0,1,.15-.72,1.26,1.26,0,0,1,.37-.5,1.12,1.12,0,0,1,.61-.22,2,2,0,0,1,.84.08,2.39,2.39,0,0,1,1.43,1,3,3,0,0,1,.49,1.76v4.5l-.54-.15-.11-1.27a1.5,1.5,0,0,1-1.85.84Zm0-.8a1.31,1.31,0,0,0,.68,0,1.18,1.18,0,0,0,.56-.3,1.37,1.37,0,0,0,.37-.56,2.11,2.11,0,0,0,.14-.77v-.3l-1.22-.32a1.37,1.37,0,0,0-1.17,0,1,1,0,0,0-.34.83,1.5,1.5,0,0,0,.25.88A1.28,1.28,0,0,0,444.71,331.7Zm5.86-.77-.95-.25v3.05l-.7-.19v-6.62l.7.19v2.78l.95.25,1.53-2.38.87.24-1.76,2.72,2,3.95-.88-.23Zm5.44,1.45-.95-.26v3l-.7-.18v-6.61l.7.18v2.78l.95.25,1.53-2.37.87.23-1.76,2.72,2,3.95-.88-.23Zm5,4.45a2.12,2.12,0,0,1-1.23-.83,2.7,2.7,0,0,1-.42-1.53,2.34,2.34,0,0,1,.12-.83,1.21,1.21,0,0,1,.39-.56,1.61,1.61,0,0,1,.71-.22,3.38,3.38,0,0,1,1,.13l1.22.32v-.59a1.89,1.89,0,0,0-.3-1.13,1.51,1.51,0,0,0-.92-.58,1,1,0,0,0-.88.05.84.84,0,0,0-.33.68l-.77-.2a2.4,2.4,0,0,1,.15-.71,1.13,1.13,0,0,1,.38-.5,1.07,1.07,0,0,1,.61-.22,2.12,2.12,0,0,1,.84.07,2.38,2.38,0,0,1,1.42,1,3,3,0,0,1,.49,1.76v4.49l-.53-.15-.11-1.26a1.66,1.66,0,0,1-.77.78A1.6,1.6,0,0,1,461,336.83ZM461,336a1.31,1.31,0,0,0,.68,0,1.39,1.39,0,0,0,.56-.3,1.42,1.42,0,0,0,.36-.56,1.92,1.92,0,0,0,.15-.77v-.3l-1.22-.33a1.38,1.38,0,0,0-1.18.05,1,1,0,0,0-.34.83,1.54,1.54,0,0,0,.25.87A1.21,1.21,0,0,0,461,336Zm5.56,2.21L464.38,331l.8.21,1.8,6,1.67-5.08.75.2-2.88,8.49-.75-.2Zm7.65-1-3-.79v3l-.7-.18v-6.61l.7.18v2.84l3,.8v-2.85l.7.18v6.62l-.7-.18Zm1.88-3.15,4.26,1.14v.79l-1.78-.47v5.82l-.7-.19V335.4l-1.78-.47Zm7.26,8.64a2.78,2.78,0,0,1-1-.47,3.11,3.11,0,0,1-.73-.8,4.52,4.52,0,0,1-.49-1.09A6,6,0,0,1,481,339v-.59a4.08,4.08,0,0,1,.17-1.24,2.27,2.27,0,0,1,.47-.86,1.44,1.44,0,0,1,.73-.43,2.07,2.07,0,0,1,1,.05,2.49,2.49,0,0,1,.95.47,3.22,3.22,0,0,1,.76.8,3.7,3.7,0,0,1,.46,1.11,5.25,5.25,0,0,1,.17,1.35v.59a4.32,4.32,0,0,1-.17,1.26,2.13,2.13,0,0,1-.48.85,1.4,1.4,0,0,1-.74.41A1.83,1.83,0,0,1,483.38,342.77Zm0-.82a1.11,1.11,0,0,0,1.17-.27,2.29,2.29,0,0,0,.44-1.59v-.58a3.3,3.3,0,0,0-.45-1.81,1.9,1.9,0,0,0-1.16-.91,1.13,1.13,0,0,0-1.17.28,2.18,2.18,0,0,0-.46,1.58v.58a3.24,3.24,0,0,0,.46,1.81A1.93,1.93,0,0,0,483.38,342Zm3.83-4.87,2,.52a2.57,2.57,0,0,1,1.42.87,2.37,2.37,0,0,1,.44,1.44,1.58,1.58,0,0,1-.17.74,1.09,1.09,0,0,1-.51.46,2.16,2.16,0,0,1,.67.81,2.12,2.12,0,0,1,.23,1,1.58,1.58,0,0,1-.45,1.27,1.53,1.53,0,0,1-1.42.12l-2.19-.57Zm.71,3.83v2.18l1.48.39a1.06,1.06,0,0,0,.89,0,.93.93,0,0,0,.25-.75,1.45,1.45,0,0,0-.25-.88,1.56,1.56,0,0,0-.89-.51Zm0-2.84v2.05l1.27.33a1.08,1.08,0,0,0,.89,0,.85.85,0,0,0,.25-.7,1.28,1.28,0,0,0-.25-.81,1.59,1.59,0,0,0-.89-.51Z" transform="translate(-0.23 -0.02)"/><path class="cls-8" d="M289.87,272.93l16.77,4.44a4.2,4.2,0,0,1,2.66,4v20.79c0,1.82-1.19,3-2.66,2.6l-16.77-4.45a4.2,4.2,0,0,1-2.66-4V275.53C287.21,273.7,288.4,272.54,289.87,272.93Z" transform="translate(-0.23 -0.02)"/><path class="cls-9" d="M696.61,394.57l-1-.28V398l-.63-.17v-7.94l.63.17v3.49l1,.27,2.06-2.95.78.21-2.3,3.23,2.48,4.76-.79-.21Zm5.12,5.15a1.76,1.76,0,0,1-1.06-.71,2.22,2.22,0,0,1-.36-1.31,2.55,2.55,0,0,1,.09-.71.94.94,0,0,1,.34-.47,1.13,1.13,0,0,1,.61-.2,2.7,2.7,0,0,1,.88.11l1,.27v-.51a1.71,1.71,0,0,0-.25-1,1.26,1.26,0,0,0-.79-.5.85.85,0,0,0-.77,0,.77.77,0,0,0-.28.58l-.64-.18a1.6,1.6,0,0,1,.12-.6,1,1,0,0,1,.32-.43,1.05,1.05,0,0,1,.52-.2,2.16,2.16,0,0,1,.73.07,2.12,2.12,0,0,1,1.22.83,2.6,2.6,0,0,1,.42,1.5v3.86l-.46-.12-.1-1.09a1.35,1.35,0,0,1-.66.67A1.36,1.36,0,0,1,701.73,399.72Zm0-.69a1.09,1.09,0,0,0,.59,0,1.07,1.07,0,0,0,.48-.26,1.21,1.21,0,0,0,.31-.48,1.59,1.59,0,0,0,.13-.66v-.27l-1-.27a1.22,1.22,0,0,0-1,0,.87.87,0,0,0-.3.72,1.29,1.29,0,0,0,.22.74A1.07,1.07,0,0,0,701.76,399Zm5-.65-.81-.22v2.61l-.61-.16v-5.67l.61.16v2.38l.81.22,1.31-2,.75.2-1.51,2.34,1.69,3.38-.75-.2Zm6.4,1.07,1.85.49a3.19,3.19,0,0,0-.12-.79,2.34,2.34,0,0,0-.28-.64,1.62,1.62,0,0,0-.43-.47,1.18,1.18,0,0,0-.52-.27.92.92,0,0,0-.75.06,1.2,1.2,0,0,0-.39.55l-.64-.17a2,2,0,0,1,.21-.57,1.37,1.37,0,0,1,.37-.42A1.15,1.15,0,0,1,713,397a1.82,1.82,0,0,1,.68.05,2.29,2.29,0,0,1,.79.41,2.6,2.6,0,0,1,.63.69,3.07,3.07,0,0,1,.4.94,3.83,3.83,0,0,1,.15,1.09v.5a3.77,3.77,0,0,1-.15,1.13,1.77,1.77,0,0,1-.4.73,1.13,1.13,0,0,1-.63.37,1.53,1.53,0,0,1-.79,0,2.06,2.06,0,0,1-1.2-.8,3.37,3.37,0,0,1-.58-1.39l.64.17a2.39,2.39,0,0,0,.39.85,1.32,1.32,0,0,0,.75.47.93.93,0,0,0,.95-.23,2,2,0,0,0,.4-1.34l-1.85-.49Zm3-1.64,3.66,1v.68l-1.53-.4v5l-.61-.16v-5l-1.52-.41Zm6.22,7.4a2.45,2.45,0,0,1-.83-.4,2.61,2.61,0,0,1-.63-.69,3.28,3.28,0,0,1-.41-.93,4.81,4.81,0,0,1-.14-1.17v-.51a3.61,3.61,0,0,1,.15-1.06,1.74,1.74,0,0,1,.4-.74,1.23,1.23,0,0,1,.63-.37,1.7,1.7,0,0,1,.83.05,2.08,2.08,0,0,1,.82.39,2.67,2.67,0,0,1,.65.69,3.13,3.13,0,0,1,.4.95,4.34,4.34,0,0,1,.14,1.16v.5a3.56,3.56,0,0,1-.14,1.09,2,2,0,0,1-.41.73,1.16,1.16,0,0,1-.64.35A1.79,1.79,0,0,1,722.43,405.21Zm0-.7a1,1,0,0,0,1-.24,1.89,1.89,0,0,0,.38-1.36v-.49a2.86,2.86,0,0,0-.39-1.56,1.65,1.65,0,0,0-1-.77.92.92,0,0,0-1,.24,1.89,1.89,0,0,0-.39,1.35v.5a2.86,2.86,0,0,0,.39,1.56A1.7,1.7,0,0,0,722.43,404.51Zm7.27,2.63a2.38,2.38,0,0,1-.8-.39,3,3,0,0,1-.63-.69,3.65,3.65,0,0,1-.4-.94,4.69,4.69,0,0,1-.14-1.17v-.5a3.8,3.8,0,0,1,.14-1.07,1.88,1.88,0,0,1,.4-.73,1.21,1.21,0,0,1,.63-.37,1.48,1.48,0,0,1,.8,0,2.2,2.2,0,0,1,.68.3,2,2,0,0,1,.52.49,2.85,2.85,0,0,1,.37.6,3.34,3.34,0,0,1,.21.68l-.64-.17a2.33,2.33,0,0,0-.39-.75,1.33,1.33,0,0,0-.75-.45.91.91,0,0,0-1,.25,2,2,0,0,0-.37,1.35v.5a3.33,3.33,0,0,0,.1.86,2.55,2.55,0,0,0,.28.69,2.1,2.1,0,0,0,.42.5,1.52,1.52,0,0,0,.54.27.84.84,0,0,0,.75-.08,1.19,1.19,0,0,0,.39-.64l.64.17a1.88,1.88,0,0,1-.57,1.09A1.29,1.29,0,0,1,729.7,407.14Zm6.3,1.59-3.5-.92v1.47l-.6-.16V407l.48.12a2.58,2.58,0,0,0,.27-.52,2.92,2.92,0,0,0,.15-.6,6.47,6.47,0,0,0,.07-.85c0-.32,0-.71,0-1.18v-1.7l3.06.81v5l.65.17v2.16l-.61-.16Zm-2.49-4.63q0,.7,0,1.2a6.48,6.48,0,0,1-.08.86,3.36,3.36,0,0,1-.12.63,5,5,0,0,1-.2.49l2.28.6v-4.31l-1.85-.49Zm5.74,5.58a2.42,2.42,0,0,1-1.43-1.07,3.9,3.9,0,0,1-.53-2.12V406a2.6,2.6,0,0,1,.53-1.83,1.36,1.36,0,0,1,1.43-.31,2.29,2.29,0,0,1,1.43,1.07,3.78,3.78,0,0,1,.54,2.11v.47l-3.31-.88v0a2.84,2.84,0,0,0,.37,1.56,1.62,1.62,0,0,0,1,.75,1,1,0,0,0,.86-.07,1.21,1.21,0,0,0,.45-.62l.62.17a2.28,2.28,0,0,1-.23.62,1.39,1.39,0,0,1-.37.46,1.44,1.44,0,0,1-.57.21A2,2,0,0,1,739.25,409.68Zm0-5.13a.87.87,0,0,0-.94.22,1.76,1.76,0,0,0-.4,1.2l2.68.7a2.72,2.72,0,0,0-.4-1.43A1.57,1.57,0,0,0,739.25,404.55Zm2.56,5.1.15,0a.44.44,0,0,0,.3,0,.54.54,0,0,0,.24-.3,1.67,1.67,0,0,0,.16-.66,7.19,7.19,0,0,0,.07-1.15v-2.72l3.11.82v5.67l-.6-.16v-5l-1.9-.5v2a7.31,7.31,0,0,1-.11,1.45,2.56,2.56,0,0,1-.27.86.86.86,0,0,1-.44.37,1.19,1.19,0,0,1-.56,0l-.15,0Zm6.69,2.48a1.8,1.8,0,0,1-1.06-.71,2.35,2.35,0,0,1-.36-1.32,2.38,2.38,0,0,1,.09-.7,1.11,1.11,0,0,1,.34-.49,1.33,1.33,0,0,1,.61-.19,3,3,0,0,1,.88.11l1,.28v-.51a1.61,1.61,0,0,0-.25-1,1.34,1.34,0,0,0-.79-.51.9.9,0,0,0-.76.05.72.72,0,0,0-.28.58l-.66-.17a1.89,1.89,0,0,1,.13-.61,1,1,0,0,1,.85-.62,1.72,1.72,0,0,1,.72.07,2,2,0,0,1,1.22.82,2.61,2.61,0,0,1,.42,1.51v3.86l-.46-.12-.1-1.1a1.37,1.37,0,0,1-.66.68A1.43,1.43,0,0,1,748.5,412.13Zm0-.69a1.63,1.63,0,0,0,.58,0,1.25,1.25,0,0,0,.48-.27,1.1,1.1,0,0,0,.32-.48,1.76,1.76,0,0,0,.12-.66v-.26l-1-.28a1.21,1.21,0,0,0-1,.05.84.84,0,0,0-.29.71,1.34,1.34,0,0,0,.21.75A1.14,1.14,0,0,0,748.54,411.44Zm3-4.26,3.66,1v.68l-1.53-.41v5l-.61-.16v-5l-1.52-.4Zm4.66,1.23.6.16v2l1,.27a2.43,2.43,0,0,1,1.42.87,2.35,2.35,0,0,1,.44,1.44,1.51,1.51,0,0,1-.45,1.21,1.58,1.58,0,0,1-1.41.11l-1.62-.43Zm.6,2.89v2.26l1,.27a1.12,1.12,0,0,0,1,0A.94.94,0,0,0,759,413a1.45,1.45,0,0,0-.28-.91,1.65,1.65,0,0,0-1-.55Z" transform="translate(-0.23 -0.02)"/><path class="cls-10" d="M762.71,410.14l3.81,5.74,3.81-3.72" transform="translate(-0.23 -0.02)"/><path class="cls-6" d="M268.06,319.21l3.33.89v.73l-2.75-.73-.17,2.58a1.24,1.24,0,0,1,.57-.32,1.38,1.38,0,0,1,.75,0,2,2,0,0,1,.81.4,2.86,2.86,0,0,1,.64.7,3.48,3.48,0,0,1,.41,1,4,4,0,0,1,.16,1.12,3.22,3.22,0,0,1-.16,1.05,1.82,1.82,0,0,1-.43.73,1.47,1.47,0,0,1-.67.37,2.09,2.09,0,0,1-.85-.05,2.76,2.76,0,0,1-1.36-.85,3.32,3.32,0,0,1-.74-1.63l.68.18a2.24,2.24,0,0,0,.53,1,1.87,1.87,0,0,0,.89.52,1,1,0,0,0,1.05-.22,1.78,1.78,0,0,0,.4-1.3,2.65,2.65,0,0,0-.4-1.51,1.74,1.74,0,0,0-1.05-.78,1.1,1.1,0,0,0-.79.05,1.24,1.24,0,0,0-.5.46l-.63-.16Z" transform="translate(-0.23 -0.02)"/><path class="cls-7" d="M320.32,339.31l-2.7-7.33.84.23,2.26,6.21,2-5.1.81.22-3.29,8.39-.81-.22Zm5.31,4.15a2.66,2.66,0,0,1-.94-.46,3.16,3.16,0,0,1-.72-.81,3.92,3.92,0,0,1-.47-1.08,5.34,5.34,0,0,1-.16-1.36v-.59a4.29,4.29,0,0,1,.16-1.26,2.17,2.17,0,0,1,.47-.85,1.58,1.58,0,0,1,.72-.43,1.9,1.9,0,0,1,.94,0,2.39,2.39,0,0,1,.79.36,2.73,2.73,0,0,1,.61.56,3.06,3.06,0,0,1,.43.71,4,4,0,0,1,.25.81l-.74-.2a2.85,2.85,0,0,0-.47-.88,1.55,1.55,0,0,0-.87-.54,1.08,1.08,0,0,0-1.13.29,2.3,2.3,0,0,0-.43,1.58v.59a4.06,4.06,0,0,0,.11,1,3.2,3.2,0,0,0,.33.8,2.59,2.59,0,0,0,.49.58,1.85,1.85,0,0,0,.63.31,1,1,0,0,0,.88-.09,1.5,1.5,0,0,0,.46-.74l.74.2a2.06,2.06,0,0,1-.67,1.25A1.45,1.45,0,0,1,325.63,343.46Zm2.57-6,4.26,1.14v.79l-1.78-.47v5.82l-.7-.19V338.7l-1.78-.47Zm6.62,8.47a2.1,2.1,0,0,1-1.23-.83,2.62,2.62,0,0,1-.43-1.53,2.59,2.59,0,0,1,.12-.83,1.15,1.15,0,0,1,.39-.55,1.3,1.3,0,0,1,.71-.23,3.33,3.33,0,0,1,1,.12l1.22.32v-.59a2,2,0,0,0-.29-1.12,1.51,1.51,0,0,0-.93-.59,1,1,0,0,0-.88.06.84.84,0,0,0-.33.68l-.76-.2a2,2,0,0,1,.15-.72,1.09,1.09,0,0,1,.37-.49,1.22,1.22,0,0,1,.61-.23,2.15,2.15,0,0,1,.84.09,2.34,2.34,0,0,1,1.43.95,3,3,0,0,1,.49,1.76v4.5l-.54-.15-.11-1.27a1.56,1.56,0,0,1-.77.79A1.64,1.64,0,0,1,334.82,345.9Zm.05-.81a1.58,1.58,0,0,0,.68,0,1.4,1.4,0,0,0,.56-.31,1.57,1.57,0,0,0,.37-.56,2.11,2.11,0,0,0,.14-.77v-.31l-1.22-.32a1.43,1.43,0,0,0-1.17,0,1,1,0,0,0-.34.85,1.52,1.52,0,0,0,.24.86A1.3,1.3,0,0,0,334.87,345.09Zm7.88-.16-3-.79v3l-.7-.19v-6.62l.7.19v2.85l3,.78v-2.84l.7.19v6.61l-.7-.19Zm4.54,4.28a2.93,2.93,0,0,1-1.7-1.28,3.72,3.72,0,0,1-.48-1.09,5.37,5.37,0,0,1-.16-1.37v-.58a3.9,3.9,0,0,1,.17-1.25,2.1,2.1,0,0,1,.47-.85,1.31,1.31,0,0,1,.73-.43,2.15,2.15,0,0,1,1,0,2.71,2.71,0,0,1,1,.48,3,3,0,0,1,.75.8,3.77,3.77,0,0,1,.47,1.1,5.33,5.33,0,0,1,.17,1.36v.58a4.27,4.27,0,0,1-.17,1.26,2.38,2.38,0,0,1-.48.86,1.32,1.32,0,0,1-.74.4A2,2,0,0,1,347.29,349.21Zm0-.83a1.1,1.1,0,0,0,1.18-.27,2.31,2.31,0,0,0,.44-1.59V346a3.34,3.34,0,0,0-.45-1.82,1.91,1.91,0,0,0-1.17-.9,1.08,1.08,0,0,0-1.17.28,2.23,2.23,0,0,0-.45,1.58v.57a3.34,3.34,0,0,0,.45,1.82A1.94,1.94,0,0,0,347.29,348.38Zm3.84-4.86,2,.52a2.44,2.44,0,0,1,1.42.87,2.34,2.34,0,0,1,.45,1.43,1.56,1.56,0,0,1-.17.74,1,1,0,0,1-.51.46,2.19,2.19,0,0,1,.67.82,2.1,2.1,0,0,1,.22.95,1.64,1.64,0,0,1-.44,1.28,1.56,1.56,0,0,1-1.42.12l-2.19-.58Zm.7,3.83v2.18l1.49.39a1,1,0,0,0,.88,0,1,1,0,0,0,.26-.76,1.48,1.48,0,0,0-.26-.88,1.64,1.64,0,0,0-.88-.51Zm0-2.85v2.05l1.27.33a1,1,0,0,0,.89,0,.86.86,0,0,0,.26-.7,1.31,1.31,0,0,0-.26-.81,1.62,1.62,0,0,0-.89-.51Zm8.51,2.47-.66,1.2-2.13,3.66-.88-.23V345l.71.19v5.62l.66-1.2,2.13-3.68.88.24v6.61l-.71-.19Zm1.88-.51,4.27,1.13v.79l-1.78-.47v5.82l-.71-.19v-5.82l-1.78-.47Zm5.44,1.44.71.18v2.38l1.18.33a2.78,2.78,0,0,1,1.65,1,2.69,2.69,0,0,1,.52,1.68,1.78,1.78,0,0,1-.53,1.42,1.82,1.82,0,0,1-1.64.13l-1.89-.5Zm.71,3.36v2.64l1.18.33c.53.13.9.12,1.11-.06a1.08,1.08,0,0,0,.33-.89,1.73,1.73,0,0,0-.33-1.07,1.91,1.91,0,0,0-1.11-.63Zm8.57,1.48-.57-1.58v5.66l-.71-.19V350l1,.26,1.74,4.55,1.75-3.62,1,.26v6.61l-.7-.19v-5.66l-.58,1.28-1.08,2.28-.71-.18Zm7.95,6.44a2.86,2.86,0,0,1-1.68-1.24,4.58,4.58,0,0,1-.62-2.48v-.58a3,3,0,0,1,.62-2.14,1.64,1.64,0,0,1,1.68-.37,2.82,2.82,0,0,1,1.66,1.25,4.47,4.47,0,0,1,.63,2.48v.53l-3.86-1v0a3.41,3.41,0,0,0,.43,1.84,1.84,1.84,0,0,0,1.14.86,1.14,1.14,0,0,0,1-.07,1.35,1.35,0,0,0,.51-.73l.73.2a2.8,2.8,0,0,1-.26.72,1.37,1.37,0,0,1-.45.53,1.49,1.49,0,0,1-.66.25A2.24,2.24,0,0,1,384.89,359.18Zm0-6a1.06,1.06,0,0,0-1.11.24,2.19,2.19,0,0,0-.46,1.4l3.13.83A3.23,3.23,0,0,0,386,354,1.84,1.84,0,0,0,384.89,353.2Zm7.46,4.88-3-.78v3l-.7-.19v-6.61l.7.19v2.84l3,.79v-2.85l.7.19v6.62l-.7-.19Zm4.49,4.26a2.75,2.75,0,0,1-1.68-1.24,4.52,4.52,0,0,1-.62-2.47V358a3,3,0,0,1,.62-2.13,1.6,1.6,0,0,1,1.68-.36,2.71,2.71,0,0,1,1.66,1.25,4.43,4.43,0,0,1,.63,2.46v.54l-3.86-1v0a3.37,3.37,0,0,0,.43,1.83,1.86,1.86,0,0,0,1.14.87,1.14,1.14,0,0,0,1-.07,1.42,1.42,0,0,0,.51-.72l.73.19a3.06,3.06,0,0,1-.26.72,1.45,1.45,0,0,1-.45.53,1.49,1.49,0,0,1-.66.25A2.08,2.08,0,0,1,396.84,362.34Zm0-6a1,1,0,0,0-1.11.26,2.08,2.08,0,0,0-.46,1.39l3.12.84a3.07,3.07,0,0,0-.47-1.68A1.84,1.84,0,0,0,396.84,356.36Zm7.72,7.94-4.08-1.08v1.72l-.71-.19v-2.51l.57.15a4.31,4.31,0,0,0,.31-.6,3.34,3.34,0,0,0,.18-.71,8.82,8.82,0,0,0,.08-1c0-.37,0-.83,0-1.38v-2l3.57.94v5.83l.75.19v2.52l-.71-.19Zm-2.91-5.4c0,.54,0,1,0,1.4a8.41,8.41,0,0,1-.09,1,3.34,3.34,0,0,1-.15.73,4.58,4.58,0,0,1-.22.58l2.66.7v-5l-2.17-.57Zm9.08,4-1-.24v3l-.7-.19v-3l-1-.26-1.42,2.67-.84-.23,1.63-3-1.42-3.58.85.23,1.2,3.1,1,.25v-2.78l.7.19v2.78l1,.25,1.22-2.45.83.22-1.4,2.78,1.62,3.89-.87-.23Zm5.2,4.52a2.8,2.8,0,0,1-1.67-1.24,4.45,4.45,0,0,1-.62-2.48v-.58a3,3,0,0,1,.62-2.14,1.6,1.6,0,0,1,1.67-.36,2.77,2.77,0,0,1,1.67,1.25,4.44,4.44,0,0,1,.63,2.47v.54l-3.87-1v0a3.5,3.5,0,0,0,.43,1.84,2,2,0,0,0,1.14.87,1.13,1.13,0,0,0,1-.08,1.42,1.42,0,0,0,.52-.73l.72.2a2.73,2.73,0,0,1-.25.73,1.67,1.67,0,0,1-.45.53,1.58,1.58,0,0,1-.66.24A2.29,2.29,0,0,1,415.93,367.41Zm0-6a1,1,0,0,0-1.11.25,2.19,2.19,0,0,0-.46,1.4l3.13.82a3.23,3.23,0,0,0-.47-1.67A1.84,1.84,0,0,0,415.93,361.43Zm6.18,7.61a2.25,2.25,0,0,1-1-.51,2.68,2.68,0,0,1-.71-1v3.61l-.7-.18v-9.26l.54.14.09,1.14a1.36,1.36,0,0,1,.71-.71,1.55,1.55,0,0,1,1.05,0,2.08,2.08,0,0,1,.84.42,2.61,2.61,0,0,1,.66.77,3.53,3.53,0,0,1,.43,1.08,5.44,5.44,0,0,1,.16,1.4v.57a4.53,4.53,0,0,1-.16,1.3,2.22,2.22,0,0,1-.43.87,1.28,1.28,0,0,1-.66.41A1.52,1.52,0,0,1,422.11,369Zm-.16-.86a1,1,0,0,0,1.11-.25,2.44,2.44,0,0,0,.41-1.63v-.58a3.51,3.51,0,0,0-.42-1.84A1.89,1.89,0,0,0,422,363a1,1,0,0,0-1.08.28,2.23,2.23,0,0,0-.45,1.5v.69a3.5,3.5,0,0,0,.43,1.82A1.76,1.76,0,0,0,422,368.18Zm9.86-2.47-2.75-.73v5.82l-.7-.19V364l4.16,1.1v6.62l-.71-.19Zm3.79,6.91a2,2,0,0,1-1.22-.82,2.62,2.62,0,0,1-.43-1.53,2.59,2.59,0,0,1,.12-.83,1.16,1.16,0,0,1,.39-.56,1.38,1.38,0,0,1,.71-.21,2.81,2.81,0,0,1,1,.12l1.22.32v-.6a1.93,1.93,0,0,0-.29-1.12,1.59,1.59,0,0,0-.93-.59,1.05,1.05,0,0,0-.88.06.82.82,0,0,0-.33.68l-.76-.2a2,2,0,0,1,.15-.72,1.31,1.31,0,0,1,.37-.5,1.09,1.09,0,0,1,.61-.21,2.11,2.11,0,0,1,.84.07,2.39,2.39,0,0,1,1.43,1,3,3,0,0,1,.49,1.75v4.5l-.54-.14-.11-1.28a1.56,1.56,0,0,1-.77.79A1.5,1.5,0,0,1,435.6,372.62Zm.06-.8a1.32,1.32,0,0,0,.68,0,1.45,1.45,0,0,0,.56-.3,1.57,1.57,0,0,0,.37-.56,2.15,2.15,0,0,0,.14-.77v-.31l-1.22-.32a1.39,1.39,0,0,0-1.17.05,1,1,0,0,0-.34.83,1.56,1.56,0,0,0,.24.87A1.21,1.21,0,0,0,435.66,371.82Zm6.6,2.57a2.36,2.36,0,0,1-1-.51,2.86,2.86,0,0,1-.71-1v3.61l-.7-.19v-9.26l.54.14.09,1.13a1.46,1.46,0,0,1,.71-.7,1.55,1.55,0,0,1,1.05,0,2.37,2.37,0,0,1,.84.42,2.53,2.53,0,0,1,.66.78,3.53,3.53,0,0,1,.43,1.08,5.81,5.81,0,0,1,.16,1.38v.59a4.83,4.83,0,0,1-.16,1.29,2.22,2.22,0,0,1-.43.87,1.3,1.3,0,0,1-.66.42A1.72,1.72,0,0,1,442.26,374.39Zm-.16-.86a1.06,1.06,0,0,0,1.11-.26,2.48,2.48,0,0,0,.41-1.63v-.57a3.48,3.48,0,0,0-.42-1.84,1.85,1.85,0,0,0-1.1-.86,1,1,0,0,0-1.08.27,2.21,2.21,0,0,0-.45,1.51v.69a3.39,3.39,0,0,0,.43,1.81A1.81,1.81,0,0,0,442.1,373.53Zm5.76,2.35a2.91,2.91,0,0,1-1-.47,3.11,3.11,0,0,1-.73-.8,3.78,3.78,0,0,1-.48-1.1,5.31,5.31,0,0,1-.16-1.37v-.57a3.92,3.92,0,0,1,.17-1.26,2.1,2.1,0,0,1,.47-.85,1.44,1.44,0,0,1,.73-.43,2.17,2.17,0,0,1,1,.05,2.85,2.85,0,0,1,1,.46,3.41,3.41,0,0,1,.75.81,3.77,3.77,0,0,1,.47,1.1,5.31,5.31,0,0,1,.17,1.35v.59a4.39,4.39,0,0,1-.17,1.27,2.25,2.25,0,0,1-.48.85,1.4,1.4,0,0,1-.74.41A2,2,0,0,1,447.86,375.88Zm0-.83a1.12,1.12,0,0,0,1.18-.26,2.29,2.29,0,0,0,.44-1.59v-.58a3.39,3.39,0,0,0-.45-1.82,2,2,0,0,0-1.17-.91,1.12,1.12,0,0,0-1.17.3,2.2,2.2,0,0,0-.45,1.57v.58a3.41,3.41,0,0,0,.45,1.82A2,2,0,0,0,447.86,375.05Zm3,.82.16,0a.55.55,0,0,0,.36,0,.61.61,0,0,0,.28-.35,2.56,2.56,0,0,0,.2-.76,9.64,9.64,0,0,0,.07-1.34v-3.18l3.62,1v6.61l-.7-.18v-5.82l-2.22-.59v2.38a9.85,9.85,0,0,1-.11,1.69,2.94,2.94,0,0,1-.32,1,1,1,0,0,1-.51.44,1.53,1.53,0,0,1-.67,0l-.16,0Zm8.48,3.07a2.84,2.84,0,0,1-1.67-1.24,4.49,4.49,0,0,1-.62-2.49v-.57a3,3,0,0,1,.62-2.15,1.6,1.6,0,0,1,1.67-.36,2.82,2.82,0,0,1,1.67,1.25,4.48,4.48,0,0,1,.63,2.47v.55l-3.87-1v0a3.53,3.53,0,0,0,.43,1.84,2,2,0,0,0,1.14.87,1.15,1.15,0,0,0,1-.09,1.33,1.33,0,0,0,.51-.72l.73.19a2.73,2.73,0,0,1-.25.73,1.57,1.57,0,0,1-.45.53,1.41,1.41,0,0,1-.66.24A2.28,2.28,0,0,1,459.38,378.94Zm0-6a1,1,0,0,0-1.1.24,2.13,2.13,0,0,0-.47,1.4l3.13.83a3.18,3.18,0,0,0-.47-1.67A1.78,1.78,0,0,0,459.38,373Zm7.46,2.24-.66,1.2L464,380.08l-.87-.24v-6.61l.7.19V379l.66-1.22,2.14-3.66.88.23V381l-.71-.19ZM465.36,373a1.72,1.72,0,0,1-1.06-.75,2.51,2.51,0,0,1-.38-1.44l.68.18a1.91,1.91,0,0,0,.19.92.89.89,0,0,0,.57.4.55.55,0,0,0,.57-.1,1.23,1.23,0,0,0,.21-.81l.66.18a1.67,1.67,0,0,1-.39,1.23A1,1,0,0,1,465.36,373Z" transform="translate(-0.23 -0.02)"/><path class="cls-8" d="M289.87,315.45l16.77,4.45a4.2,4.2,0,0,1,2.66,4V344.7c0,1.83-1.19,3-2.66,2.6l-16.77-4.44a4.2,4.2,0,0,1-2.66-4V318.05C287.21,316.23,288.4,315.06,289.87,315.45Z" transform="translate(-0.23 -0.02)"/><path class="cls-9" d="M696.61,437.09l-1-.27v3.72l-.63-.17v-7.93l.63.17v3.48l1,.28,2.06-2.95.78.21-2.3,3.23,2.48,4.75-.79-.21Zm5.12,5.16a1.8,1.8,0,0,1-1.06-.71,2.25,2.25,0,0,1-.36-1.32,2.6,2.6,0,0,1,.09-.71,1,1,0,0,1,.34-.47,1.23,1.23,0,0,1,.61-.2,2.49,2.49,0,0,1,.88.12l1,.27v-.51a1.66,1.66,0,0,0-.25-1,1.26,1.26,0,0,0-.79-.5.89.89,0,0,0-.77,0,.79.79,0,0,0-.28.59l-.64-.18a1.62,1.62,0,0,1,.12-.61.91.91,0,0,1,.32-.42,1.05,1.05,0,0,1,.52-.2,1.94,1.94,0,0,1,.73.07,2.07,2.07,0,0,1,1.22.83,2.57,2.57,0,0,1,.42,1.5v3.86l-.46-.13-.1-1.08a1.35,1.35,0,0,1-.66.67A1.36,1.36,0,0,1,701.73,442.25Zm0-.69a1.18,1.18,0,0,0,.59,0,1.06,1.06,0,0,0,.48-.25,1.21,1.21,0,0,0,.31-.48,1.62,1.62,0,0,0,.13-.66v-.27l-1-.27a1.19,1.19,0,0,0-1,0,.88.88,0,0,0-.3.72,1.33,1.33,0,0,0,.22.75A1.07,1.07,0,0,0,701.76,441.56Zm5-.66-.81-.21v2.6l-.61-.16v-5.67l.61.16V440l.81.21,1.31-2,.75.2-1.51,2.33,1.69,3.39-.75-.2Zm6.4,1.08,1.85.48a3.11,3.11,0,0,0-.12-.78,2.21,2.21,0,0,0-.28-.64,1.81,1.81,0,0,0-.43-.48,1.28,1.28,0,0,0-.52-.26.85.85,0,0,0-.75.06,1.22,1.22,0,0,0-.39.54l-.64-.17a2.09,2.09,0,0,1,.21-.56,1.26,1.26,0,0,1,.37-.42,1.28,1.28,0,0,1,.52-.22,1.66,1.66,0,0,1,.68.06,2.13,2.13,0,0,1,.79.41,2.32,2.32,0,0,1,.63.69,3,3,0,0,1,.4.93,3.9,3.9,0,0,1,.15,1.1v.5a3.75,3.75,0,0,1-.15,1.12,1.75,1.75,0,0,1-.4.74,1.19,1.19,0,0,1-.63.37,1.53,1.53,0,0,1-.79,0,2.11,2.11,0,0,1-1.2-.8,3.37,3.37,0,0,1-.58-1.39l.64.17a2.47,2.47,0,0,0,.39.85,1.32,1.32,0,0,0,.75.47.91.91,0,0,0,.95-.24,2,2,0,0,0,.4-1.34l-1.85-.48Zm3-1.64,3.66,1V442l-1.53-.41v5l-.61-.16v-5l-1.52-.4Zm6.22,7.4a2.45,2.45,0,0,1-.83-.4,2.77,2.77,0,0,1-.63-.69,3.48,3.48,0,0,1-.41-.94,4.75,4.75,0,0,1-.14-1.17V444a3.68,3.68,0,0,1,.15-1.07,1.76,1.76,0,0,1,.4-.73,1.17,1.17,0,0,1,.63-.37,1.82,1.82,0,0,1,.83,0,2.1,2.1,0,0,1,.82.4,2.67,2.67,0,0,1,.65.69,3.13,3.13,0,0,1,.4.95,4.29,4.29,0,0,1,.14,1.16v.5a3.61,3.61,0,0,1-.14,1.09,1.94,1.94,0,0,1-.41.72,1.1,1.1,0,0,1-.64.35A1.65,1.65,0,0,1,722.43,447.74Zm0-.7a1,1,0,0,0,1-.24,1.91,1.91,0,0,0,.38-1.36V445a2.82,2.82,0,0,0-.39-1.56,1.67,1.67,0,0,0-1-.78.94.94,0,0,0-1,.25,1.88,1.88,0,0,0-.39,1.35v.49a2.82,2.82,0,0,0,.39,1.56A1.72,1.72,0,0,0,722.43,447Zm7.27,2.62a2.19,2.19,0,0,1-.8-.38,3,3,0,0,1-.63-.69,3.8,3.8,0,0,1-.4-.94,4.81,4.81,0,0,1-.14-1.17V446a3.7,3.7,0,0,1,.14-1.07,1.92,1.92,0,0,1,.4-.74,1.28,1.28,0,0,1,.63-.37,1.7,1.7,0,0,1,.8,0,2.47,2.47,0,0,1,.68.3,2.25,2.25,0,0,1,.52.5,2.62,2.62,0,0,1,.37.6,3.16,3.16,0,0,1,.21.68l-.64-.17a2.24,2.24,0,0,0-.39-.75,1.4,1.4,0,0,0-.75-.46.91.91,0,0,0-1,.26,1.93,1.93,0,0,0-.37,1.35v.5a3.44,3.44,0,0,0,.1.86,2.69,2.69,0,0,0,.28.69,2.1,2.1,0,0,0,.42.5,1.5,1.5,0,0,0,.54.26.81.81,0,0,0,.75-.07,1.19,1.19,0,0,0,.39-.64l.64.17a1.82,1.82,0,0,1-.57,1.08A1.24,1.24,0,0,1,729.7,449.66Zm6.3,1.6-3.5-.93v1.48l-.6-.16v-2.16l.48.13a2.58,2.58,0,0,0,.27-.52,2.86,2.86,0,0,0,.15-.61,6.31,6.31,0,0,0,.07-.84c0-.32,0-.72,0-1.18v-1.7l3.06.81v5l.65.17v2.16l-.61-.17Zm-2.49-4.63c0,.46,0,.87,0,1.2a6.65,6.65,0,0,1-.08.86,3.25,3.25,0,0,1-.12.62c-.06.16-.12.33-.2.5l2.28.6V446.1l-1.85-.49Zm5.74,5.58a2.42,2.42,0,0,1-1.43-1.07,3.91,3.91,0,0,1-.53-2.13v-.49a2.6,2.6,0,0,1,.53-1.83,1.36,1.36,0,0,1,1.43-.32,2.36,2.36,0,0,1,1.43,1.07,3.83,3.83,0,0,1,.54,2.12V450l-3.31-.88v0a2.9,2.9,0,0,0,.37,1.57,1.66,1.66,0,0,0,1,.75,1,1,0,0,0,.86-.07,1.21,1.21,0,0,0,.45-.62l.62.17a2.55,2.55,0,0,1-.23.62,1.36,1.36,0,0,1-.37.45,1.3,1.3,0,0,1-.57.21A2,2,0,0,1,739.25,452.21Zm0-5.14a.91.91,0,0,0-.94.22,1.78,1.78,0,0,0-.4,1.2l2.68.71a2.76,2.76,0,0,0-.4-1.44A1.66,1.66,0,0,0,739.25,447.07Zm2.56,5.11.15,0a.61.61,0,0,0,.3,0,.57.57,0,0,0,.24-.31,1.66,1.66,0,0,0,.16-.65,7.19,7.19,0,0,0,.07-1.15v-2.72l3.11.82v5.67l-.6-.16v-5l-1.9-.5v2a7.2,7.2,0,0,1-.11,1.44,2.49,2.49,0,0,1-.27.86.81.81,0,0,1-.44.37,1,1,0,0,1-.56,0l-.15,0Zm6.69,2.47a1.76,1.76,0,0,1-1.06-.71,2.29,2.29,0,0,1-.36-1.31,2.5,2.5,0,0,1,.09-.71,1,1,0,0,1,.34-.48,1.33,1.33,0,0,1,.61-.19,2.7,2.7,0,0,1,.88.11l1,.28v-.51a1.64,1.64,0,0,0-.25-1,1.44,1.44,0,0,0-.79-.51.93.93,0,0,0-.76.06.69.69,0,0,0-.28.58l-.66-.17a2,2,0,0,1,.13-.62,1,1,0,0,1,.32-.42,1,1,0,0,1,.53-.19,1.87,1.87,0,0,1,.72.06,2.07,2.07,0,0,1,1.22.83,2.56,2.56,0,0,1,.42,1.51v3.85l-.46-.12-.1-1.09a1.41,1.41,0,0,1-.66.68A1.36,1.36,0,0,1,748.5,454.65Zm0-.69a1.27,1.27,0,0,0,.58,0,1.12,1.12,0,0,0,.48-.26,1.23,1.23,0,0,0,.32-.48,1.78,1.78,0,0,0,.12-.67v-.25l-1-.28a1.18,1.18,0,0,0-1,0,.86.86,0,0,0-.29.71,1.38,1.38,0,0,0,.21.76A1.08,1.08,0,0,0,748.54,454Zm3-4.26,3.66,1v.69l-1.53-.41v5l-.61-.16v-5l-1.52-.41Zm4.66,1.24.6.16v2l1,.27a2.43,2.43,0,0,1,1.42.87,2.3,2.3,0,0,1,.44,1.43,1.49,1.49,0,0,1-.45,1.21,1.55,1.55,0,0,1-1.41.11l-1.62-.42Zm.6,2.88v2.27l1,.26a1.09,1.09,0,0,0,1,0,.94.94,0,0,0,.28-.77,1.48,1.48,0,0,0-.28-.92,1.7,1.7,0,0,0-1-.54Z" transform="translate(-0.23 -0.02)"/><path class="cls-10" d="M762.71,452.67l3.81,5.74,3.81-3.72" transform="translate(-0.23 -0.02)"/><path class="cls-11" d="M244.16,104.87,785.05,248.32a4.2,4.2,0,0,1,2.67,4v247.6c0,1.82-1.19,3-2.67,2.6L244.16,359.08a4.18,4.18,0,0,1-2.67-4V107.47C241.49,105.64,242.68,104.48,244.16,104.87Z" transform="translate(-0.23 -0.02)"/><path class="cls-5" d="M244.16,473.43,785.05,616.89a4.18,4.18,0,0,1,2.67,4V670c0,1.83-1.19,3-2.67,2.6L244.16,529.19a4.19,4.19,0,0,1-2.67-4V476C241.49,474.21,242.68,473,244.16,473.43Z" transform="translate(-0.23 -0.02)"/><path class="cls-7" d="M264.71,502.71l2.51.66a4.66,4.66,0,0,1,1.25.5,2.85,2.85,0,0,1,.84.72,2.53,2.53,0,0,1,.48.92,3.73,3.73,0,0,1,.15,1.09,2.26,2.26,0,0,1-.23,1,1.38,1.38,0,0,1-.73.63,2.85,2.85,0,0,1,.89,1.11,3.22,3.22,0,0,1,.28,1.34,3.68,3.68,0,0,1-.15,1.13,1.36,1.36,0,0,1-.48.7,1.5,1.5,0,0,1-.84.29,4.06,4.06,0,0,1-1.25-.16l-2.72-.72Zm1.28,5.48V511l1.44.38c.52.13.87.12,1.07,0a1.21,1.21,0,0,0,.31-1,1.78,1.78,0,0,0-.31-1.12,1.84,1.84,0,0,0-1.07-.63Zm0-3.8v2.5l1.23.33a1.33,1.33,0,0,0,1.07,0,1.08,1.08,0,0,0,.31-.86,1.58,1.58,0,0,0-.31-1,1.8,1.8,0,0,0-1.07-.62Zm5.29,2.7,1.23.32v2l.79.22a3,3,0,0,1,1.78,1.08,3.06,3.06,0,0,1,.57,1.85,1.94,1.94,0,0,1-.57,1.55,2,2,0,0,1-1.78.15l-2-.54Zm4.94,1.32,1.24.32v6.61l-1.24-.32Zm-3.71,2.25v2.11l.85.23a.74.74,0,0,0,.74-.08.88.88,0,0,0,.25-.71,1.38,1.38,0,0,0-.25-.85,1.25,1.25,0,0,0-.74-.48Zm9.69.68-2.11-.56V516l-1.24-.33V509.1l4.59,1.22v6.61l-1.24-.33Zm4.86,6.67a3.16,3.16,0,0,1-1.89-1.34,4.58,4.58,0,0,1-.67-2.56v-.42a4.5,4.5,0,0,1,.17-1.3,2.11,2.11,0,0,1,.51-.87,1.58,1.58,0,0,1,.81-.42,2.21,2.21,0,0,1,1.07.06,3.14,3.14,0,0,1,1.88,1.34,4.57,4.57,0,0,1,.68,2.55v.43a4.21,4.21,0,0,1-.18,1.3,2.22,2.22,0,0,1-.51.88,1.49,1.49,0,0,1-.82.41A2.25,2.25,0,0,1,287.06,518Zm0-1.43a.86.86,0,0,0,.93-.19,1.83,1.83,0,0,0,.33-1.26v-.42a2.68,2.68,0,0,0-.34-1.43,1.53,1.53,0,0,0-.92-.7.91.91,0,0,0-.94.19,1.92,1.92,0,0,0-.32,1.27v.42a2.74,2.74,0,0,0,.33,1.44A1.55,1.55,0,0,0,287.06,516.58Zm2.93.78.16,0a.45.45,0,0,0,.28,0,.58.58,0,0,0,.27-.27,2.76,2.76,0,0,0,.18-.62,6.24,6.24,0,0,0,.07-1.06v-3.12l4.06,1.08V520l-1.24-.33v-5.26l-1.58-.43v1.78a7.46,7.46,0,0,1-.15,1.66,2.59,2.59,0,0,1-.4,1,1.09,1.09,0,0,1-.65.44,1.75,1.75,0,0,1-.84,0l-.16,0Zm10,1.25-2.32-.61v2.69l-1.24-.32v-6.61l1.24.32v2.57l2.32.61V514.7l1.24.32v6.62l-1.24-.32Zm4.82,4.09a3.1,3.1,0,0,1-1-.48,3.39,3.39,0,0,1-.79-.85,4.15,4.15,0,0,1-.51-1.15,5.57,5.57,0,0,1-.17-1.39v-.42a4.58,4.58,0,0,1,.17-1.31,2.11,2.11,0,0,1,.51-.87,1.39,1.39,0,0,1,.79-.42,2.07,2.07,0,0,1,1,0,3.05,3.05,0,0,1,1.83,1.37,5,5,0,0,1,.67,2.73v.52l-3.77-1a2.51,2.51,0,0,0,.37,1.3,1.46,1.46,0,0,0,.9.59,1,1,0,0,0,.82,0,.84.84,0,0,0,.35-.48l1.28.33a3,3,0,0,1-.27.8,1.51,1.51,0,0,1-.48.55,1.54,1.54,0,0,1-.72.28A2.5,2.5,0,0,1,304.77,522.7Zm0-5.5a.94.94,0,0,0-.86.11,1.42,1.42,0,0,0-.39.93l2.49.67a2.31,2.31,0,0,0-.39-1.17A1.61,1.61,0,0,0,304.77,517.2Zm7.13,4.58-2.32-.62v2.71l-1.24-.33v-6.62l1.24.33v2.56l2.32.62v-2.56l1.24.33v6.61l-1.24-.33Zm6.19,1.64-2.32-.61v2.69l-1.24-.32v-6.61l1.24.32v2.57l2.32.61v-2.56l1.24.32v6.62l-1.24-.32Zm2.63-3.22,1.23.33v2l.79.2a3.15,3.15,0,0,1,1.79,1.1,3,3,0,0,1,.56,1.84,1.9,1.9,0,0,1-.56,1.54,1.93,1.93,0,0,1-1.79.15l-2-.53Zm4.95,1.31,1.23.33v6.62l-1.23-.33ZM322,523.77v2.12l.85.23a.79.79,0,0,0,.74-.09.89.89,0,0,0,.25-.72,1.37,1.37,0,0,0-.25-.84,1.2,1.2,0,0,0-.74-.47Zm8.53,5.76a3.32,3.32,0,0,1-1-.49,3.52,3.52,0,0,1-.79-.84,4.21,4.21,0,0,1-.51-1.16,5.59,5.59,0,0,1-.17-1.4v-.42a4.63,4.63,0,0,1,.17-1.31,2.14,2.14,0,0,1,.51-.86,1.62,1.62,0,0,1,.79-.43,2.09,2.09,0,0,1,1,.06,3,3,0,0,1,1.83,1.37,5,5,0,0,1,.67,2.71v.52l-3.77-1a2.51,2.51,0,0,0,.37,1.3,1.61,1.61,0,0,0,.9.6,1.1,1.1,0,0,0,.82,0,.9.9,0,0,0,.35-.49l1.28.34a3,3,0,0,1-.27.78,1.5,1.5,0,0,1-.48.57,1.63,1.63,0,0,1-.72.26A2.65,2.65,0,0,1,330.48,529.53Zm0-5.51a.94.94,0,0,0-.86.1,1.45,1.45,0,0,0-.39,1l2.5.66a2.17,2.17,0,0,0-.4-1.16A1.51,1.51,0,0,0,330.48,524Z" transform="translate(-0.23 -0.02)"/><path class="cls-12" d="M722.94,634.6a4.39,4.39,0,0,1-1.41-.68,4.54,4.54,0,0,1-1.08-1.25,6.38,6.38,0,0,1-.7-1.8,11,11,0,0,1-.23-2.34v-.89a12.32,12.32,0,0,1,.26-2.73,4.82,4.82,0,0,1,.72-1.73,2.09,2.09,0,0,1,1.13-.79,2.65,2.65,0,0,1,1.45,0,3.83,3.83,0,0,1,1.12.52,3.94,3.94,0,0,1,.87.86,4.17,4.17,0,0,1,.6,1.1,5.58,5.58,0,0,1,.36,1.27l-1.69-.45a2.57,2.57,0,0,0-.46-.86,1.59,1.59,0,0,0-.86-.55,1.51,1.51,0,0,0-.76,0,1,1,0,0,0-.58.41,2.19,2.19,0,0,0-.39.88,5.86,5.86,0,0,0-.18,1.42,1.74,1.74,0,0,1,.88-.52,1.93,1.93,0,0,1,1.09,0,3.87,3.87,0,0,1,2.32,1.67,5.51,5.51,0,0,1,.84,3.13v.21A4.54,4.54,0,0,1,726,633a2.79,2.79,0,0,1-.67,1.06,2.05,2.05,0,0,1-1.05.55A2.89,2.89,0,0,1,722.94,634.6Zm0-6.23a1.26,1.26,0,0,0-1.26.21,1.88,1.88,0,0,0-.44,1.4v.19a2.93,2.93,0,0,0,.44,1.64,2.16,2.16,0,0,0,1.26.88,1.1,1.1,0,0,0,1.13-.25,1.89,1.89,0,0,0,.44-1.4v-.2a2.89,2.89,0,0,0-.44-1.63A1.88,1.88,0,0,0,722.94,628.37Z" transform="translate(-0.23 -0.02)"/><path class="cls-13" d="M742.38,628.73,750,640.2l7.61-7.43" transform="translate(-0.23 -0.02)"/><path class="cls-14" d="M244.16,473.43,785.05,616.89a4.18,4.18,0,0,1,2.67,4V670c0,1.83-1.19,3-2.67,2.6L244.16,529.19a4.19,4.19,0,0,1-2.67-4V476C241.49,474.21,242.68,473,244.16,473.43Z" transform="translate(-0.23 -0.02)"/><path class="cls-5" d="M244.16,388.38,785.05,531.83a4.19,4.19,0,0,1,2.67,4V585c0,1.83-1.19,3-2.67,2.6L244.16,444.14a4.19,4.19,0,0,1-2.67-4V391C241.49,389.15,242.68,388,244.16,388.38Z" transform="translate(-0.23 -0.02)"/><path class="cls-7" d="M269.51,424.12l-3.52-.93v4.06l-1.28-.33v-9.26L266,418v3.8l3.52.93v-3.8l1.28.34v9.26l-1.28-.34Zm4.91,5.49a2.89,2.89,0,0,1-1-.49,3.33,3.33,0,0,1-.79-.84,4.55,4.55,0,0,1-.52-1.16,5.57,5.57,0,0,1-.17-1.39v-.43a4.55,4.55,0,0,1,.17-1.3,2.24,2.24,0,0,1,.52-.87,1.44,1.44,0,0,1,.79-.43,2.29,2.29,0,0,1,1,.05,3.06,3.06,0,0,1,1.84,1.38,5.06,5.06,0,0,1,.67,2.71v.52l-3.78-1a2.57,2.57,0,0,0,.37,1.3,1.63,1.63,0,0,0,.9.6,1.1,1.1,0,0,0,.82,0,.79.79,0,0,0,.35-.49l1.28.34a2.56,2.56,0,0,1-.26.78,1.5,1.5,0,0,1-.48.57,1.52,1.52,0,0,1-.73.26A2.67,2.67,0,0,1,274.42,429.61Zm0-5.51a1,1,0,0,0-.85.1,1.43,1.43,0,0,0-.4.95l2.5.66a2.09,2.09,0,0,0-.4-1.16A1.53,1.53,0,0,0,274.42,424.1Zm8.19,5.34-1.2,1.9L280,431l1.85-2.85-1.76-3.74,1.43.38,1.12,2.4,1.14-1.8,1.36.36-1.76,2.75,1.85,3.89-1.43-.38Zm5.42,3.77a3.14,3.14,0,0,1-1.89-1.34,4.52,4.52,0,0,1-.67-2.55v-.42a4.14,4.14,0,0,1,.17-1.3,2.05,2.05,0,0,1,.51-.87,1.53,1.53,0,0,1,.81-.43,2.49,2.49,0,0,1,1.07.06,3.13,3.13,0,0,1,1.87,1.34,4.5,4.5,0,0,1,.69,2.55v.43a4.21,4.21,0,0,1-.18,1.3,2.06,2.06,0,0,1-.52.88,1.6,1.6,0,0,1-.81.43A2.59,2.59,0,0,1,288,433.21Zm0-1.43a.84.84,0,0,0,.93-.19,1.82,1.82,0,0,0,.33-1.25v-.43a2.55,2.55,0,0,0-.35-1.42,1.48,1.48,0,0,0-.91-.7.89.89,0,0,0-.94.19,1.91,1.91,0,0,0-.32,1.26v.43a2.73,2.73,0,0,0,.33,1.43A1.55,1.55,0,0,0,288,431.78Zm6.54,1-.45,0c-.17,0-.35-.07-.55-.11a2.91,2.91,0,0,1-1.72-1.1,3.86,3.86,0,0,1-.52-2.15v-2l1.24.32v2a2.09,2.09,0,0,0,.21,1.08,1.27,1.27,0,0,0,.79.49l.54.12.46,0v-3.18l1.24.32v6.62l-1.24-.32Zm4.13,3.18-2.15-7.18,1.35.36,1.45,5.12,1.36-4.37,1.28.34-2.82,8.5-1.28-.33Zm10.58,2.81-3.32-.88v1.72l-1.2-.32v-3l.57.15a2.56,2.56,0,0,0,.21-.47,3.21,3.21,0,0,0,.17-.65,8,8,0,0,0,.12-.87c0-.33,0-.72,0-1.17v-2l4,1v5.29l.64.17v3l-1.19-.32Zm-2.21-5.22c0,.48,0,.88-.05,1.22s0,.64-.09.89a3.9,3.9,0,0,1-.15.63,4.09,4.09,0,0,1-.16.46l2,.52v-3.94l-1.52-.41Zm6.39,6.45a3,3,0,0,1-1.83-1.33,4.21,4.21,0,0,1-.51-1.16,5.12,5.12,0,0,1-.17-1.4v-.41a4.21,4.21,0,0,1,.17-1.31,2.11,2.11,0,0,1,.51-.87,1.49,1.49,0,0,1,.79-.42,2,2,0,0,1,1,.05,3,3,0,0,1,1.83,1.37,5,5,0,0,1,.67,2.72v.51l-3.77-1a2.51,2.51,0,0,0,.37,1.3,1.61,1.61,0,0,0,.9.6,1.05,1.05,0,0,0,.82,0,1,1,0,0,0,.35-.49l1.28.34a3.2,3.2,0,0,1-.27.79,1.54,1.54,0,0,1-.48.56,1.64,1.64,0,0,1-.72.27A2.89,2.89,0,0,1,313.46,440Zm0-5.5a.89.89,0,0,0-.86.1,1.31,1.31,0,0,0-.39.94l2.49.66a2.24,2.24,0,0,0-.39-1.16A1.5,1.5,0,0,0,313.46,434.46Zm2.88,4.84.16,0a.45.45,0,0,0,.28,0A.6.6,0,0,0,317,439a1.84,1.84,0,0,0,.18-.62,6.06,6.06,0,0,0,.08-1.05v-3.13l4.05,1.08v6.61l-1.24-.33v-5.26l-1.57-.42v1.77a7.62,7.62,0,0,1-.15,1.67,2.53,2.53,0,0,1-.41,1,1,1,0,0,1-.64.44,1.53,1.53,0,0,1-.84,0l-.16,0Zm7.78,3.48a2.22,2.22,0,0,1-1.31-.87,2.7,2.7,0,0,1-.45-1.58,3,3,0,0,1,.13-.9,1.26,1.26,0,0,1,.43-.59,1.45,1.45,0,0,1,.76-.23,3.91,3.91,0,0,1,1.14.14l.89.23v-.39a1.32,1.32,0,0,0-.21-.77,1.05,1.05,0,0,0-.68-.43.72.72,0,0,0-.65,0,.69.69,0,0,0-.25.49l-1.34-.36a1.71,1.71,0,0,1,.57-1.3,1.86,1.86,0,0,1,1.67-.14,2.76,2.76,0,0,1,1.6,1,3,3,0,0,1,.53,1.77v4.5l-1-.26-.13-.94a1.34,1.34,0,0,1-.72.57A1.66,1.66,0,0,1,324.12,442.78Zm.22-1.21a1,1,0,0,0,.54,0,1.07,1.07,0,0,0,.44-.22,1.46,1.46,0,0,0,.29-.44,1.42,1.42,0,0,0,.1-.57v-.19l-.89-.24a1.09,1.09,0,0,0-.9,0,.77.77,0,0,0-.25.65,1,1,0,0,0,.17.61A.81.81,0,0,0,324.34,441.57Zm3.3-4.58,4.48,1.18v1.35l-1.62-.42v5.26l-1.24-.33v-5.26l-1.62-.44ZM333,438.4l1.24.33v2l.89.24a3.09,3.09,0,0,1,1.78,1.1,3,3,0,0,1,.57,1.84,1.87,1.87,0,0,1-.57,1.54,1.91,1.91,0,0,1-1.78.15L333,445Zm1.24,3.57v2.12l.95.25a.77.77,0,0,0,.74-.08.88.88,0,0,0,.25-.71,1.38,1.38,0,0,0-.25-.85,1.16,1.16,0,0,0-.74-.47Z" transform="translate(-0.23 -0.02)"/><path class="cls-12" d="M722.33,538.91l1.92-1.08,1.64.43v11.91l-1.64-.44v-9.8L722.33,541Z" transform="translate(-0.23 -0.02)"/><path class="cls-13" d="M742.38,543.68,750,555.15l7.61-7.43" transform="translate(-0.23 -0.02)"/><path class="cls-14" d="M244.16,388.38,785.05,531.83a4.19,4.19,0,0,1,2.67,4V585c0,1.83-1.19,3-2.67,2.6L244.16,444.14a4.19,4.19,0,0,1-2.67-4V391C241.49,389.15,242.68,388,244.16,388.38Z" transform="translate(-0.23 -0.02)"/><path class="cls-15" d="M304,159.49c.07,5.45-5.59,8.72-6.28,9.08h0l-.07-.07c-.86-.87-6.37-6.75-6.38-12.08,0-3.36,3.88-4.07,6.33,0l0,.07.05-.05C300,153.54,303.92,156.13,304,159.49Z" transform="translate(-0.23 -0.02)"/><polygon class="cls-5" points="771.06 660.86 698.41 661.67 698.41 511.11 771.06 510.3 771.06 660.86"/><polygon class="cls-16" points="463.56 522.37 423.47 512.58 423.47 472.49 463.56 482.27 463.56 522.37"/><polygon class="cls-16" points="728.48 739.53 688.39 729.75 688.39 689.65 728.48 699.44 728.48 739.53"/><polygon class="cls-16" points="834.38 527.07 794.28 517.28 794.28 477.19 834.38 486.98 834.38 527.07"/><line class="cls-4" x1="464.56" y1="502.56" x2="531.53" y2="518.91"/><line class="cls-4" x1="531.53" y1="518.41" x2="638.68" y2="458"/><line class="cls-4" x1="639.43" y1="457.69" x2="816.58" y2="500.93"/><polygon class="cls-16" points="664.09 547.28 624 537.5 624 497.41 664.09 507.19 664.09 547.28"/><polygon class="cls-16" points="779.24 580.6 739.15 570.82 739.15 530.73 779.24 540.51 779.24 580.6"/><line class="cls-4" x1="663.81" y1="529.81" x2="753.14" y2="553.21"/><line class="cls-4" x1="708.34" y1="700.54" x2="708.34" y2="599"/><line class="cls-4" x1="708.34" y1="598.83" x2="606.12" y2="476.91"/></g></svg>